%TF.GenerationSoftware,KiCad,Pcbnew,(6.0.5)*%
%TF.CreationDate,2022-09-09T17:06:15+01:00*%
%TF.ProjectId,ESC,4553432e-6b69-4636-9164-5f7063625858,rev?*%
%TF.SameCoordinates,Original*%
%TF.FileFunction,Legend,Bot*%
%TF.FilePolarity,Positive*%
%FSLAX46Y46*%
G04 Gerber Fmt 4.6, Leading zero omitted, Abs format (unit mm)*
G04 Created by KiCad (PCBNEW (6.0.5)) date 2022-09-09 17:06:15*
%MOMM*%
%LPD*%
G01*
G04 APERTURE LIST*
%ADD10C,0.200000*%
%ADD11C,0.150000*%
%ADD12C,0.300000*%
%ADD13C,0.010000*%
%ADD14C,0.120000*%
G04 APERTURE END LIST*
D10*
X157692952Y-101189985D02*
X157692952Y-102080461D01*
X157745333Y-102185223D01*
X157797714Y-102237604D01*
X157902476Y-102289985D01*
X158059619Y-102289985D01*
X158164380Y-102237604D01*
X157692952Y-101870938D02*
X157797714Y-101923319D01*
X158007238Y-101923319D01*
X158112000Y-101870938D01*
X158164380Y-101818557D01*
X158216761Y-101713795D01*
X158216761Y-101399509D01*
X158164380Y-101294747D01*
X158112000Y-101242366D01*
X158007238Y-101189985D01*
X157797714Y-101189985D01*
X157692952Y-101242366D01*
X157169142Y-101923319D02*
X157169142Y-101189985D01*
X157169142Y-100823319D02*
X157221523Y-100875700D01*
X157169142Y-100928080D01*
X157116761Y-100875700D01*
X157169142Y-100823319D01*
X157169142Y-100928080D01*
X156802476Y-101189985D02*
X156383428Y-101189985D01*
X156645333Y-100823319D02*
X156645333Y-101766176D01*
X156592952Y-101870938D01*
X156488190Y-101923319D01*
X156383428Y-101923319D01*
X156016761Y-101923319D02*
X156016761Y-100823319D01*
X155545333Y-101923319D02*
X155545333Y-101347128D01*
X155597714Y-101242366D01*
X155702476Y-101189985D01*
X155859619Y-101189985D01*
X155964380Y-101242366D01*
X156016761Y-101294747D01*
X154550095Y-101189985D02*
X154550095Y-101923319D01*
X155021523Y-101189985D02*
X155021523Y-101766176D01*
X154969142Y-101870938D01*
X154864380Y-101923319D01*
X154707238Y-101923319D01*
X154602476Y-101870938D01*
X154550095Y-101818557D01*
X154026285Y-101923319D02*
X154026285Y-100823319D01*
X154026285Y-101242366D02*
X153921523Y-101189985D01*
X153712000Y-101189985D01*
X153607238Y-101242366D01*
X153554857Y-101294747D01*
X153502476Y-101399509D01*
X153502476Y-101713795D01*
X153554857Y-101818557D01*
X153607238Y-101870938D01*
X153712000Y-101923319D01*
X153921523Y-101923319D01*
X154026285Y-101870938D01*
X153031047Y-101818557D02*
X152978666Y-101870938D01*
X153031047Y-101923319D01*
X153083428Y-101870938D01*
X153031047Y-101818557D01*
X153031047Y-101923319D01*
X152035809Y-101870938D02*
X152140571Y-101923319D01*
X152350095Y-101923319D01*
X152454857Y-101870938D01*
X152507238Y-101818557D01*
X152559619Y-101713795D01*
X152559619Y-101399509D01*
X152507238Y-101294747D01*
X152454857Y-101242366D01*
X152350095Y-101189985D01*
X152140571Y-101189985D01*
X152035809Y-101242366D01*
X151407238Y-101923319D02*
X151512000Y-101870938D01*
X151564380Y-101818557D01*
X151616761Y-101713795D01*
X151616761Y-101399509D01*
X151564380Y-101294747D01*
X151512000Y-101242366D01*
X151407238Y-101189985D01*
X151250095Y-101189985D01*
X151145333Y-101242366D01*
X151092952Y-101294747D01*
X151040571Y-101399509D01*
X151040571Y-101713795D01*
X151092952Y-101818557D01*
X151145333Y-101870938D01*
X151250095Y-101923319D01*
X151407238Y-101923319D01*
X150569142Y-101923319D02*
X150569142Y-101189985D01*
X150569142Y-101294747D02*
X150516761Y-101242366D01*
X150412000Y-101189985D01*
X150254857Y-101189985D01*
X150150095Y-101242366D01*
X150097714Y-101347128D01*
X150097714Y-101923319D01*
X150097714Y-101347128D02*
X150045333Y-101242366D01*
X149940571Y-101189985D01*
X149783428Y-101189985D01*
X149678666Y-101242366D01*
X149626285Y-101347128D01*
X149626285Y-101923319D01*
X148316761Y-100770938D02*
X149259619Y-102185223D01*
X161988190Y-103118128D02*
X161831047Y-103170509D01*
X161778666Y-103222890D01*
X161726285Y-103327652D01*
X161726285Y-103484795D01*
X161778666Y-103589557D01*
X161831047Y-103641938D01*
X161935809Y-103694319D01*
X162354857Y-103694319D01*
X162354857Y-102594319D01*
X161988190Y-102594319D01*
X161883428Y-102646700D01*
X161831047Y-102699080D01*
X161778666Y-102803842D01*
X161778666Y-102908604D01*
X161831047Y-103013366D01*
X161883428Y-103065747D01*
X161988190Y-103118128D01*
X162354857Y-103118128D01*
X161412000Y-102594319D02*
X160783428Y-102594319D01*
X161097714Y-103694319D02*
X161097714Y-102594319D01*
X160469142Y-103641938D02*
X160312000Y-103694319D01*
X160050095Y-103694319D01*
X159945333Y-103641938D01*
X159892952Y-103589557D01*
X159840571Y-103484795D01*
X159840571Y-103380033D01*
X159892952Y-103275271D01*
X159945333Y-103222890D01*
X160050095Y-103170509D01*
X160259619Y-103118128D01*
X160364380Y-103065747D01*
X160416761Y-103013366D01*
X160469142Y-102908604D01*
X160469142Y-102803842D01*
X160416761Y-102699080D01*
X160364380Y-102646700D01*
X160259619Y-102594319D01*
X159997714Y-102594319D01*
X159840571Y-102646700D01*
X158740571Y-103589557D02*
X158792952Y-103641938D01*
X158950095Y-103694319D01*
X159054857Y-103694319D01*
X159212000Y-103641938D01*
X159316761Y-103537176D01*
X159369142Y-103432414D01*
X159421523Y-103222890D01*
X159421523Y-103065747D01*
X159369142Y-102856223D01*
X159316761Y-102751461D01*
X159212000Y-102646700D01*
X159054857Y-102594319D01*
X158950095Y-102594319D01*
X158792952Y-102646700D01*
X158740571Y-102699080D01*
X157692952Y-103694319D02*
X158321523Y-103694319D01*
X158007238Y-103694319D02*
X158007238Y-102594319D01*
X158112000Y-102751461D01*
X158216761Y-102856223D01*
X158321523Y-102908604D01*
X157012000Y-102594319D02*
X156907238Y-102594319D01*
X156802476Y-102646700D01*
X156750095Y-102699080D01*
X156697714Y-102803842D01*
X156645333Y-103013366D01*
X156645333Y-103275271D01*
X156697714Y-103484795D01*
X156750095Y-103589557D01*
X156802476Y-103641938D01*
X156907238Y-103694319D01*
X157012000Y-103694319D01*
X157116761Y-103641938D01*
X157169142Y-103589557D01*
X157221523Y-103484795D01*
X157273904Y-103275271D01*
X157273904Y-103013366D01*
X157221523Y-102803842D01*
X157169142Y-102699080D01*
X157116761Y-102646700D01*
X157012000Y-102594319D01*
X155388190Y-102541938D02*
X156331047Y-103956223D01*
X155126285Y-102594319D02*
X154864380Y-103694319D01*
X154654857Y-102908604D01*
X154445333Y-103694319D01*
X154183428Y-102594319D01*
X153292952Y-103694319D02*
X153292952Y-103118128D01*
X153345333Y-103013366D01*
X153450095Y-102960985D01*
X153659619Y-102960985D01*
X153764380Y-103013366D01*
X153292952Y-103641938D02*
X153397714Y-103694319D01*
X153659619Y-103694319D01*
X153764380Y-103641938D01*
X153816761Y-103537176D01*
X153816761Y-103432414D01*
X153764380Y-103327652D01*
X153659619Y-103275271D01*
X153397714Y-103275271D01*
X153292952Y-103222890D01*
X152769142Y-103694319D02*
X152769142Y-102960985D01*
X152769142Y-103170509D02*
X152716761Y-103065747D01*
X152664380Y-103013366D01*
X152559619Y-102960985D01*
X152454857Y-102960985D01*
X152088190Y-102960985D02*
X152088190Y-104060985D01*
X152088190Y-103013366D02*
X151983428Y-102960985D01*
X151773904Y-102960985D01*
X151669142Y-103013366D01*
X151616761Y-103065747D01*
X151564380Y-103170509D01*
X151564380Y-103484795D01*
X151616761Y-103589557D01*
X151669142Y-103641938D01*
X151773904Y-103694319D01*
X151983428Y-103694319D01*
X152088190Y-103641938D01*
X151092952Y-103118128D02*
X150726285Y-103118128D01*
X150569142Y-103694319D02*
X151092952Y-103694319D01*
X151092952Y-102594319D01*
X150569142Y-102594319D01*
X150150095Y-103641938D02*
X149992952Y-103694319D01*
X149731047Y-103694319D01*
X149626285Y-103641938D01*
X149573904Y-103589557D01*
X149521523Y-103484795D01*
X149521523Y-103380033D01*
X149573904Y-103275271D01*
X149626285Y-103222890D01*
X149731047Y-103170509D01*
X149940571Y-103118128D01*
X150045333Y-103065747D01*
X150097714Y-103013366D01*
X150150095Y-102908604D01*
X150150095Y-102803842D01*
X150097714Y-102699080D01*
X150045333Y-102646700D01*
X149940571Y-102594319D01*
X149678666Y-102594319D01*
X149521523Y-102646700D01*
X148421523Y-103589557D02*
X148473904Y-103641938D01*
X148631047Y-103694319D01*
X148735809Y-103694319D01*
X148892952Y-103641938D01*
X148997714Y-103537176D01*
X149050095Y-103432414D01*
X149102476Y-103222890D01*
X149102476Y-103065747D01*
X149050095Y-102856223D01*
X148997714Y-102751461D01*
X148892952Y-102646700D01*
X148735809Y-102594319D01*
X148631047Y-102594319D01*
X148473904Y-102646700D01*
X148421523Y-102699080D01*
D11*
X163398104Y-94089600D02*
X163493342Y-94041980D01*
X163636200Y-94041980D01*
X163779057Y-94089600D01*
X163874295Y-94184838D01*
X163921914Y-94280076D01*
X163969533Y-94470552D01*
X163969533Y-94613409D01*
X163921914Y-94803885D01*
X163874295Y-94899123D01*
X163779057Y-94994361D01*
X163636200Y-95041980D01*
X163540961Y-95041980D01*
X163398104Y-94994361D01*
X163350485Y-94946742D01*
X163350485Y-94613409D01*
X163540961Y-94613409D01*
X162921914Y-95041980D02*
X162921914Y-94041980D01*
X162350485Y-95041980D01*
X162350485Y-94041980D01*
X161874295Y-95041980D02*
X161874295Y-94041980D01*
X161636200Y-94041980D01*
X161493342Y-94089600D01*
X161398104Y-94184838D01*
X161350485Y-94280076D01*
X161302866Y-94470552D01*
X161302866Y-94613409D01*
X161350485Y-94803885D01*
X161398104Y-94899123D01*
X161493342Y-94994361D01*
X161636200Y-95041980D01*
X161874295Y-95041980D01*
X162726285Y-96286580D02*
X162726285Y-95286580D01*
X162297714Y-95381819D02*
X162250095Y-95334200D01*
X162154857Y-95286580D01*
X161916761Y-95286580D01*
X161821523Y-95334200D01*
X161773904Y-95381819D01*
X161726285Y-95477057D01*
X161726285Y-95572295D01*
X161773904Y-95715152D01*
X162345333Y-96286580D01*
X161726285Y-96286580D01*
X160726285Y-96191342D02*
X160773904Y-96238961D01*
X160916761Y-96286580D01*
X161012000Y-96286580D01*
X161154857Y-96238961D01*
X161250095Y-96143723D01*
X161297714Y-96048485D01*
X161345333Y-95858009D01*
X161345333Y-95715152D01*
X161297714Y-95524676D01*
X161250095Y-95429438D01*
X161154857Y-95334200D01*
X161012000Y-95286580D01*
X160916761Y-95286580D01*
X160773904Y-95334200D01*
X160726285Y-95381819D01*
X159773904Y-96286580D02*
X160345333Y-96286580D01*
X160059619Y-96286580D02*
X160059619Y-95286580D01*
X160154857Y-95429438D01*
X160250095Y-95524676D01*
X160345333Y-95572295D01*
X159583428Y-96381819D02*
X158821523Y-96381819D01*
X158631047Y-96238961D02*
X158488190Y-96286580D01*
X158250095Y-96286580D01*
X158154857Y-96238961D01*
X158107238Y-96191342D01*
X158059619Y-96096104D01*
X158059619Y-96000866D01*
X158107238Y-95905628D01*
X158154857Y-95858009D01*
X158250095Y-95810390D01*
X158440571Y-95762771D01*
X158535809Y-95715152D01*
X158583428Y-95667533D01*
X158631047Y-95572295D01*
X158631047Y-95477057D01*
X158583428Y-95381819D01*
X158535809Y-95334200D01*
X158440571Y-95286580D01*
X158202476Y-95286580D01*
X158059619Y-95334200D01*
X157059619Y-96191342D02*
X157107238Y-96238961D01*
X157250095Y-96286580D01*
X157345333Y-96286580D01*
X157488190Y-96238961D01*
X157583428Y-96143723D01*
X157631047Y-96048485D01*
X157678666Y-95858009D01*
X157678666Y-95715152D01*
X157631047Y-95524676D01*
X157583428Y-95429438D01*
X157488190Y-95334200D01*
X157345333Y-95286580D01*
X157250095Y-95286580D01*
X157107238Y-95334200D01*
X157059619Y-95381819D01*
X156154857Y-96286580D02*
X156631047Y-96286580D01*
X156631047Y-95286580D01*
X161505495Y-97658180D02*
X161505495Y-96658180D01*
X161076923Y-96753419D02*
X161029304Y-96705800D01*
X160934066Y-96658180D01*
X160695971Y-96658180D01*
X160600733Y-96705800D01*
X160553114Y-96753419D01*
X160505495Y-96848657D01*
X160505495Y-96943895D01*
X160553114Y-97086752D01*
X161124542Y-97658180D01*
X160505495Y-97658180D01*
X159505495Y-97562942D02*
X159553114Y-97610561D01*
X159695971Y-97658180D01*
X159791209Y-97658180D01*
X159934066Y-97610561D01*
X160029304Y-97515323D01*
X160076923Y-97420085D01*
X160124542Y-97229609D01*
X160124542Y-97086752D01*
X160076923Y-96896276D01*
X160029304Y-96801038D01*
X159934066Y-96705800D01*
X159791209Y-96658180D01*
X159695971Y-96658180D01*
X159553114Y-96705800D01*
X159505495Y-96753419D01*
X158553114Y-97658180D02*
X159124542Y-97658180D01*
X158838828Y-97658180D02*
X158838828Y-96658180D01*
X158934066Y-96801038D01*
X159029304Y-96896276D01*
X159124542Y-96943895D01*
X158362638Y-97753419D02*
X157600733Y-97753419D01*
X157410257Y-97610561D02*
X157267400Y-97658180D01*
X157029304Y-97658180D01*
X156934066Y-97610561D01*
X156886447Y-97562942D01*
X156838828Y-97467704D01*
X156838828Y-97372466D01*
X156886447Y-97277228D01*
X156934066Y-97229609D01*
X157029304Y-97181990D01*
X157219780Y-97134371D01*
X157315019Y-97086752D01*
X157362638Y-97039133D01*
X157410257Y-96943895D01*
X157410257Y-96848657D01*
X157362638Y-96753419D01*
X157315019Y-96705800D01*
X157219780Y-96658180D01*
X156981685Y-96658180D01*
X156838828Y-96705800D01*
X156410257Y-97658180D02*
X156410257Y-96658180D01*
X156172161Y-96658180D01*
X156029304Y-96705800D01*
X155934066Y-96801038D01*
X155886447Y-96896276D01*
X155838828Y-97086752D01*
X155838828Y-97229609D01*
X155886447Y-97420085D01*
X155934066Y-97515323D01*
X156029304Y-97610561D01*
X156172161Y-97658180D01*
X156410257Y-97658180D01*
X155457876Y-97372466D02*
X154981685Y-97372466D01*
X155553114Y-97658180D02*
X155219780Y-96658180D01*
X154886447Y-97658180D01*
X159600876Y-98105980D02*
X160077066Y-98105980D01*
X160124685Y-98582171D01*
X160077066Y-98534552D01*
X159981828Y-98486933D01*
X159743733Y-98486933D01*
X159648495Y-98534552D01*
X159600876Y-98582171D01*
X159553257Y-98677409D01*
X159553257Y-98915504D01*
X159600876Y-99010742D01*
X159648495Y-99058361D01*
X159743733Y-99105980D01*
X159981828Y-99105980D01*
X160077066Y-99058361D01*
X160124685Y-99010742D01*
X159267542Y-98105980D02*
X158934209Y-99105980D01*
X158600876Y-98105980D01*
X178169512Y-95226061D02*
X178506229Y-95562779D01*
X178203183Y-95933168D01*
X178203183Y-95865825D01*
X178169512Y-95764809D01*
X178001153Y-95596451D01*
X177900138Y-95562779D01*
X177832794Y-95562779D01*
X177731779Y-95596451D01*
X177563420Y-95764809D01*
X177529748Y-95865825D01*
X177529748Y-95933168D01*
X177563420Y-96034183D01*
X177731779Y-96202542D01*
X177832794Y-96236214D01*
X177900138Y-96236214D01*
X177933809Y-94990359D02*
X176991000Y-95461764D01*
X177462405Y-94518955D01*
X177691090Y-96627240D02*
X177253357Y-96189507D01*
X177219686Y-96694583D01*
X177118670Y-96593568D01*
X177017655Y-96559896D01*
X176950312Y-96559896D01*
X176849296Y-96593568D01*
X176680938Y-96761927D01*
X176647266Y-96862942D01*
X176647266Y-96930286D01*
X176680938Y-97031301D01*
X176882968Y-97233331D01*
X176983983Y-97267003D01*
X177051327Y-97267003D01*
X177051327Y-95987477D02*
X176108518Y-96458881D01*
X176579922Y-95516072D01*
X176411564Y-95347713D02*
X175973831Y-94909981D01*
X175940159Y-95415057D01*
X175839144Y-95314042D01*
X175738129Y-95280370D01*
X175670785Y-95280370D01*
X175569770Y-95314042D01*
X175401411Y-95482400D01*
X175367739Y-95583416D01*
X175367739Y-95650759D01*
X175401411Y-95751774D01*
X175603442Y-95953805D01*
X175704457Y-95987477D01*
X175771800Y-95987477D01*
X166780552Y-110317019D02*
X166732933Y-110269400D01*
X166637695Y-110221780D01*
X166399600Y-110221780D01*
X166304361Y-110269400D01*
X166256742Y-110317019D01*
X166209123Y-110412257D01*
X166209123Y-110507495D01*
X166256742Y-110650352D01*
X166828171Y-111221780D01*
X166209123Y-111221780D01*
X165209123Y-111126542D02*
X165256742Y-111174161D01*
X165399600Y-111221780D01*
X165494838Y-111221780D01*
X165637695Y-111174161D01*
X165732933Y-111078923D01*
X165780552Y-110983685D01*
X165828171Y-110793209D01*
X165828171Y-110650352D01*
X165780552Y-110459876D01*
X165732933Y-110364638D01*
X165637695Y-110269400D01*
X165494838Y-110221780D01*
X165399600Y-110221780D01*
X165256742Y-110269400D01*
X165209123Y-110317019D01*
X164780552Y-111221780D02*
X164780552Y-110221780D01*
X164780552Y-110697971D02*
X164209123Y-110697971D01*
X164209123Y-111221780D02*
X164209123Y-110221780D01*
X162494838Y-110221780D02*
X162971028Y-110221780D01*
X163018647Y-110697971D01*
X162971028Y-110650352D01*
X162875790Y-110602733D01*
X162637695Y-110602733D01*
X162542457Y-110650352D01*
X162494838Y-110697971D01*
X162447219Y-110793209D01*
X162447219Y-111031304D01*
X162494838Y-111126542D01*
X162542457Y-111174161D01*
X162637695Y-111221780D01*
X162875790Y-111221780D01*
X162971028Y-111174161D01*
X163018647Y-111126542D01*
X161828171Y-110221780D02*
X161732933Y-110221780D01*
X161637695Y-110269400D01*
X161590076Y-110317019D01*
X161542457Y-110412257D01*
X161494838Y-110602733D01*
X161494838Y-110840828D01*
X161542457Y-111031304D01*
X161590076Y-111126542D01*
X161637695Y-111174161D01*
X161732933Y-111221780D01*
X161828171Y-111221780D01*
X161923409Y-111174161D01*
X161971028Y-111126542D01*
X162018647Y-111031304D01*
X162066266Y-110840828D01*
X162066266Y-110602733D01*
X162018647Y-110412257D01*
X161971028Y-110317019D01*
X161923409Y-110269400D01*
X161828171Y-110221780D01*
X161113885Y-110936066D02*
X160637695Y-110936066D01*
X161209123Y-111221780D02*
X160875790Y-110221780D01*
X160542457Y-111221780D01*
X159447219Y-110697971D02*
X159113885Y-110697971D01*
X158971028Y-111221780D02*
X159447219Y-111221780D01*
X159447219Y-110221780D01*
X158971028Y-110221780D01*
X158590076Y-111174161D02*
X158447219Y-111221780D01*
X158209123Y-111221780D01*
X158113885Y-111174161D01*
X158066266Y-111126542D01*
X158018647Y-111031304D01*
X158018647Y-110936066D01*
X158066266Y-110840828D01*
X158113885Y-110793209D01*
X158209123Y-110745590D01*
X158399600Y-110697971D01*
X158494838Y-110650352D01*
X158542457Y-110602733D01*
X158590076Y-110507495D01*
X158590076Y-110412257D01*
X158542457Y-110317019D01*
X158494838Y-110269400D01*
X158399600Y-110221780D01*
X158161504Y-110221780D01*
X158018647Y-110269400D01*
X157018647Y-111126542D02*
X157066266Y-111174161D01*
X157209123Y-111221780D01*
X157304361Y-111221780D01*
X157447219Y-111174161D01*
X157542457Y-111078923D01*
X157590076Y-110983685D01*
X157637695Y-110793209D01*
X157637695Y-110650352D01*
X157590076Y-110459876D01*
X157542457Y-110364638D01*
X157447219Y-110269400D01*
X157304361Y-110221780D01*
X157209123Y-110221780D01*
X157066266Y-110269400D01*
X157018647Y-110317019D01*
D12*
X153682700Y-106070400D02*
X175552100Y-106070400D01*
X175552100Y-106070400D02*
X175552100Y-111937800D01*
X175552100Y-111937800D02*
X153682700Y-111937800D01*
X153682700Y-111937800D02*
X153682700Y-106070400D01*
D11*
X176497583Y-98457002D02*
X176362896Y-98389659D01*
X176194537Y-98221300D01*
X176160865Y-98120285D01*
X176160865Y-98052941D01*
X176194537Y-97951926D01*
X176261880Y-97884583D01*
X176362896Y-97850911D01*
X176430239Y-97850911D01*
X176531254Y-97884583D01*
X176699613Y-97985598D01*
X176800628Y-98019270D01*
X176867972Y-98019270D01*
X176968987Y-97985598D01*
X177036331Y-97918254D01*
X177070002Y-97817239D01*
X177070002Y-97749896D01*
X177036331Y-97648880D01*
X176867972Y-97480522D01*
X176733285Y-97413178D01*
X176531254Y-97143804D02*
X175655789Y-97682552D01*
X176026178Y-97042789D01*
X175386415Y-97413178D01*
X175925163Y-96537712D01*
X174948682Y-96975445D02*
X175655789Y-96268338D01*
X175487430Y-96099980D01*
X175352743Y-96032636D01*
X175218056Y-96032636D01*
X175117041Y-96066308D01*
X174948682Y-96167323D01*
X174847667Y-96268338D01*
X174746651Y-96436697D01*
X174712980Y-96537712D01*
X174712980Y-96672400D01*
X174780323Y-96807087D01*
X174948682Y-96975445D01*
X174241575Y-96268338D02*
X174948682Y-95561232D01*
X174477277Y-95089827D02*
X174342590Y-94955140D01*
X174241575Y-94921468D01*
X174106888Y-94921468D01*
X173938529Y-95022484D01*
X173702827Y-95258186D01*
X173601812Y-95426545D01*
X173601812Y-95561232D01*
X173635484Y-95662247D01*
X173770171Y-95796934D01*
X173871186Y-95830606D01*
X174005873Y-95830606D01*
X174174232Y-95729590D01*
X174409934Y-95493888D01*
X174510949Y-95325529D01*
X174510949Y-95190842D01*
X174477277Y-95089827D01*
X174566598Y-98456418D02*
X174431911Y-98389074D01*
X174263552Y-98220715D01*
X174229880Y-98119700D01*
X174229880Y-98052357D01*
X174263552Y-97951341D01*
X174330896Y-97883998D01*
X174431911Y-97850326D01*
X174499254Y-97850326D01*
X174600270Y-97883998D01*
X174768628Y-97985013D01*
X174869644Y-98018685D01*
X174936987Y-98018685D01*
X175038002Y-97985013D01*
X175105346Y-97917670D01*
X175139018Y-97816654D01*
X175139018Y-97749311D01*
X175105346Y-97648296D01*
X174936987Y-97479937D01*
X174802300Y-97412593D01*
X174600270Y-97143219D02*
X173724804Y-97681967D01*
X174095193Y-97042204D01*
X173455430Y-97412593D01*
X173994178Y-96537128D01*
X172680980Y-96503456D02*
X172680980Y-96570800D01*
X172748323Y-96705487D01*
X172815667Y-96772830D01*
X172950354Y-96840174D01*
X173085041Y-96840174D01*
X173186056Y-96806502D01*
X173354415Y-96705487D01*
X173455430Y-96604471D01*
X173556445Y-96436112D01*
X173590117Y-96335097D01*
X173590117Y-96200410D01*
X173522774Y-96065723D01*
X173455430Y-95998380D01*
X173320743Y-95931036D01*
X173253400Y-95931036D01*
X171973873Y-95931036D02*
X172310590Y-96267754D01*
X173017697Y-95560647D01*
X171738171Y-95695334D02*
X172445277Y-94988227D01*
X171334110Y-95291273D02*
X172041216Y-95190258D01*
X172041216Y-94584166D02*
X172041216Y-95392288D01*
X169421301Y-95460594D02*
X169522316Y-95494266D01*
X169623331Y-95595281D01*
X169690675Y-95729968D01*
X169690675Y-95864655D01*
X169657003Y-95965670D01*
X169555988Y-96134029D01*
X169454973Y-96235044D01*
X169286614Y-96336060D01*
X169185599Y-96369731D01*
X169050912Y-96369731D01*
X168916225Y-96302388D01*
X168848881Y-96235044D01*
X168781538Y-96100357D01*
X168781538Y-96033014D01*
X169017240Y-95797312D01*
X169151927Y-95931999D01*
X168411148Y-95797312D02*
X169118255Y-95090205D01*
X168007087Y-95393251D01*
X168714194Y-94686144D01*
X167670370Y-95056533D02*
X168377477Y-94349426D01*
X168209118Y-94181068D01*
X168074431Y-94113724D01*
X167939744Y-94113724D01*
X167838729Y-94147396D01*
X167670370Y-94248411D01*
X167569355Y-94349426D01*
X167468339Y-94517785D01*
X167434668Y-94618800D01*
X167434668Y-94753487D01*
X167502011Y-94888174D01*
X167670370Y-95056533D01*
X184470514Y-106557771D02*
X184327657Y-106605390D01*
X184280038Y-106653009D01*
X184232419Y-106748247D01*
X184232419Y-106891104D01*
X184280038Y-106986342D01*
X184327657Y-107033961D01*
X184422895Y-107081580D01*
X184803847Y-107081580D01*
X184803847Y-106081580D01*
X184470514Y-106081580D01*
X184375276Y-106129200D01*
X184327657Y-106176819D01*
X184280038Y-106272057D01*
X184280038Y-106367295D01*
X184327657Y-106462533D01*
X184375276Y-106510152D01*
X184470514Y-106557771D01*
X184803847Y-106557771D01*
X183946704Y-106081580D02*
X183375276Y-106081580D01*
X183660990Y-107081580D02*
X183660990Y-106081580D01*
X183089561Y-107033961D02*
X182946704Y-107081580D01*
X182708609Y-107081580D01*
X182613371Y-107033961D01*
X182565752Y-106986342D01*
X182518133Y-106891104D01*
X182518133Y-106795866D01*
X182565752Y-106700628D01*
X182613371Y-106653009D01*
X182708609Y-106605390D01*
X182899085Y-106557771D01*
X182994323Y-106510152D01*
X183041942Y-106462533D01*
X183089561Y-106367295D01*
X183089561Y-106272057D01*
X183041942Y-106176819D01*
X182994323Y-106129200D01*
X182899085Y-106081580D01*
X182660990Y-106081580D01*
X182518133Y-106129200D01*
X181518133Y-106986342D02*
X181565752Y-107033961D01*
X181708609Y-107081580D01*
X181803847Y-107081580D01*
X181946704Y-107033961D01*
X182041942Y-106938723D01*
X182089561Y-106843485D01*
X182137180Y-106653009D01*
X182137180Y-106510152D01*
X182089561Y-106319676D01*
X182041942Y-106224438D01*
X181946704Y-106129200D01*
X181803847Y-106081580D01*
X181708609Y-106081580D01*
X181565752Y-106129200D01*
X181518133Y-106176819D01*
X186144990Y-105506780D02*
X186621180Y-105506780D01*
X186621180Y-104506780D01*
X185383085Y-104840114D02*
X185383085Y-105506780D01*
X185811657Y-104840114D02*
X185811657Y-105363923D01*
X185764038Y-105459161D01*
X185668800Y-105506780D01*
X185525942Y-105506780D01*
X185430704Y-105459161D01*
X185383085Y-105411542D01*
X184906895Y-105506780D02*
X184906895Y-104506780D01*
X184811657Y-105125828D02*
X184525942Y-105506780D01*
X184525942Y-104840114D02*
X184906895Y-105221066D01*
X183716419Y-105459161D02*
X183811657Y-105506780D01*
X184002133Y-105506780D01*
X184097371Y-105459161D01*
X184144990Y-105363923D01*
X184144990Y-104982971D01*
X184097371Y-104887733D01*
X184002133Y-104840114D01*
X183811657Y-104840114D01*
X183716419Y-104887733D01*
X183668800Y-104982971D01*
X183668800Y-105078209D01*
X184144990Y-105173447D01*
X182525942Y-105459161D02*
X182383085Y-105506780D01*
X182144990Y-105506780D01*
X182049752Y-105459161D01*
X182002133Y-105411542D01*
X181954514Y-105316304D01*
X181954514Y-105221066D01*
X182002133Y-105125828D01*
X182049752Y-105078209D01*
X182144990Y-105030590D01*
X182335466Y-104982971D01*
X182430704Y-104935352D01*
X182478323Y-104887733D01*
X182525942Y-104792495D01*
X182525942Y-104697257D01*
X182478323Y-104602019D01*
X182430704Y-104554400D01*
X182335466Y-104506780D01*
X182097371Y-104506780D01*
X181954514Y-104554400D01*
X181525942Y-105506780D02*
X181525942Y-104506780D01*
X181097371Y-105506780D02*
X181097371Y-104982971D01*
X181144990Y-104887733D01*
X181240228Y-104840114D01*
X181383085Y-104840114D01*
X181478323Y-104887733D01*
X181525942Y-104935352D01*
X180192609Y-105506780D02*
X180192609Y-104982971D01*
X180240228Y-104887733D01*
X180335466Y-104840114D01*
X180525942Y-104840114D01*
X180621180Y-104887733D01*
X180192609Y-105459161D02*
X180287847Y-105506780D01*
X180525942Y-105506780D01*
X180621180Y-105459161D01*
X180668800Y-105363923D01*
X180668800Y-105268685D01*
X180621180Y-105173447D01*
X180525942Y-105125828D01*
X180287847Y-105125828D01*
X180192609Y-105078209D01*
X179716419Y-105506780D02*
X179716419Y-104840114D01*
X179716419Y-104506780D02*
X179764038Y-104554400D01*
X179716419Y-104602019D01*
X179668800Y-104554400D01*
X179716419Y-104506780D01*
X179716419Y-104602019D01*
X179097371Y-105506780D02*
X179192609Y-105459161D01*
X179240228Y-105363923D01*
X179240228Y-104506780D01*
X178335466Y-105459161D02*
X178430704Y-105506780D01*
X178621180Y-105506780D01*
X178716419Y-105459161D01*
X178764038Y-105363923D01*
X178764038Y-104982971D01*
X178716419Y-104887733D01*
X178621180Y-104840114D01*
X178430704Y-104840114D01*
X178335466Y-104887733D01*
X178287847Y-104982971D01*
X178287847Y-105078209D01*
X178764038Y-105173447D01*
X177859276Y-105506780D02*
X177859276Y-104840114D01*
X177859276Y-105030590D02*
X177811657Y-104935352D01*
X177764038Y-104887733D01*
X177668800Y-104840114D01*
X177573561Y-104840114D01*
D12*
X171325085Y-106930961D02*
X170848895Y-108930961D01*
X170467942Y-107502390D01*
X170086990Y-108930961D01*
X169610800Y-106930961D01*
X167991752Y-108930961D02*
X167991752Y-107883342D01*
X168086990Y-107692866D01*
X168277466Y-107597628D01*
X168658419Y-107597628D01*
X168848895Y-107692866D01*
X167991752Y-108835723D02*
X168182228Y-108930961D01*
X168658419Y-108930961D01*
X168848895Y-108835723D01*
X168944133Y-108645247D01*
X168944133Y-108454771D01*
X168848895Y-108264295D01*
X168658419Y-108169057D01*
X168182228Y-108169057D01*
X167991752Y-108073819D01*
X167039371Y-108930961D02*
X167039371Y-107597628D01*
X167039371Y-107978580D02*
X166944133Y-107788104D01*
X166848895Y-107692866D01*
X166658419Y-107597628D01*
X166467942Y-107597628D01*
X165801276Y-107597628D02*
X165801276Y-109597628D01*
X165801276Y-107692866D02*
X165610800Y-107597628D01*
X165229847Y-107597628D01*
X165039371Y-107692866D01*
X164944133Y-107788104D01*
X164848895Y-107978580D01*
X164848895Y-108550009D01*
X164944133Y-108740485D01*
X165039371Y-108835723D01*
X165229847Y-108930961D01*
X165610800Y-108930961D01*
X165801276Y-108835723D01*
X163991752Y-107883342D02*
X163325085Y-107883342D01*
X163039371Y-108930961D02*
X163991752Y-108930961D01*
X163991752Y-106930961D01*
X163039371Y-106930961D01*
X162277466Y-108835723D02*
X161991752Y-108930961D01*
X161515561Y-108930961D01*
X161325085Y-108835723D01*
X161229847Y-108740485D01*
X161134609Y-108550009D01*
X161134609Y-108359533D01*
X161229847Y-108169057D01*
X161325085Y-108073819D01*
X161515561Y-107978580D01*
X161896514Y-107883342D01*
X162086990Y-107788104D01*
X162182228Y-107692866D01*
X162277466Y-107502390D01*
X162277466Y-107311914D01*
X162182228Y-107121438D01*
X162086990Y-107026200D01*
X161896514Y-106930961D01*
X161420323Y-106930961D01*
X161134609Y-107026200D01*
X159134609Y-108740485D02*
X159229847Y-108835723D01*
X159515561Y-108930961D01*
X159706038Y-108930961D01*
X159991752Y-108835723D01*
X160182228Y-108645247D01*
X160277466Y-108454771D01*
X160372704Y-108073819D01*
X160372704Y-107788104D01*
X160277466Y-107407152D01*
X160182228Y-107216676D01*
X159991752Y-107026200D01*
X159706038Y-106930961D01*
X159515561Y-106930961D01*
X159229847Y-107026200D01*
X159134609Y-107121438D01*
X157039371Y-106930961D02*
X156372704Y-108930961D01*
X155706038Y-106930961D01*
X153991752Y-108930961D02*
X155134609Y-108930961D01*
X154563180Y-108930961D02*
X154563180Y-106930961D01*
X154753657Y-107216676D01*
X154944133Y-107407152D01*
X155134609Y-107502390D01*
D11*
X170153695Y-115311228D02*
X169391790Y-115311228D01*
X169772742Y-115692180D02*
X169772742Y-114930276D01*
X169058457Y-114692180D02*
X168725123Y-115692180D01*
X168391790Y-114692180D01*
X167487028Y-115596942D02*
X167534647Y-115644561D01*
X167677504Y-115692180D01*
X167772742Y-115692180D01*
X167915600Y-115644561D01*
X168010838Y-115549323D01*
X168058457Y-115454085D01*
X168106076Y-115263609D01*
X168106076Y-115120752D01*
X168058457Y-114930276D01*
X168010838Y-114835038D01*
X167915600Y-114739800D01*
X167772742Y-114692180D01*
X167677504Y-114692180D01*
X167534647Y-114739800D01*
X167487028Y-114787419D01*
X166487028Y-115596942D02*
X166534647Y-115644561D01*
X166677504Y-115692180D01*
X166772742Y-115692180D01*
X166915600Y-115644561D01*
X167010838Y-115549323D01*
X167058457Y-115454085D01*
X167106076Y-115263609D01*
X167106076Y-115120752D01*
X167058457Y-114930276D01*
X167010838Y-114835038D01*
X166915600Y-114739800D01*
X166772742Y-114692180D01*
X166677504Y-114692180D01*
X166534647Y-114739800D01*
X166487028Y-114787419D01*
X165010838Y-116073133D02*
X165058457Y-116025514D01*
X165153695Y-115882657D01*
X165201314Y-115787419D01*
X165248933Y-115644561D01*
X165296552Y-115406466D01*
X165296552Y-115215990D01*
X165248933Y-114977895D01*
X165201314Y-114835038D01*
X165153695Y-114739800D01*
X165058457Y-114596942D01*
X165010838Y-114549323D01*
X164106076Y-115692180D02*
X164677504Y-115692180D01*
X164391790Y-115692180D02*
X164391790Y-114692180D01*
X164487028Y-114835038D01*
X164582266Y-114930276D01*
X164677504Y-114977895D01*
X163248933Y-114692180D02*
X163439409Y-114692180D01*
X163534647Y-114739800D01*
X163582266Y-114787419D01*
X163677504Y-114930276D01*
X163725123Y-115120752D01*
X163725123Y-115501704D01*
X163677504Y-115596942D01*
X163629885Y-115644561D01*
X163534647Y-115692180D01*
X163344171Y-115692180D01*
X163248933Y-115644561D01*
X163201314Y-115596942D01*
X163153695Y-115501704D01*
X163153695Y-115263609D01*
X163201314Y-115168371D01*
X163248933Y-115120752D01*
X163344171Y-115073133D01*
X163534647Y-115073133D01*
X163629885Y-115120752D01*
X163677504Y-115168371D01*
X163725123Y-115263609D01*
X162725123Y-115596942D02*
X162677504Y-115644561D01*
X162725123Y-115692180D01*
X162772742Y-115644561D01*
X162725123Y-115596942D01*
X162725123Y-115692180D01*
X162106076Y-115120752D02*
X162201314Y-115073133D01*
X162248933Y-115025514D01*
X162296552Y-114930276D01*
X162296552Y-114882657D01*
X162248933Y-114787419D01*
X162201314Y-114739800D01*
X162106076Y-114692180D01*
X161915600Y-114692180D01*
X161820361Y-114739800D01*
X161772742Y-114787419D01*
X161725123Y-114882657D01*
X161725123Y-114930276D01*
X161772742Y-115025514D01*
X161820361Y-115073133D01*
X161915600Y-115120752D01*
X162106076Y-115120752D01*
X162201314Y-115168371D01*
X162248933Y-115215990D01*
X162296552Y-115311228D01*
X162296552Y-115501704D01*
X162248933Y-115596942D01*
X162201314Y-115644561D01*
X162106076Y-115692180D01*
X161915600Y-115692180D01*
X161820361Y-115644561D01*
X161772742Y-115596942D01*
X161725123Y-115501704D01*
X161725123Y-115311228D01*
X161772742Y-115215990D01*
X161820361Y-115168371D01*
X161915600Y-115120752D01*
X161439409Y-114692180D02*
X161106076Y-115692180D01*
X160772742Y-114692180D01*
X159677504Y-115311228D02*
X158915600Y-115311228D01*
X157248933Y-114692180D02*
X157439409Y-114692180D01*
X157534647Y-114739800D01*
X157582266Y-114787419D01*
X157677504Y-114930276D01*
X157725123Y-115120752D01*
X157725123Y-115501704D01*
X157677504Y-115596942D01*
X157629885Y-115644561D01*
X157534647Y-115692180D01*
X157344171Y-115692180D01*
X157248933Y-115644561D01*
X157201314Y-115596942D01*
X157153695Y-115501704D01*
X157153695Y-115263609D01*
X157201314Y-115168371D01*
X157248933Y-115120752D01*
X157344171Y-115073133D01*
X157534647Y-115073133D01*
X157629885Y-115120752D01*
X157677504Y-115168371D01*
X157725123Y-115263609D01*
X156867980Y-114692180D02*
X156534647Y-115692180D01*
X156201314Y-114692180D01*
X155963219Y-116073133D02*
X155915600Y-116025514D01*
X155820361Y-115882657D01*
X155772742Y-115787419D01*
X155725123Y-115644561D01*
X155677504Y-115406466D01*
X155677504Y-115215990D01*
X155725123Y-114977895D01*
X155772742Y-114835038D01*
X155820361Y-114739800D01*
X155915600Y-114596942D01*
X155963219Y-114549323D01*
D12*
X140109533Y-99266285D02*
X140204771Y-99361523D01*
X140490485Y-99456761D01*
X140680961Y-99456761D01*
X140966676Y-99361523D01*
X141157152Y-99171047D01*
X141252390Y-98980571D01*
X141347628Y-98599619D01*
X141347628Y-98313904D01*
X141252390Y-97932952D01*
X141157152Y-97742476D01*
X140966676Y-97552000D01*
X140680961Y-97456761D01*
X140490485Y-97456761D01*
X140204771Y-97552000D01*
X140109533Y-97647238D01*
X139347628Y-97647238D02*
X139252390Y-97552000D01*
X139061914Y-97456761D01*
X138585723Y-97456761D01*
X138395247Y-97552000D01*
X138300009Y-97647238D01*
X138204771Y-97837714D01*
X138204771Y-98028190D01*
X138300009Y-98313904D01*
X139442866Y-99456761D01*
X138204771Y-99456761D01*
X140585723Y-105241742D02*
X140300009Y-105336980D01*
X140204771Y-105432219D01*
X140109533Y-105622695D01*
X140109533Y-105908409D01*
X140204771Y-106098885D01*
X140300009Y-106194123D01*
X140490485Y-106289361D01*
X141252390Y-106289361D01*
X141252390Y-104289361D01*
X140585723Y-104289361D01*
X140395247Y-104384600D01*
X140300009Y-104479838D01*
X140204771Y-104670314D01*
X140204771Y-104860790D01*
X140300009Y-105051266D01*
X140395247Y-105146504D01*
X140585723Y-105241742D01*
X141252390Y-105241742D01*
X139347628Y-104479838D02*
X139252390Y-104384600D01*
X139061914Y-104289361D01*
X138585723Y-104289361D01*
X138395247Y-104384600D01*
X138300009Y-104479838D01*
X138204771Y-104670314D01*
X138204771Y-104860790D01*
X138300009Y-105146504D01*
X139442866Y-106289361D01*
X138204771Y-106289361D01*
X141204771Y-112245733D02*
X140252390Y-112245733D01*
X141395247Y-112817161D02*
X140728580Y-110817161D01*
X140061914Y-112817161D01*
X139490485Y-111007638D02*
X139395247Y-110912400D01*
X139204771Y-110817161D01*
X138728580Y-110817161D01*
X138538104Y-110912400D01*
X138442866Y-111007638D01*
X138347628Y-111198114D01*
X138347628Y-111388590D01*
X138442866Y-111674304D01*
X139585723Y-112817161D01*
X138347628Y-112817161D01*
X195735533Y-113210885D02*
X195830771Y-113306123D01*
X196116485Y-113401361D01*
X196306961Y-113401361D01*
X196592676Y-113306123D01*
X196783152Y-113115647D01*
X196878390Y-112925171D01*
X196973628Y-112544219D01*
X196973628Y-112258504D01*
X196878390Y-111877552D01*
X196783152Y-111687076D01*
X196592676Y-111496600D01*
X196306961Y-111401361D01*
X196116485Y-111401361D01*
X195830771Y-111496600D01*
X195735533Y-111591838D01*
X193830771Y-113401361D02*
X194973628Y-113401361D01*
X194402200Y-113401361D02*
X194402200Y-111401361D01*
X194592676Y-111687076D01*
X194783152Y-111877552D01*
X194973628Y-111972790D01*
X196211723Y-105343342D02*
X195926009Y-105438580D01*
X195830771Y-105533819D01*
X195735533Y-105724295D01*
X195735533Y-106010009D01*
X195830771Y-106200485D01*
X195926009Y-106295723D01*
X196116485Y-106390961D01*
X196878390Y-106390961D01*
X196878390Y-104390961D01*
X196211723Y-104390961D01*
X196021247Y-104486200D01*
X195926009Y-104581438D01*
X195830771Y-104771914D01*
X195830771Y-104962390D01*
X195926009Y-105152866D01*
X196021247Y-105248104D01*
X196211723Y-105343342D01*
X196878390Y-105343342D01*
X193830771Y-106390961D02*
X194973628Y-106390961D01*
X194402200Y-106390961D02*
X194402200Y-104390961D01*
X194592676Y-104676676D01*
X194783152Y-104867152D01*
X194973628Y-104962390D01*
X196830771Y-98834533D02*
X195878390Y-98834533D01*
X197021247Y-99405961D02*
X196354580Y-97405961D01*
X195687914Y-99405961D01*
X193973628Y-99405961D02*
X195116485Y-99405961D01*
X194545057Y-99405961D02*
X194545057Y-97405961D01*
X194735533Y-97691676D01*
X194926009Y-97882152D01*
X195116485Y-97977390D01*
D11*
X165841133Y-100741171D02*
X165698276Y-100788790D01*
X165650657Y-100836409D01*
X165603038Y-100931647D01*
X165603038Y-101074504D01*
X165650657Y-101169742D01*
X165698276Y-101217361D01*
X165793514Y-101264980D01*
X166174466Y-101264980D01*
X166174466Y-100264980D01*
X165841133Y-100264980D01*
X165745895Y-100312600D01*
X165698276Y-100360219D01*
X165650657Y-100455457D01*
X165650657Y-100550695D01*
X165698276Y-100645933D01*
X165745895Y-100693552D01*
X165841133Y-100741171D01*
X166174466Y-100741171D01*
X164983990Y-100264980D02*
X164793514Y-100264980D01*
X164698276Y-100312600D01*
X164603038Y-100407838D01*
X164555419Y-100598314D01*
X164555419Y-100931647D01*
X164603038Y-101122123D01*
X164698276Y-101217361D01*
X164793514Y-101264980D01*
X164983990Y-101264980D01*
X165079228Y-101217361D01*
X165174466Y-101122123D01*
X165222085Y-100931647D01*
X165222085Y-100598314D01*
X165174466Y-100407838D01*
X165079228Y-100312600D01*
X164983990Y-100264980D01*
X163936371Y-100264980D02*
X163745895Y-100264980D01*
X163650657Y-100312600D01*
X163555419Y-100407838D01*
X163507800Y-100598314D01*
X163507800Y-100931647D01*
X163555419Y-101122123D01*
X163650657Y-101217361D01*
X163745895Y-101264980D01*
X163936371Y-101264980D01*
X164031609Y-101217361D01*
X164126847Y-101122123D01*
X164174466Y-100931647D01*
X164174466Y-100598314D01*
X164126847Y-100407838D01*
X164031609Y-100312600D01*
X163936371Y-100264980D01*
X163222085Y-100264980D02*
X162650657Y-100264980D01*
X162936371Y-101264980D02*
X162936371Y-100264980D01*
X162126847Y-100264980D02*
X162031609Y-100264980D01*
X161936371Y-100312600D01*
X161888752Y-100360219D01*
X161841133Y-100455457D01*
X161793514Y-100645933D01*
X161793514Y-100884028D01*
X161841133Y-101074504D01*
X161888752Y-101169742D01*
X161936371Y-101217361D01*
X162031609Y-101264980D01*
X162126847Y-101264980D01*
X162222085Y-101217361D01*
X162269704Y-101169742D01*
X162317323Y-101074504D01*
X162364942Y-100884028D01*
X162364942Y-100645933D01*
X162317323Y-100455457D01*
X162269704Y-100360219D01*
X162222085Y-100312600D01*
X162126847Y-100264980D01*
X167971552Y-104719380D02*
X167971552Y-103719380D01*
X167590600Y-103719380D01*
X167495361Y-103767000D01*
X167447742Y-103814619D01*
X167400123Y-103909857D01*
X167400123Y-104052714D01*
X167447742Y-104147952D01*
X167495361Y-104195571D01*
X167590600Y-104243190D01*
X167971552Y-104243190D01*
X167066790Y-103719380D02*
X166828695Y-104719380D01*
X166638219Y-104005095D01*
X166447742Y-104719380D01*
X166209647Y-103719380D01*
X165828695Y-104719380D02*
X165828695Y-103719380D01*
X165495361Y-104433666D01*
X165162028Y-103719380D01*
X165162028Y-104719380D01*
X164781076Y-103719380D02*
X164162028Y-103719380D01*
X164495361Y-104100333D01*
X164352504Y-104100333D01*
X164257266Y-104147952D01*
X164209647Y-104195571D01*
X164162028Y-104290809D01*
X164162028Y-104528904D01*
X164209647Y-104624142D01*
X164257266Y-104671761D01*
X164352504Y-104719380D01*
X164638219Y-104719380D01*
X164733457Y-104671761D01*
X164781076Y-104624142D01*
X176582152Y-102331780D02*
X176582152Y-101331780D01*
X176201200Y-101331780D01*
X176105961Y-101379400D01*
X176058342Y-101427019D01*
X176010723Y-101522257D01*
X176010723Y-101665114D01*
X176058342Y-101760352D01*
X176105961Y-101807971D01*
X176201200Y-101855590D01*
X176582152Y-101855590D01*
X175677390Y-101331780D02*
X175439295Y-102331780D01*
X175248819Y-101617495D01*
X175058342Y-102331780D01*
X174820247Y-101331780D01*
X174439295Y-102331780D02*
X174439295Y-101331780D01*
X174105961Y-102046066D01*
X173772628Y-101331780D01*
X173772628Y-102331780D01*
X173344057Y-101427019D02*
X173296438Y-101379400D01*
X173201200Y-101331780D01*
X172963104Y-101331780D01*
X172867866Y-101379400D01*
X172820247Y-101427019D01*
X172772628Y-101522257D01*
X172772628Y-101617495D01*
X172820247Y-101760352D01*
X173391676Y-102331780D01*
X172772628Y-102331780D01*
X168733552Y-98851980D02*
X168733552Y-97851980D01*
X168352600Y-97851980D01*
X168257361Y-97899600D01*
X168209742Y-97947219D01*
X168162123Y-98042457D01*
X168162123Y-98185314D01*
X168209742Y-98280552D01*
X168257361Y-98328171D01*
X168352600Y-98375790D01*
X168733552Y-98375790D01*
X167828790Y-97851980D02*
X167590695Y-98851980D01*
X167400219Y-98137695D01*
X167209742Y-98851980D01*
X166971647Y-97851980D01*
X166590695Y-98851980D02*
X166590695Y-97851980D01*
X166257361Y-98566266D01*
X165924028Y-97851980D01*
X165924028Y-98851980D01*
X164924028Y-98851980D02*
X165495457Y-98851980D01*
X165209742Y-98851980D02*
X165209742Y-97851980D01*
X165304980Y-97994838D01*
X165400219Y-98090076D01*
X165495457Y-98137695D01*
D10*
X176670912Y-114885661D02*
X177007629Y-115222379D01*
X176704583Y-115592768D01*
X176704583Y-115525425D01*
X176670912Y-115424409D01*
X176502553Y-115256051D01*
X176401538Y-115222379D01*
X176334194Y-115222379D01*
X176233179Y-115256051D01*
X176064820Y-115424409D01*
X176031148Y-115525425D01*
X176031148Y-115592768D01*
X176064820Y-115693783D01*
X176233179Y-115862142D01*
X176334194Y-115895814D01*
X176401538Y-115895814D01*
X176435209Y-114649959D02*
X175492400Y-115121364D01*
X175963805Y-114178555D01*
X179083327Y-115080090D02*
X179790434Y-114372983D01*
X179521060Y-114103609D01*
X179420044Y-114069938D01*
X179352701Y-114069938D01*
X179251686Y-114103609D01*
X179150670Y-114204625D01*
X179116999Y-114305640D01*
X179116999Y-114372983D01*
X179150670Y-114473999D01*
X179420044Y-114743373D01*
X178376220Y-114372983D02*
X179083327Y-113665877D01*
X178813953Y-113396503D01*
X178712938Y-113362831D01*
X178645594Y-113362831D01*
X178544579Y-113396503D01*
X178443564Y-113497518D01*
X178409892Y-113598533D01*
X178409892Y-113665877D01*
X178443564Y-113766892D01*
X178712938Y-114036266D01*
X177669113Y-113665877D02*
X178376220Y-112958770D01*
X177635442Y-113228144D01*
X177904816Y-112487365D01*
X177197709Y-113194472D01*
X181156101Y-112173794D02*
X181257116Y-112207466D01*
X181358131Y-112308481D01*
X181425475Y-112443168D01*
X181425475Y-112577855D01*
X181391803Y-112678870D01*
X181290788Y-112847229D01*
X181189773Y-112948244D01*
X181021414Y-113049260D01*
X180920399Y-113082931D01*
X180785712Y-113082931D01*
X180651025Y-113015588D01*
X180583681Y-112948244D01*
X180516338Y-112813557D01*
X180516338Y-112746214D01*
X180752040Y-112510512D01*
X180886727Y-112645199D01*
X180145948Y-112510512D02*
X180853055Y-111803405D01*
X179741887Y-112106451D01*
X180448994Y-111399344D01*
X179405170Y-111769733D02*
X180112277Y-111062626D01*
X179943918Y-110894268D01*
X179809231Y-110826924D01*
X179674544Y-110826924D01*
X179573529Y-110860596D01*
X179405170Y-110961611D01*
X179304155Y-111062626D01*
X179203139Y-111230985D01*
X179169468Y-111332000D01*
X179169468Y-111466687D01*
X179236811Y-111601374D01*
X179405170Y-111769733D01*
%TO.C,G\u002A\u002A\u002A*%
G36*
X175021524Y-109154013D02*
G01*
X175019058Y-109167979D01*
X175017364Y-109168639D01*
X174997050Y-109170753D01*
X174955522Y-109172703D01*
X174894498Y-109174488D01*
X174815695Y-109176108D01*
X174720830Y-109177565D01*
X174611621Y-109178856D01*
X174489785Y-109179983D01*
X174357041Y-109180946D01*
X174215105Y-109181744D01*
X174065696Y-109182378D01*
X173910530Y-109182847D01*
X173751326Y-109183151D01*
X173589800Y-109183291D01*
X173427671Y-109183267D01*
X173266656Y-109183078D01*
X173108472Y-109182725D01*
X172954837Y-109182207D01*
X172807469Y-109181524D01*
X172668085Y-109180677D01*
X172538402Y-109179666D01*
X172420139Y-109178490D01*
X172315012Y-109177149D01*
X172224739Y-109175644D01*
X172151039Y-109173975D01*
X172095627Y-109172141D01*
X172060223Y-109170142D01*
X172046543Y-109167979D01*
X172044618Y-109159135D01*
X172042319Y-109128397D01*
X172040672Y-109088274D01*
X172126248Y-109088274D01*
X174939353Y-109088274D01*
X174939353Y-108900869D01*
X173964834Y-108897871D01*
X173829780Y-108897443D01*
X173672533Y-108896889D01*
X173536091Y-108896308D01*
X173418959Y-108895666D01*
X173319642Y-108894927D01*
X173236645Y-108894055D01*
X173168473Y-108893015D01*
X173113631Y-108891771D01*
X173070623Y-108890287D01*
X173037955Y-108888529D01*
X173014131Y-108886459D01*
X172997657Y-108884043D01*
X172987036Y-108881245D01*
X172980774Y-108878030D01*
X172977377Y-108874361D01*
X172970701Y-108858517D01*
X172977377Y-108833337D01*
X172978854Y-108831390D01*
X172983576Y-108827904D01*
X172991963Y-108824867D01*
X173005537Y-108822241D01*
X173025818Y-108819990D01*
X173054329Y-108818076D01*
X173092590Y-108816461D01*
X173142123Y-108815109D01*
X173204449Y-108813980D01*
X173281089Y-108813038D01*
X173373565Y-108812246D01*
X173483399Y-108811566D01*
X173612111Y-108810961D01*
X173761222Y-108810393D01*
X173932255Y-108809824D01*
X174874197Y-108806823D01*
X174781046Y-108713123D01*
X174687896Y-108619423D01*
X172377705Y-108619423D01*
X172284734Y-108712943D01*
X172191762Y-108806463D01*
X172430258Y-108809644D01*
X172502705Y-108810747D01*
X172566176Y-108812232D01*
X172612040Y-108814238D01*
X172643411Y-108817058D01*
X172663399Y-108820986D01*
X172675119Y-108826314D01*
X172681681Y-108833337D01*
X172688344Y-108849153D01*
X172681679Y-108874361D01*
X172679562Y-108877270D01*
X172671807Y-108883246D01*
X172658049Y-108887816D01*
X172635383Y-108891219D01*
X172600902Y-108893700D01*
X172551699Y-108895499D01*
X172484866Y-108896858D01*
X172397498Y-108898020D01*
X172126248Y-108901166D01*
X172126248Y-109088274D01*
X172040672Y-109088274D01*
X172040238Y-109077714D01*
X172038372Y-109009059D01*
X172036724Y-108924403D01*
X172035292Y-108825719D01*
X172034076Y-108714978D01*
X172033077Y-108594153D01*
X172032295Y-108465216D01*
X172032280Y-108461626D01*
X172126248Y-108461626D01*
X172126349Y-108500869D01*
X172127097Y-108572696D01*
X172128481Y-108634326D01*
X172130384Y-108682446D01*
X172132694Y-108713746D01*
X172135297Y-108724915D01*
X172135308Y-108724915D01*
X172146672Y-108717020D01*
X172170846Y-108695609D01*
X172204290Y-108663943D01*
X172243460Y-108625284D01*
X172342574Y-108525653D01*
X172641984Y-108525653D01*
X172641984Y-108238482D01*
X172735754Y-108238482D01*
X172735917Y-108288346D01*
X172736791Y-108360925D01*
X172738316Y-108423010D01*
X172740377Y-108471364D01*
X172742857Y-108502751D01*
X172745640Y-108513932D01*
X172751956Y-108513239D01*
X172780748Y-108505443D01*
X172821956Y-108490948D01*
X172869227Y-108472222D01*
X172916208Y-108451735D01*
X172956548Y-108431955D01*
X172988531Y-108413209D01*
X173039631Y-108378554D01*
X173084146Y-108343517D01*
X173084779Y-108342964D01*
X173124054Y-108311002D01*
X173151998Y-108295066D01*
X173172772Y-108293662D01*
X173190539Y-108305293D01*
X173202215Y-108325141D01*
X173198329Y-108355494D01*
X173173260Y-108392090D01*
X173126676Y-108435380D01*
X173058245Y-108485816D01*
X172999795Y-108525653D01*
X173707183Y-108525653D01*
X173715093Y-108472907D01*
X173718166Y-108439518D01*
X173711200Y-108352832D01*
X173684684Y-108258679D01*
X173639443Y-108159528D01*
X173576303Y-108057847D01*
X173565449Y-108042545D01*
X173536599Y-108004556D01*
X173513311Y-107980508D01*
X173490465Y-107965790D01*
X173462940Y-107955795D01*
X173454386Y-107953430D01*
X173626903Y-107953430D01*
X173661578Y-108003830D01*
X173667308Y-108012240D01*
X173732297Y-108122479D01*
X173778760Y-108232123D01*
X173805694Y-108338281D01*
X173812097Y-108438061D01*
X173812033Y-108439518D01*
X173808250Y-108525708D01*
X174070482Y-108525681D01*
X174332715Y-108525653D01*
X174327128Y-108423092D01*
X174321652Y-108359179D01*
X174306596Y-108283385D01*
X174280253Y-108218581D01*
X174239601Y-108157947D01*
X174181620Y-108094666D01*
X174140610Y-108052141D01*
X174110726Y-108014724D01*
X174097877Y-107986921D01*
X174101076Y-107966458D01*
X174119336Y-107951059D01*
X174140378Y-107946817D01*
X174177169Y-107959355D01*
X174222774Y-107992901D01*
X174276792Y-108047213D01*
X174330249Y-108106670D01*
X174327118Y-107803356D01*
X174323986Y-107500042D01*
X174288823Y-107495978D01*
X174285314Y-107495621D01*
X174234933Y-107497906D01*
X174174352Y-107511138D01*
X174107691Y-107533246D01*
X174039070Y-107562159D01*
X173972608Y-107595806D01*
X173912426Y-107632115D01*
X173862643Y-107669015D01*
X173849993Y-107681722D01*
X173827380Y-107704437D01*
X173810754Y-107736307D01*
X173804503Y-107762980D01*
X173796759Y-107788415D01*
X173796008Y-107796822D01*
X173805581Y-107806436D01*
X173830664Y-107816139D01*
X173875057Y-107827847D01*
X173925376Y-107840648D01*
X173964476Y-107853140D01*
X173987675Y-107865385D01*
X173998794Y-107879484D01*
X174001651Y-107897542D01*
X173998518Y-107922700D01*
X173986330Y-107938747D01*
X173961831Y-107944647D01*
X173921773Y-107941135D01*
X173862906Y-107928946D01*
X173828069Y-107920892D01*
X173778416Y-107910622D01*
X173743059Y-107906291D01*
X173716566Y-107907899D01*
X173693501Y-107915445D01*
X173668431Y-107928928D01*
X173626903Y-107953430D01*
X173454386Y-107953430D01*
X173446490Y-107951247D01*
X173419384Y-107945029D01*
X173407085Y-107944185D01*
X173403485Y-107953465D01*
X173395626Y-107979933D01*
X173385698Y-108016934D01*
X173375297Y-108053927D01*
X173351878Y-108117584D01*
X173326664Y-108163342D01*
X173300769Y-108189855D01*
X173275305Y-108195774D01*
X173251385Y-108179749D01*
X173249931Y-108177903D01*
X173244187Y-108164716D01*
X173244767Y-108145046D01*
X173252410Y-108113777D01*
X173267856Y-108065793D01*
X173289502Y-107996895D01*
X173303387Y-107937550D01*
X173307302Y-107890950D01*
X173301568Y-107852825D01*
X173286509Y-107818904D01*
X173277875Y-107804535D01*
X173263780Y-107785776D01*
X173251736Y-107782855D01*
X173235400Y-107792494D01*
X173163382Y-107839967D01*
X173068517Y-107890929D01*
X172974275Y-107929707D01*
X172885477Y-107954381D01*
X172806945Y-107963032D01*
X172735754Y-107963032D01*
X172735754Y-108238482D01*
X172641984Y-108238482D01*
X172641984Y-107869262D01*
X172735754Y-107869262D01*
X172791430Y-107868214D01*
X172815060Y-107867024D01*
X172907991Y-107849940D01*
X173006084Y-107814058D01*
X173104830Y-107760923D01*
X173115932Y-107753908D01*
X173176540Y-107713203D01*
X173215903Y-107681722D01*
X173345260Y-107681722D01*
X173349479Y-107713219D01*
X173371062Y-107764355D01*
X173406389Y-107810215D01*
X173450305Y-107842889D01*
X173467218Y-107850727D01*
X173504357Y-107864010D01*
X173532800Y-107869262D01*
X173544148Y-107868065D01*
X173578058Y-107858635D01*
X173615296Y-107842889D01*
X173643810Y-107824164D01*
X173682890Y-107782227D01*
X173710119Y-107732110D01*
X173720341Y-107681722D01*
X173716122Y-107650224D01*
X173694539Y-107599088D01*
X173659212Y-107553228D01*
X173615296Y-107520554D01*
X173598383Y-107512716D01*
X173561244Y-107499433D01*
X173532800Y-107494181D01*
X173501303Y-107498400D01*
X173450167Y-107519983D01*
X173404307Y-107555310D01*
X173371633Y-107599226D01*
X173363795Y-107616139D01*
X173350512Y-107653278D01*
X173345260Y-107681722D01*
X173215903Y-107681722D01*
X173218399Y-107679726D01*
X173243797Y-107651428D01*
X173255023Y-107626254D01*
X173261074Y-107600559D01*
X173269117Y-107574311D01*
X173270567Y-107568914D01*
X173266045Y-107558476D01*
X173246737Y-107549889D01*
X173208401Y-107540813D01*
X173183993Y-107535596D01*
X173127285Y-107520642D01*
X173090237Y-107505005D01*
X173070056Y-107487237D01*
X173063950Y-107465888D01*
X173067235Y-107444711D01*
X173084576Y-107426113D01*
X173118207Y-107421685D01*
X173169691Y-107430908D01*
X173205616Y-107439850D01*
X173270858Y-107452619D01*
X173321252Y-107456077D01*
X173361334Y-107450312D01*
X173395641Y-107435417D01*
X173409657Y-107426996D01*
X173428625Y-107412796D01*
X173431735Y-107400685D01*
X173422293Y-107384321D01*
X173409427Y-107365456D01*
X173374899Y-107309547D01*
X173339794Y-107246712D01*
X173308833Y-107185631D01*
X173286732Y-107134980D01*
X173271013Y-107080642D01*
X173259542Y-107014469D01*
X173254232Y-106953744D01*
X173348119Y-106953744D01*
X173357078Y-107026967D01*
X173364579Y-107054925D01*
X173387416Y-107119027D01*
X173417342Y-107185069D01*
X173451902Y-107249032D01*
X173488642Y-107306900D01*
X173525106Y-107354657D01*
X173558839Y-107388285D01*
X173581702Y-107400685D01*
X173587386Y-107403768D01*
X173614012Y-107409996D01*
X173639129Y-107417623D01*
X173648159Y-107417808D01*
X173657268Y-107406670D01*
X173666536Y-107379795D01*
X173677663Y-107333465D01*
X173693251Y-107268173D01*
X173708448Y-107219101D01*
X173723745Y-107187652D01*
X173740579Y-107170917D01*
X173760387Y-107165985D01*
X173779099Y-107168495D01*
X173801173Y-107185998D01*
X173806925Y-107219603D01*
X173796112Y-107268607D01*
X173785203Y-107307345D01*
X173773730Y-107359484D01*
X173764674Y-107412132D01*
X173761921Y-107431866D01*
X173757683Y-107471204D01*
X173758490Y-107497929D01*
X173765136Y-107519655D01*
X173778415Y-107543997D01*
X173785782Y-107556194D01*
X173800025Y-107578932D01*
X173806515Y-107587951D01*
X173812724Y-107584093D01*
X173833428Y-107569900D01*
X173863314Y-107548856D01*
X173872835Y-107542180D01*
X173970929Y-107483129D01*
X174071886Y-107438606D01*
X174170721Y-107410462D01*
X174262450Y-107400550D01*
X174329847Y-107400411D01*
X174329847Y-107050715D01*
X174262450Y-106990453D01*
X174237612Y-106968494D01*
X174210504Y-106947059D01*
X174189020Y-106936452D01*
X174166182Y-106933676D01*
X174135011Y-106935735D01*
X174085864Y-106944564D01*
X174006599Y-106977569D01*
X173930876Y-107032989D01*
X173905190Y-107054252D01*
X173879307Y-107067789D01*
X173856509Y-107067747D01*
X173829895Y-107055321D01*
X173819461Y-107033070D01*
X173829536Y-107003236D01*
X173859691Y-106966974D01*
X173909496Y-106925436D01*
X173910835Y-106924454D01*
X173954165Y-106895929D01*
X173997942Y-106872173D01*
X174032884Y-106858240D01*
X174083316Y-106844752D01*
X174058022Y-106817828D01*
X174057127Y-106816877D01*
X174049255Y-106809169D01*
X174040056Y-106803160D01*
X174026765Y-106798639D01*
X174006618Y-106795394D01*
X173976851Y-106793214D01*
X173934698Y-106791886D01*
X173877396Y-106791200D01*
X173802180Y-106790943D01*
X173706286Y-106790905D01*
X173379844Y-106790905D01*
X173367549Y-106823138D01*
X173353078Y-106878842D01*
X173348119Y-106953744D01*
X173254232Y-106953744D01*
X173253556Y-106946011D01*
X173253757Y-106883423D01*
X173260850Y-106834860D01*
X173273043Y-106790905D01*
X173153845Y-106791114D01*
X173034646Y-106791323D01*
X172885519Y-106920761D01*
X172736391Y-107050198D01*
X172758957Y-107109587D01*
X172784206Y-107165840D01*
X172837430Y-107243953D01*
X172909103Y-107310229D01*
X172927306Y-107324329D01*
X172954042Y-107348514D01*
X172966282Y-107367933D01*
X172967848Y-107387620D01*
X172965944Y-107398430D01*
X172954456Y-107415030D01*
X172927357Y-107421581D01*
X172922150Y-107421963D01*
X172901883Y-107419863D01*
X172880223Y-107409612D01*
X172852257Y-107388256D01*
X172813075Y-107352840D01*
X172735754Y-107280510D01*
X172735754Y-107869262D01*
X172641984Y-107869262D01*
X172641984Y-107002585D01*
X172819621Y-106849860D01*
X172997259Y-106697135D01*
X174068342Y-106697135D01*
X174245980Y-106849860D01*
X174423617Y-107002585D01*
X174423617Y-108525653D01*
X174722069Y-108525653D01*
X174830711Y-108633844D01*
X174939353Y-108742034D01*
X174939353Y-108198337D01*
X174832173Y-108194967D01*
X174828517Y-108194850D01*
X174776364Y-108192285D01*
X174742696Y-108188089D01*
X174722831Y-108181333D01*
X174712090Y-108171085D01*
X174705464Y-108155345D01*
X174712090Y-108130060D01*
X174712542Y-108129360D01*
X174723681Y-108119338D01*
X174744212Y-108112754D01*
X174778816Y-108108678D01*
X174832173Y-108106178D01*
X174939353Y-108102808D01*
X174939353Y-107917027D01*
X174832173Y-107913657D01*
X174828517Y-107913539D01*
X174776364Y-107910974D01*
X174742696Y-107906779D01*
X174722831Y-107900022D01*
X174712090Y-107889774D01*
X174705464Y-107874034D01*
X174712090Y-107848750D01*
X174712542Y-107848050D01*
X174723681Y-107838027D01*
X174744212Y-107831443D01*
X174778816Y-107827367D01*
X174832173Y-107824867D01*
X174939353Y-107821497D01*
X174939353Y-107635716D01*
X174832173Y-107632346D01*
X174828517Y-107632229D01*
X174776364Y-107629664D01*
X174742696Y-107625468D01*
X174722831Y-107618712D01*
X174712090Y-107608464D01*
X174705464Y-107592724D01*
X174712090Y-107567439D01*
X174712542Y-107566739D01*
X174723681Y-107556717D01*
X174744212Y-107550133D01*
X174778816Y-107546056D01*
X174832173Y-107543557D01*
X174939353Y-107540187D01*
X174939353Y-107354406D01*
X174832173Y-107351035D01*
X174828517Y-107350918D01*
X174776364Y-107348353D01*
X174742696Y-107344158D01*
X174722831Y-107337401D01*
X174712090Y-107327153D01*
X174705464Y-107311413D01*
X174712090Y-107286129D01*
X174712542Y-107285429D01*
X174723681Y-107275406D01*
X174744212Y-107268822D01*
X174778816Y-107264746D01*
X174832173Y-107262246D01*
X174939353Y-107258876D01*
X174939353Y-106978445D01*
X174589278Y-106978445D01*
X174357001Y-106768025D01*
X174124725Y-106557604D01*
X173532800Y-106557354D01*
X172940876Y-106557103D01*
X172683944Y-106767774D01*
X172427013Y-106978445D01*
X172126248Y-106978445D01*
X172126248Y-107258876D01*
X172233428Y-107262246D01*
X172237084Y-107262363D01*
X172289237Y-107264929D01*
X172322905Y-107269124D01*
X172342770Y-107275880D01*
X172353511Y-107286129D01*
X172360137Y-107301868D01*
X172353511Y-107327153D01*
X172353059Y-107327853D01*
X172341920Y-107337875D01*
X172321389Y-107344459D01*
X172286785Y-107348536D01*
X172233428Y-107351035D01*
X172126248Y-107354406D01*
X172126248Y-107540187D01*
X172233428Y-107543557D01*
X172237084Y-107543674D01*
X172289237Y-107546239D01*
X172322905Y-107550434D01*
X172342770Y-107557191D01*
X172353511Y-107567439D01*
X172360137Y-107583179D01*
X172353511Y-107608464D01*
X172353059Y-107609163D01*
X172341920Y-107619186D01*
X172321389Y-107625770D01*
X172286785Y-107629846D01*
X172233428Y-107632346D01*
X172126248Y-107635716D01*
X172126248Y-107821497D01*
X172233428Y-107824867D01*
X172237084Y-107824985D01*
X172289237Y-107827550D01*
X172322905Y-107831745D01*
X172342770Y-107838501D01*
X172353511Y-107848750D01*
X172360137Y-107864489D01*
X172353511Y-107889774D01*
X172353059Y-107890474D01*
X172341920Y-107900496D01*
X172321389Y-107907080D01*
X172286785Y-107911157D01*
X172233428Y-107913657D01*
X172126248Y-107917027D01*
X172126248Y-108102808D01*
X172233428Y-108106178D01*
X172237084Y-108106295D01*
X172289237Y-108108860D01*
X172322905Y-108113056D01*
X172342770Y-108119812D01*
X172353511Y-108130060D01*
X172360137Y-108145800D01*
X172353511Y-108171085D01*
X172353059Y-108171785D01*
X172341920Y-108181807D01*
X172321389Y-108188391D01*
X172286785Y-108192467D01*
X172233428Y-108194967D01*
X172126248Y-108198337D01*
X172126248Y-108461626D01*
X172032280Y-108461626D01*
X172031729Y-108330139D01*
X172031379Y-108190895D01*
X172031246Y-108049454D01*
X172031330Y-107907790D01*
X172031630Y-107767874D01*
X172032147Y-107631678D01*
X172032881Y-107501176D01*
X172033830Y-107378338D01*
X172034997Y-107265137D01*
X172036380Y-107163544D01*
X172037979Y-107075533D01*
X172039795Y-107003075D01*
X172041828Y-106948142D01*
X172044077Y-106912707D01*
X172046543Y-106898740D01*
X172058283Y-106893527D01*
X172092032Y-106888515D01*
X172147412Y-106885504D01*
X172225292Y-106884426D01*
X172389976Y-106884177D01*
X172904080Y-106462709D01*
X174163230Y-106462709D01*
X174395985Y-106673184D01*
X174628740Y-106883660D01*
X174816866Y-106884167D01*
X174832147Y-106884229D01*
X174910540Y-106885461D01*
X174966992Y-106888230D01*
X175002748Y-106892626D01*
X175019058Y-106898740D01*
X175020983Y-106907585D01*
X175023282Y-106938323D01*
X175025363Y-106989005D01*
X175027229Y-107057661D01*
X175028877Y-107142317D01*
X175030309Y-107241001D01*
X175031525Y-107351741D01*
X175032524Y-107472566D01*
X175033305Y-107601503D01*
X175033871Y-107736580D01*
X175034221Y-107875825D01*
X175034354Y-108017265D01*
X175034270Y-108158930D01*
X175033970Y-108298846D01*
X175033453Y-108435041D01*
X175032720Y-108565544D01*
X175031771Y-108688382D01*
X175031218Y-108742034D01*
X175030604Y-108801583D01*
X175029221Y-108903175D01*
X175027622Y-108991186D01*
X175025805Y-109063645D01*
X175024894Y-109088274D01*
X175023773Y-109118577D01*
X175021524Y-109154013D01*
G37*
G36*
X172850077Y-108813467D02*
G01*
X172868089Y-108832056D01*
X172874467Y-108857569D01*
X172864221Y-108883715D01*
X172854298Y-108892280D01*
X172829524Y-108900734D01*
X172823013Y-108900320D01*
X172797931Y-108888005D01*
X172786005Y-108864334D01*
X172789083Y-108837112D01*
X172809012Y-108814141D01*
X172825423Y-108808092D01*
X172850077Y-108813467D01*
G37*
%TO.C,REF\u002A\u002A*%
G36*
X180972960Y-92704175D02*
G01*
X180984493Y-92721511D01*
X181009900Y-92763162D01*
X181047907Y-92826911D01*
X181097237Y-92910545D01*
X181156613Y-93011849D01*
X181224759Y-93128609D01*
X181300400Y-93258608D01*
X181382259Y-93399633D01*
X181469060Y-93549468D01*
X181559526Y-93705900D01*
X181652382Y-93866713D01*
X181746351Y-94029693D01*
X181840157Y-94192624D01*
X181932524Y-94353292D01*
X182022176Y-94509482D01*
X182107836Y-94658980D01*
X182188228Y-94799571D01*
X182262077Y-94929040D01*
X182328105Y-95045172D01*
X182385037Y-95145752D01*
X182431597Y-95228567D01*
X182466508Y-95291400D01*
X182488494Y-95332037D01*
X182496279Y-95348264D01*
X182496287Y-95348388D01*
X182483733Y-95365416D01*
X182447658Y-95394279D01*
X182391817Y-95432247D01*
X182319961Y-95476587D01*
X182271773Y-95504952D01*
X182202432Y-95544396D01*
X182154134Y-95569254D01*
X182123642Y-95580924D01*
X182107720Y-95580806D01*
X182103132Y-95570297D01*
X182102782Y-95568583D01*
X182089668Y-95547682D01*
X182061400Y-95512139D01*
X182023186Y-95468583D01*
X182005555Y-95449875D01*
X181950882Y-95399512D01*
X181890422Y-95356465D01*
X181820582Y-95319473D01*
X181737770Y-95287273D01*
X181638392Y-95258602D01*
X181518855Y-95232198D01*
X181375566Y-95206800D01*
X181204931Y-95181145D01*
X181008534Y-95152227D01*
X180818674Y-95121173D01*
X180652660Y-95090044D01*
X180506782Y-95057942D01*
X180377327Y-95023969D01*
X180260583Y-94987226D01*
X180152840Y-94946817D01*
X180050385Y-94901843D01*
X179975088Y-94864754D01*
X179903165Y-94825725D01*
X179846286Y-94790882D01*
X179808899Y-94762965D01*
X179795449Y-94744714D01*
X179795846Y-94743370D01*
X179806680Y-94721862D01*
X179831245Y-94676822D01*
X179868085Y-94610772D01*
X179915747Y-94526233D01*
X179972776Y-94425727D01*
X180037718Y-94311776D01*
X180109119Y-94186901D01*
X180185524Y-94053624D01*
X180265479Y-93914467D01*
X180347530Y-93771951D01*
X180430222Y-93628598D01*
X180512101Y-93486930D01*
X180591713Y-93349468D01*
X180667604Y-93218734D01*
X180738319Y-93097250D01*
X180802404Y-92987538D01*
X180858404Y-92892118D01*
X180904866Y-92813514D01*
X180940335Y-92754245D01*
X180963357Y-92716835D01*
X180972477Y-92703805D01*
X180972960Y-92704175D01*
G37*
D13*
X180972960Y-92704175D02*
X180984493Y-92721511D01*
X181009900Y-92763162D01*
X181047907Y-92826911D01*
X181097237Y-92910545D01*
X181156613Y-93011849D01*
X181224759Y-93128609D01*
X181300400Y-93258608D01*
X181382259Y-93399633D01*
X181469060Y-93549468D01*
X181559526Y-93705900D01*
X181652382Y-93866713D01*
X181746351Y-94029693D01*
X181840157Y-94192624D01*
X181932524Y-94353292D01*
X182022176Y-94509482D01*
X182107836Y-94658980D01*
X182188228Y-94799571D01*
X182262077Y-94929040D01*
X182328105Y-95045172D01*
X182385037Y-95145752D01*
X182431597Y-95228567D01*
X182466508Y-95291400D01*
X182488494Y-95332037D01*
X182496279Y-95348264D01*
X182496287Y-95348388D01*
X182483733Y-95365416D01*
X182447658Y-95394279D01*
X182391817Y-95432247D01*
X182319961Y-95476587D01*
X182271773Y-95504952D01*
X182202432Y-95544396D01*
X182154134Y-95569254D01*
X182123642Y-95580924D01*
X182107720Y-95580806D01*
X182103132Y-95570297D01*
X182102782Y-95568583D01*
X182089668Y-95547682D01*
X182061400Y-95512139D01*
X182023186Y-95468583D01*
X182005555Y-95449875D01*
X181950882Y-95399512D01*
X181890422Y-95356465D01*
X181820582Y-95319473D01*
X181737770Y-95287273D01*
X181638392Y-95258602D01*
X181518855Y-95232198D01*
X181375566Y-95206800D01*
X181204931Y-95181145D01*
X181008534Y-95152227D01*
X180818674Y-95121173D01*
X180652660Y-95090044D01*
X180506782Y-95057942D01*
X180377327Y-95023969D01*
X180260583Y-94987226D01*
X180152840Y-94946817D01*
X180050385Y-94901843D01*
X179975088Y-94864754D01*
X179903165Y-94825725D01*
X179846286Y-94790882D01*
X179808899Y-94762965D01*
X179795449Y-94744714D01*
X179795846Y-94743370D01*
X179806680Y-94721862D01*
X179831245Y-94676822D01*
X179868085Y-94610772D01*
X179915747Y-94526233D01*
X179972776Y-94425727D01*
X180037718Y-94311776D01*
X180109119Y-94186901D01*
X180185524Y-94053624D01*
X180265479Y-93914467D01*
X180347530Y-93771951D01*
X180430222Y-93628598D01*
X180512101Y-93486930D01*
X180591713Y-93349468D01*
X180667604Y-93218734D01*
X180738319Y-93097250D01*
X180802404Y-92987538D01*
X180858404Y-92892118D01*
X180904866Y-92813514D01*
X180940335Y-92754245D01*
X180963357Y-92716835D01*
X180972477Y-92703805D01*
X180972960Y-92704175D01*
G36*
X179210236Y-95873363D02*
G01*
X179224423Y-95887032D01*
X179265792Y-95928719D01*
X179320507Y-95985472D01*
X179385910Y-96054397D01*
X179459343Y-96132599D01*
X179538146Y-96217182D01*
X179619660Y-96305253D01*
X179701227Y-96393916D01*
X179780188Y-96480276D01*
X179853883Y-96561439D01*
X179919654Y-96634510D01*
X179974841Y-96696594D01*
X180016786Y-96744795D01*
X180042831Y-96776220D01*
X180050315Y-96787974D01*
X180047746Y-96789272D01*
X180023185Y-96802978D01*
X179974604Y-96830613D01*
X179904052Y-96870998D01*
X179813573Y-96922955D01*
X179705215Y-96985305D01*
X179581024Y-97056871D01*
X179443045Y-97136475D01*
X179293326Y-97222938D01*
X179133913Y-97315083D01*
X178966851Y-97411732D01*
X178904408Y-97447867D01*
X178740283Y-97542806D01*
X178584758Y-97632714D01*
X178439854Y-97716424D01*
X178307595Y-97792771D01*
X178190004Y-97860589D01*
X178089102Y-97918711D01*
X178006913Y-97965971D01*
X177945459Y-98001203D01*
X177906764Y-98023242D01*
X177892849Y-98030920D01*
X177893475Y-98026831D01*
X177904893Y-98003330D01*
X177925893Y-97965786D01*
X177938776Y-97943564D01*
X177966172Y-97896173D01*
X178006487Y-97826377D01*
X178058409Y-97736444D01*
X178120631Y-97628642D01*
X178191843Y-97505240D01*
X178270735Y-97368506D01*
X178355998Y-97220709D01*
X178446324Y-97064117D01*
X178540402Y-96901000D01*
X178632521Y-96741323D01*
X178722080Y-96586187D01*
X178806293Y-96440412D01*
X178883897Y-96306183D01*
X178953625Y-96185685D01*
X179014214Y-96081102D01*
X179064398Y-95994619D01*
X179102912Y-95928421D01*
X179128492Y-95884693D01*
X179139872Y-95865619D01*
X179163220Y-95829201D01*
X179210236Y-95873363D01*
G37*
X179210236Y-95873363D02*
X179224423Y-95887032D01*
X179265792Y-95928719D01*
X179320507Y-95985472D01*
X179385910Y-96054397D01*
X179459343Y-96132599D01*
X179538146Y-96217182D01*
X179619660Y-96305253D01*
X179701227Y-96393916D01*
X179780188Y-96480276D01*
X179853883Y-96561439D01*
X179919654Y-96634510D01*
X179974841Y-96696594D01*
X180016786Y-96744795D01*
X180042831Y-96776220D01*
X180050315Y-96787974D01*
X180047746Y-96789272D01*
X180023185Y-96802978D01*
X179974604Y-96830613D01*
X179904052Y-96870998D01*
X179813573Y-96922955D01*
X179705215Y-96985305D01*
X179581024Y-97056871D01*
X179443045Y-97136475D01*
X179293326Y-97222938D01*
X179133913Y-97315083D01*
X178966851Y-97411732D01*
X178904408Y-97447867D01*
X178740283Y-97542806D01*
X178584758Y-97632714D01*
X178439854Y-97716424D01*
X178307595Y-97792771D01*
X178190004Y-97860589D01*
X178089102Y-97918711D01*
X178006913Y-97965971D01*
X177945459Y-98001203D01*
X177906764Y-98023242D01*
X177892849Y-98030920D01*
X177893475Y-98026831D01*
X177904893Y-98003330D01*
X177925893Y-97965786D01*
X177938776Y-97943564D01*
X177966172Y-97896173D01*
X178006487Y-97826377D01*
X178058409Y-97736444D01*
X178120631Y-97628642D01*
X178191843Y-97505240D01*
X178270735Y-97368506D01*
X178355998Y-97220709D01*
X178446324Y-97064117D01*
X178540402Y-96901000D01*
X178632521Y-96741323D01*
X178722080Y-96586187D01*
X178806293Y-96440412D01*
X178883897Y-96306183D01*
X178953625Y-96185685D01*
X179014214Y-96081102D01*
X179064398Y-95994619D01*
X179102912Y-95928421D01*
X179128492Y-95884693D01*
X179139872Y-95865619D01*
X179163220Y-95829201D01*
X179210236Y-95873363D01*
G36*
X182837447Y-95927040D02*
G01*
X182843202Y-95935625D01*
X182863765Y-95969346D01*
X182897579Y-96026200D01*
X182943350Y-96103968D01*
X182999783Y-96200432D01*
X183065584Y-96313371D01*
X183139458Y-96440568D01*
X183220111Y-96579803D01*
X183306248Y-96728857D01*
X183396575Y-96885512D01*
X183421347Y-96928521D01*
X183519300Y-97098575D01*
X183617909Y-97269754D01*
X183715160Y-97438562D01*
X183809038Y-97601503D01*
X183897531Y-97755082D01*
X183978622Y-97895801D01*
X184050298Y-98020166D01*
X184110544Y-98124680D01*
X184157347Y-98205847D01*
X184378430Y-98589171D01*
X181278476Y-98589171D01*
X181150321Y-98589159D01*
X180844900Y-98589042D01*
X180548832Y-98588802D01*
X180263559Y-98588444D01*
X179990523Y-98587976D01*
X179731165Y-98587403D01*
X179486927Y-98586732D01*
X179259249Y-98585968D01*
X179049574Y-98585119D01*
X178859343Y-98584189D01*
X178689997Y-98583186D01*
X178542978Y-98582115D01*
X178419727Y-98580983D01*
X178321686Y-98579796D01*
X178250296Y-98578559D01*
X178206998Y-98577280D01*
X178193235Y-98575963D01*
X178203454Y-98569304D01*
X178238711Y-98548083D01*
X178296621Y-98513920D01*
X178374830Y-98468171D01*
X178470983Y-98412190D01*
X178582723Y-98347333D01*
X178707696Y-98274954D01*
X178843546Y-98196409D01*
X178987918Y-98113054D01*
X179138456Y-98026243D01*
X179292805Y-97937332D01*
X179448610Y-97847676D01*
X179603516Y-97758629D01*
X179755166Y-97671548D01*
X179901206Y-97587788D01*
X180039281Y-97508703D01*
X180167034Y-97435649D01*
X180282111Y-97369981D01*
X180382156Y-97313054D01*
X180464814Y-97266224D01*
X180527729Y-97230846D01*
X180568547Y-97208274D01*
X180584911Y-97199864D01*
X180595589Y-97201949D01*
X180627758Y-97220908D01*
X180673621Y-97256032D01*
X180728140Y-97303669D01*
X180777245Y-97351356D01*
X180839789Y-97416316D01*
X180909768Y-97492155D01*
X180983596Y-97574698D01*
X181057685Y-97659768D01*
X181128448Y-97743190D01*
X181192298Y-97820789D01*
X181245647Y-97888389D01*
X181284909Y-97941814D01*
X181306495Y-97976889D01*
X181320906Y-98002505D01*
X181360043Y-98055516D01*
X181410358Y-98111912D01*
X181464676Y-98164462D01*
X181515824Y-98205930D01*
X181556627Y-98229086D01*
X181601692Y-98234438D01*
X181661826Y-98219645D01*
X181718979Y-98185726D01*
X181763333Y-98137053D01*
X181771013Y-98124425D01*
X181780792Y-98103743D01*
X181787165Y-98078854D01*
X181790542Y-98044409D01*
X181791331Y-97995062D01*
X181789941Y-97925464D01*
X181786781Y-97830268D01*
X181784516Y-97775202D01*
X181779704Y-97688117D01*
X181774025Y-97611899D01*
X181768008Y-97553249D01*
X181762183Y-97518866D01*
X181748079Y-97479588D01*
X181706266Y-97402240D01*
X181641295Y-97310591D01*
X181552370Y-97203567D01*
X181438700Y-97080090D01*
X181389372Y-97028066D01*
X181332338Y-96966696D01*
X181285264Y-96914665D01*
X181252024Y-96876266D01*
X181236489Y-96855796D01*
X181234892Y-96852546D01*
X181232977Y-96838553D01*
X181242545Y-96823039D01*
X181267515Y-96802659D01*
X181311806Y-96774071D01*
X181379338Y-96733932D01*
X181436747Y-96700422D01*
X181542392Y-96639123D01*
X181625571Y-96591509D01*
X181689078Y-96556033D01*
X181735706Y-96531149D01*
X181768250Y-96515313D01*
X181789504Y-96506977D01*
X181811497Y-96497728D01*
X181824351Y-96485307D01*
X181825554Y-96482378D01*
X181844361Y-96466084D01*
X181878735Y-96445098D01*
X181933119Y-96415810D01*
X181973274Y-96453192D01*
X181987457Y-96468336D01*
X182020455Y-96509493D01*
X182060746Y-96564445D01*
X182102582Y-96625531D01*
X182191736Y-96760489D01*
X182188237Y-97110362D01*
X182184739Y-97460235D01*
X182133793Y-97509733D01*
X182116674Y-97527379D01*
X182061776Y-97606660D01*
X182029730Y-97700935D01*
X182018812Y-97814780D01*
X182021523Y-97875779D01*
X182040661Y-97983378D01*
X182075541Y-98081583D01*
X182123142Y-98160382D01*
X182156195Y-98189114D01*
X182214949Y-98210937D01*
X182281461Y-98213454D01*
X182347216Y-98197828D01*
X182403701Y-98165220D01*
X182442403Y-98116793D01*
X182443670Y-98114168D01*
X182467063Y-98066225D01*
X182491839Y-98016122D01*
X182512872Y-97969087D01*
X182543044Y-97889810D01*
X182576332Y-97792072D01*
X182611579Y-97680228D01*
X182647629Y-97558634D01*
X182683325Y-97431645D01*
X182717510Y-97303616D01*
X182749027Y-97178902D01*
X182776720Y-97061859D01*
X182799432Y-96956843D01*
X182816006Y-96868209D01*
X182825285Y-96800312D01*
X182826114Y-96757507D01*
X182824247Y-96747782D01*
X182806058Y-96698556D01*
X182772307Y-96632699D01*
X182725955Y-96556165D01*
X182708164Y-96528585D01*
X182636682Y-96416122D01*
X182575920Y-96317772D01*
X182527217Y-96235832D01*
X182491914Y-96172605D01*
X182471352Y-96130390D01*
X182466869Y-96111487D01*
X182467388Y-96110820D01*
X182485945Y-96097205D01*
X182525602Y-96072319D01*
X182580926Y-96039476D01*
X182646484Y-96001988D01*
X182652026Y-95998876D01*
X182723207Y-95959712D01*
X182772781Y-95934736D01*
X182805306Y-95922158D01*
X182825342Y-95920189D01*
X182837447Y-95927040D01*
G37*
X182837447Y-95927040D02*
X182843202Y-95935625D01*
X182863765Y-95969346D01*
X182897579Y-96026200D01*
X182943350Y-96103968D01*
X182999783Y-96200432D01*
X183065584Y-96313371D01*
X183139458Y-96440568D01*
X183220111Y-96579803D01*
X183306248Y-96728857D01*
X183396575Y-96885512D01*
X183421347Y-96928521D01*
X183519300Y-97098575D01*
X183617909Y-97269754D01*
X183715160Y-97438562D01*
X183809038Y-97601503D01*
X183897531Y-97755082D01*
X183978622Y-97895801D01*
X184050298Y-98020166D01*
X184110544Y-98124680D01*
X184157347Y-98205847D01*
X184378430Y-98589171D01*
X181278476Y-98589171D01*
X181150321Y-98589159D01*
X180844900Y-98589042D01*
X180548832Y-98588802D01*
X180263559Y-98588444D01*
X179990523Y-98587976D01*
X179731165Y-98587403D01*
X179486927Y-98586732D01*
X179259249Y-98585968D01*
X179049574Y-98585119D01*
X178859343Y-98584189D01*
X178689997Y-98583186D01*
X178542978Y-98582115D01*
X178419727Y-98580983D01*
X178321686Y-98579796D01*
X178250296Y-98578559D01*
X178206998Y-98577280D01*
X178193235Y-98575963D01*
X178203454Y-98569304D01*
X178238711Y-98548083D01*
X178296621Y-98513920D01*
X178374830Y-98468171D01*
X178470983Y-98412190D01*
X178582723Y-98347333D01*
X178707696Y-98274954D01*
X178843546Y-98196409D01*
X178987918Y-98113054D01*
X179138456Y-98026243D01*
X179292805Y-97937332D01*
X179448610Y-97847676D01*
X179603516Y-97758629D01*
X179755166Y-97671548D01*
X179901206Y-97587788D01*
X180039281Y-97508703D01*
X180167034Y-97435649D01*
X180282111Y-97369981D01*
X180382156Y-97313054D01*
X180464814Y-97266224D01*
X180527729Y-97230846D01*
X180568547Y-97208274D01*
X180584911Y-97199864D01*
X180595589Y-97201949D01*
X180627758Y-97220908D01*
X180673621Y-97256032D01*
X180728140Y-97303669D01*
X180777245Y-97351356D01*
X180839789Y-97416316D01*
X180909768Y-97492155D01*
X180983596Y-97574698D01*
X181057685Y-97659768D01*
X181128448Y-97743190D01*
X181192298Y-97820789D01*
X181245647Y-97888389D01*
X181284909Y-97941814D01*
X181306495Y-97976889D01*
X181320906Y-98002505D01*
X181360043Y-98055516D01*
X181410358Y-98111912D01*
X181464676Y-98164462D01*
X181515824Y-98205930D01*
X181556627Y-98229086D01*
X181601692Y-98234438D01*
X181661826Y-98219645D01*
X181718979Y-98185726D01*
X181763333Y-98137053D01*
X181771013Y-98124425D01*
X181780792Y-98103743D01*
X181787165Y-98078854D01*
X181790542Y-98044409D01*
X181791331Y-97995062D01*
X181789941Y-97925464D01*
X181786781Y-97830268D01*
X181784516Y-97775202D01*
X181779704Y-97688117D01*
X181774025Y-97611899D01*
X181768008Y-97553249D01*
X181762183Y-97518866D01*
X181748079Y-97479588D01*
X181706266Y-97402240D01*
X181641295Y-97310591D01*
X181552370Y-97203567D01*
X181438700Y-97080090D01*
X181389372Y-97028066D01*
X181332338Y-96966696D01*
X181285264Y-96914665D01*
X181252024Y-96876266D01*
X181236489Y-96855796D01*
X181234892Y-96852546D01*
X181232977Y-96838553D01*
X181242545Y-96823039D01*
X181267515Y-96802659D01*
X181311806Y-96774071D01*
X181379338Y-96733932D01*
X181436747Y-96700422D01*
X181542392Y-96639123D01*
X181625571Y-96591509D01*
X181689078Y-96556033D01*
X181735706Y-96531149D01*
X181768250Y-96515313D01*
X181789504Y-96506977D01*
X181811497Y-96497728D01*
X181824351Y-96485307D01*
X181825554Y-96482378D01*
X181844361Y-96466084D01*
X181878735Y-96445098D01*
X181933119Y-96415810D01*
X181973274Y-96453192D01*
X181987457Y-96468336D01*
X182020455Y-96509493D01*
X182060746Y-96564445D01*
X182102582Y-96625531D01*
X182191736Y-96760489D01*
X182188237Y-97110362D01*
X182184739Y-97460235D01*
X182133793Y-97509733D01*
X182116674Y-97527379D01*
X182061776Y-97606660D01*
X182029730Y-97700935D01*
X182018812Y-97814780D01*
X182021523Y-97875779D01*
X182040661Y-97983378D01*
X182075541Y-98081583D01*
X182123142Y-98160382D01*
X182156195Y-98189114D01*
X182214949Y-98210937D01*
X182281461Y-98213454D01*
X182347216Y-98197828D01*
X182403701Y-98165220D01*
X182442403Y-98116793D01*
X182443670Y-98114168D01*
X182467063Y-98066225D01*
X182491839Y-98016122D01*
X182512872Y-97969087D01*
X182543044Y-97889810D01*
X182576332Y-97792072D01*
X182611579Y-97680228D01*
X182647629Y-97558634D01*
X182683325Y-97431645D01*
X182717510Y-97303616D01*
X182749027Y-97178902D01*
X182776720Y-97061859D01*
X182799432Y-96956843D01*
X182816006Y-96868209D01*
X182825285Y-96800312D01*
X182826114Y-96757507D01*
X182824247Y-96747782D01*
X182806058Y-96698556D01*
X182772307Y-96632699D01*
X182725955Y-96556165D01*
X182708164Y-96528585D01*
X182636682Y-96416122D01*
X182575920Y-96317772D01*
X182527217Y-96235832D01*
X182491914Y-96172605D01*
X182471352Y-96130390D01*
X182466869Y-96111487D01*
X182467388Y-96110820D01*
X182485945Y-96097205D01*
X182525602Y-96072319D01*
X182580926Y-96039476D01*
X182646484Y-96001988D01*
X182652026Y-95998876D01*
X182723207Y-95959712D01*
X182772781Y-95934736D01*
X182805306Y-95922158D01*
X182825342Y-95920189D01*
X182837447Y-95927040D01*
G36*
X150266541Y-98012082D02*
G01*
X150298374Y-98024558D01*
X150335343Y-98041402D01*
X150335343Y-98527996D01*
X150289412Y-98573927D01*
X150278920Y-98584227D01*
X150249855Y-98607120D01*
X150220543Y-98614535D01*
X150176926Y-98611121D01*
X150159168Y-98608914D01*
X150113367Y-98604245D01*
X150081343Y-98602385D01*
X150071844Y-98602669D01*
X150032874Y-98605748D01*
X149985760Y-98611121D01*
X149970685Y-98612968D01*
X149932710Y-98613693D01*
X149904925Y-98602229D01*
X149873274Y-98573927D01*
X149827343Y-98527996D01*
X149827343Y-98267855D01*
X149827701Y-98190980D01*
X149828816Y-98117686D01*
X149830552Y-98059650D01*
X149832767Y-98021463D01*
X149835321Y-98007714D01*
X149835856Y-98007751D01*
X149854408Y-98014593D01*
X149885753Y-98029668D01*
X149928208Y-98051622D01*
X149932204Y-98280040D01*
X149936200Y-98508457D01*
X150023286Y-98508457D01*
X150027257Y-98258086D01*
X150028516Y-98190027D01*
X150030318Y-98117282D01*
X150032271Y-98059530D01*
X150034212Y-98021448D01*
X150035977Y-98007714D01*
X150036485Y-98007762D01*
X150054082Y-98012815D01*
X150086434Y-98023649D01*
X150132143Y-98039583D01*
X150132365Y-98259506D01*
X150132588Y-98297709D01*
X150134131Y-98371946D01*
X150136892Y-98433945D01*
X150140577Y-98478108D01*
X150144892Y-98498841D01*
X150160332Y-98509931D01*
X150191841Y-98513356D01*
X150226486Y-98508457D01*
X150230457Y-98258086D01*
X150231878Y-98194463D01*
X150234825Y-98119156D01*
X150238679Y-98060086D01*
X150243142Y-98021518D01*
X150247917Y-98007714D01*
X150266541Y-98012082D01*
G37*
X150266541Y-98012082D02*
X150298374Y-98024558D01*
X150335343Y-98041402D01*
X150335343Y-98527996D01*
X150289412Y-98573927D01*
X150278920Y-98584227D01*
X150249855Y-98607120D01*
X150220543Y-98614535D01*
X150176926Y-98611121D01*
X150159168Y-98608914D01*
X150113367Y-98604245D01*
X150081343Y-98602385D01*
X150071844Y-98602669D01*
X150032874Y-98605748D01*
X149985760Y-98611121D01*
X149970685Y-98612968D01*
X149932710Y-98613693D01*
X149904925Y-98602229D01*
X149873274Y-98573927D01*
X149827343Y-98527996D01*
X149827343Y-98267855D01*
X149827701Y-98190980D01*
X149828816Y-98117686D01*
X149830552Y-98059650D01*
X149832767Y-98021463D01*
X149835321Y-98007714D01*
X149835856Y-98007751D01*
X149854408Y-98014593D01*
X149885753Y-98029668D01*
X149928208Y-98051622D01*
X149932204Y-98280040D01*
X149936200Y-98508457D01*
X150023286Y-98508457D01*
X150027257Y-98258086D01*
X150028516Y-98190027D01*
X150030318Y-98117282D01*
X150032271Y-98059530D01*
X150034212Y-98021448D01*
X150035977Y-98007714D01*
X150036485Y-98007762D01*
X150054082Y-98012815D01*
X150086434Y-98023649D01*
X150132143Y-98039583D01*
X150132365Y-98259506D01*
X150132588Y-98297709D01*
X150134131Y-98371946D01*
X150136892Y-98433945D01*
X150140577Y-98478108D01*
X150144892Y-98498841D01*
X150160332Y-98509931D01*
X150191841Y-98513356D01*
X150226486Y-98508457D01*
X150230457Y-98258086D01*
X150231878Y-98194463D01*
X150234825Y-98119156D01*
X150238679Y-98060086D01*
X150243142Y-98021518D01*
X150247917Y-98007714D01*
X150266541Y-98012082D01*
G36*
X154878301Y-98313735D02*
G01*
X154877514Y-98383919D01*
X154874810Y-98432822D01*
X154869206Y-98466978D01*
X154859719Y-98492924D01*
X154845368Y-98517197D01*
X154841837Y-98522233D01*
X154804478Y-98561943D01*
X154761911Y-98591892D01*
X154740052Y-98601610D01*
X154661508Y-98617820D01*
X154583831Y-98607335D01*
X154512245Y-98571507D01*
X154451974Y-98511687D01*
X154446886Y-98503673D01*
X154430330Y-98457142D01*
X154419173Y-98392352D01*
X154413760Y-98317527D01*
X154414368Y-98248313D01*
X154560848Y-98248313D01*
X154562002Y-98344199D01*
X154562466Y-98350369D01*
X154569229Y-98403278D01*
X154581271Y-98436829D01*
X154601605Y-98459816D01*
X154635697Y-98481348D01*
X154669414Y-98482480D01*
X154704143Y-98457657D01*
X154710184Y-98451125D01*
X154722017Y-98431579D01*
X154729004Y-98403186D01*
X154732327Y-98359230D01*
X154733171Y-98292992D01*
X154731725Y-98230950D01*
X154724507Y-98171842D01*
X154709606Y-98134486D01*
X154685236Y-98114952D01*
X154649608Y-98109314D01*
X154636040Y-98110435D01*
X154598030Y-98130994D01*
X154572912Y-98177099D01*
X154560848Y-98248313D01*
X154414368Y-98248313D01*
X154414433Y-98240896D01*
X154421537Y-98170682D01*
X154435415Y-98115112D01*
X154453249Y-98078101D01*
X154503455Y-98020533D01*
X154571485Y-97984762D01*
X154654758Y-97972465D01*
X154676998Y-97973131D01*
X154742491Y-97986747D01*
X154796287Y-98021049D01*
X154845657Y-98080138D01*
X154848595Y-98084522D01*
X154861887Y-98108099D01*
X154870532Y-98134749D01*
X154875504Y-98170959D01*
X154877774Y-98223213D01*
X154878278Y-98292992D01*
X154878314Y-98298000D01*
X154878301Y-98313735D01*
G37*
X154878301Y-98313735D02*
X154877514Y-98383919D01*
X154874810Y-98432822D01*
X154869206Y-98466978D01*
X154859719Y-98492924D01*
X154845368Y-98517197D01*
X154841837Y-98522233D01*
X154804478Y-98561943D01*
X154761911Y-98591892D01*
X154740052Y-98601610D01*
X154661508Y-98617820D01*
X154583831Y-98607335D01*
X154512245Y-98571507D01*
X154451974Y-98511687D01*
X154446886Y-98503673D01*
X154430330Y-98457142D01*
X154419173Y-98392352D01*
X154413760Y-98317527D01*
X154414368Y-98248313D01*
X154560848Y-98248313D01*
X154562002Y-98344199D01*
X154562466Y-98350369D01*
X154569229Y-98403278D01*
X154581271Y-98436829D01*
X154601605Y-98459816D01*
X154635697Y-98481348D01*
X154669414Y-98482480D01*
X154704143Y-98457657D01*
X154710184Y-98451125D01*
X154722017Y-98431579D01*
X154729004Y-98403186D01*
X154732327Y-98359230D01*
X154733171Y-98292992D01*
X154731725Y-98230950D01*
X154724507Y-98171842D01*
X154709606Y-98134486D01*
X154685236Y-98114952D01*
X154649608Y-98109314D01*
X154636040Y-98110435D01*
X154598030Y-98130994D01*
X154572912Y-98177099D01*
X154560848Y-98248313D01*
X154414368Y-98248313D01*
X154414433Y-98240896D01*
X154421537Y-98170682D01*
X154435415Y-98115112D01*
X154453249Y-98078101D01*
X154503455Y-98020533D01*
X154571485Y-97984762D01*
X154654758Y-97972465D01*
X154676998Y-97973131D01*
X154742491Y-97986747D01*
X154796287Y-98021049D01*
X154845657Y-98080138D01*
X154848595Y-98084522D01*
X154861887Y-98108099D01*
X154870532Y-98134749D01*
X154875504Y-98170959D01*
X154877774Y-98223213D01*
X154878278Y-98292992D01*
X154878314Y-98298000D01*
X154878301Y-98313735D01*
G36*
X148752907Y-98354105D02*
G01*
X148749362Y-98430321D01*
X148740083Y-98486094D01*
X148722975Y-98527413D01*
X148695944Y-98560267D01*
X148656892Y-98590646D01*
X148632045Y-98604460D01*
X148592215Y-98613765D01*
X148536265Y-98613030D01*
X148504985Y-98610083D01*
X148467253Y-98601083D01*
X148437094Y-98581520D01*
X148402008Y-98545067D01*
X148397320Y-98539743D01*
X148365777Y-98498769D01*
X148350728Y-98463083D01*
X148346886Y-98420766D01*
X148346886Y-98358579D01*
X148390342Y-98374982D01*
X148422024Y-98394156D01*
X148449562Y-98439147D01*
X148455311Y-98453552D01*
X148487455Y-98494346D01*
X148531211Y-98514881D01*
X148578854Y-98513035D01*
X148622657Y-98486686D01*
X148637711Y-98470255D01*
X148651363Y-98445467D01*
X148647093Y-98422944D01*
X148622516Y-98399764D01*
X148575251Y-98373002D01*
X148502914Y-98339734D01*
X148354143Y-98274616D01*
X148350195Y-98210108D01*
X148351679Y-98169020D01*
X148448610Y-98169020D01*
X148455968Y-98194457D01*
X148489448Y-98221614D01*
X148550214Y-98252514D01*
X148560269Y-98256990D01*
X148608351Y-98277817D01*
X148644326Y-98292465D01*
X148661044Y-98298000D01*
X148663577Y-98293926D01*
X148664593Y-98269047D01*
X148660969Y-98229057D01*
X148651842Y-98189952D01*
X148623373Y-98140684D01*
X148582278Y-98112922D01*
X148533190Y-98109164D01*
X148480744Y-98131909D01*
X148466209Y-98143281D01*
X148448610Y-98169020D01*
X148351679Y-98169020D01*
X148351938Y-98161864D01*
X148373881Y-98100896D01*
X148401579Y-98067297D01*
X148459005Y-98029766D01*
X148527127Y-98010806D01*
X148597547Y-98012307D01*
X148661867Y-98036155D01*
X148676026Y-98045313D01*
X148708504Y-98073649D01*
X148730716Y-98109495D01*
X148744404Y-98158184D01*
X148751315Y-98225049D01*
X148752228Y-98269047D01*
X148753190Y-98315422D01*
X148752907Y-98354105D01*
G37*
X148752907Y-98354105D02*
X148749362Y-98430321D01*
X148740083Y-98486094D01*
X148722975Y-98527413D01*
X148695944Y-98560267D01*
X148656892Y-98590646D01*
X148632045Y-98604460D01*
X148592215Y-98613765D01*
X148536265Y-98613030D01*
X148504985Y-98610083D01*
X148467253Y-98601083D01*
X148437094Y-98581520D01*
X148402008Y-98545067D01*
X148397320Y-98539743D01*
X148365777Y-98498769D01*
X148350728Y-98463083D01*
X148346886Y-98420766D01*
X148346886Y-98358579D01*
X148390342Y-98374982D01*
X148422024Y-98394156D01*
X148449562Y-98439147D01*
X148455311Y-98453552D01*
X148487455Y-98494346D01*
X148531211Y-98514881D01*
X148578854Y-98513035D01*
X148622657Y-98486686D01*
X148637711Y-98470255D01*
X148651363Y-98445467D01*
X148647093Y-98422944D01*
X148622516Y-98399764D01*
X148575251Y-98373002D01*
X148502914Y-98339734D01*
X148354143Y-98274616D01*
X148350195Y-98210108D01*
X148351679Y-98169020D01*
X148448610Y-98169020D01*
X148455968Y-98194457D01*
X148489448Y-98221614D01*
X148550214Y-98252514D01*
X148560269Y-98256990D01*
X148608351Y-98277817D01*
X148644326Y-98292465D01*
X148661044Y-98298000D01*
X148663577Y-98293926D01*
X148664593Y-98269047D01*
X148660969Y-98229057D01*
X148651842Y-98189952D01*
X148623373Y-98140684D01*
X148582278Y-98112922D01*
X148533190Y-98109164D01*
X148480744Y-98131909D01*
X148466209Y-98143281D01*
X148448610Y-98169020D01*
X148351679Y-98169020D01*
X148351938Y-98161864D01*
X148373881Y-98100896D01*
X148401579Y-98067297D01*
X148459005Y-98029766D01*
X148527127Y-98010806D01*
X148597547Y-98012307D01*
X148661867Y-98036155D01*
X148676026Y-98045313D01*
X148708504Y-98073649D01*
X148730716Y-98109495D01*
X148744404Y-98158184D01*
X148751315Y-98225049D01*
X148752228Y-98269047D01*
X148753190Y-98315422D01*
X148752907Y-98354105D01*
G36*
X153043620Y-97980622D02*
G01*
X153111410Y-98012480D01*
X153166966Y-98067570D01*
X153178481Y-98084816D01*
X153188032Y-98104362D01*
X153194806Y-98128998D01*
X153199419Y-98163511D01*
X153202488Y-98212689D01*
X153204629Y-98281319D01*
X153206459Y-98374189D01*
X153211004Y-98631807D01*
X153172825Y-98617291D01*
X153137868Y-98603956D01*
X153111697Y-98591123D01*
X153094613Y-98574580D01*
X153084686Y-98549265D01*
X153079986Y-98510116D01*
X153078582Y-98452068D01*
X153078543Y-98370061D01*
X153078344Y-98304695D01*
X153077159Y-98241973D01*
X153074329Y-98199134D01*
X153069209Y-98171020D01*
X153061153Y-98152475D01*
X153049514Y-98138343D01*
X153020903Y-98118400D01*
X152972839Y-98110883D01*
X152925288Y-98129879D01*
X152922150Y-98132311D01*
X152912369Y-98143548D01*
X152905153Y-98161570D01*
X152899899Y-98190826D01*
X152896002Y-98235762D01*
X152892856Y-98300828D01*
X152889857Y-98390470D01*
X152882600Y-98630497D01*
X152820914Y-98602844D01*
X152759229Y-98575191D01*
X152759229Y-98356046D01*
X152759484Y-98296511D01*
X152761686Y-98213692D01*
X152767261Y-98152027D01*
X152777541Y-98106548D01*
X152793858Y-98072284D01*
X152817543Y-98044266D01*
X152849928Y-98017523D01*
X152896507Y-97990580D01*
X152969887Y-97972991D01*
X153043620Y-97980622D01*
G37*
X153043620Y-97980622D02*
X153111410Y-98012480D01*
X153166966Y-98067570D01*
X153178481Y-98084816D01*
X153188032Y-98104362D01*
X153194806Y-98128998D01*
X153199419Y-98163511D01*
X153202488Y-98212689D01*
X153204629Y-98281319D01*
X153206459Y-98374189D01*
X153211004Y-98631807D01*
X153172825Y-98617291D01*
X153137868Y-98603956D01*
X153111697Y-98591123D01*
X153094613Y-98574580D01*
X153084686Y-98549265D01*
X153079986Y-98510116D01*
X153078582Y-98452068D01*
X153078543Y-98370061D01*
X153078344Y-98304695D01*
X153077159Y-98241973D01*
X153074329Y-98199134D01*
X153069209Y-98171020D01*
X153061153Y-98152475D01*
X153049514Y-98138343D01*
X153020903Y-98118400D01*
X152972839Y-98110883D01*
X152925288Y-98129879D01*
X152922150Y-98132311D01*
X152912369Y-98143548D01*
X152905153Y-98161570D01*
X152899899Y-98190826D01*
X152896002Y-98235762D01*
X152892856Y-98300828D01*
X152889857Y-98390470D01*
X152882600Y-98630497D01*
X152820914Y-98602844D01*
X152759229Y-98575191D01*
X152759229Y-98356046D01*
X152759484Y-98296511D01*
X152761686Y-98213692D01*
X152767261Y-98152027D01*
X152777541Y-98106548D01*
X152793858Y-98072284D01*
X152817543Y-98044266D01*
X152849928Y-98017523D01*
X152896507Y-97990580D01*
X152969887Y-97972991D01*
X153043620Y-97980622D01*
G36*
X149095429Y-98013897D02*
G01*
X149155353Y-98036155D01*
X149180273Y-98052880D01*
X149205510Y-98076843D01*
X149223512Y-98107326D01*
X149235458Y-98148823D01*
X149242530Y-98205832D01*
X149245908Y-98282847D01*
X149246771Y-98384365D01*
X149246602Y-98436827D01*
X149245753Y-98508515D01*
X149244311Y-98565725D01*
X149242414Y-98603609D01*
X149240197Y-98617314D01*
X149225772Y-98612781D01*
X149196654Y-98600470D01*
X149195781Y-98600072D01*
X149180660Y-98592156D01*
X149170491Y-98581295D01*
X149164291Y-98562271D01*
X149161078Y-98529869D01*
X149159870Y-98478871D01*
X149159686Y-98404061D01*
X149159314Y-98356604D01*
X149155350Y-98267415D01*
X149146273Y-98202087D01*
X149131124Y-98157193D01*
X149108945Y-98129307D01*
X149078775Y-98115003D01*
X149074590Y-98114006D01*
X149018080Y-98113227D01*
X148974010Y-98138544D01*
X148943572Y-98189302D01*
X148938144Y-98203975D01*
X148925771Y-98236449D01*
X148919505Y-98251372D01*
X148906636Y-98249316D01*
X148878533Y-98238157D01*
X148852321Y-98219727D01*
X148840371Y-98184898D01*
X148843936Y-98159951D01*
X148865835Y-98109347D01*
X148901244Y-98061928D01*
X148942652Y-98029134D01*
X148960000Y-98021552D01*
X149025689Y-98008876D01*
X149095429Y-98013897D01*
G37*
X149095429Y-98013897D02*
X149155353Y-98036155D01*
X149180273Y-98052880D01*
X149205510Y-98076843D01*
X149223512Y-98107326D01*
X149235458Y-98148823D01*
X149242530Y-98205832D01*
X149245908Y-98282847D01*
X149246771Y-98384365D01*
X149246602Y-98436827D01*
X149245753Y-98508515D01*
X149244311Y-98565725D01*
X149242414Y-98603609D01*
X149240197Y-98617314D01*
X149225772Y-98612781D01*
X149196654Y-98600470D01*
X149195781Y-98600072D01*
X149180660Y-98592156D01*
X149170491Y-98581295D01*
X149164291Y-98562271D01*
X149161078Y-98529869D01*
X149159870Y-98478871D01*
X149159686Y-98404061D01*
X149159314Y-98356604D01*
X149155350Y-98267415D01*
X149146273Y-98202087D01*
X149131124Y-98157193D01*
X149108945Y-98129307D01*
X149078775Y-98115003D01*
X149074590Y-98114006D01*
X149018080Y-98113227D01*
X148974010Y-98138544D01*
X148943572Y-98189302D01*
X148938144Y-98203975D01*
X148925771Y-98236449D01*
X148919505Y-98251372D01*
X148906636Y-98249316D01*
X148878533Y-98238157D01*
X148852321Y-98219727D01*
X148840371Y-98184898D01*
X148843936Y-98159951D01*
X148865835Y-98109347D01*
X148901244Y-98061928D01*
X148942652Y-98029134D01*
X148960000Y-98021552D01*
X149025689Y-98008876D01*
X149095429Y-98013897D01*
G36*
X150842137Y-98369113D02*
G01*
X150833945Y-98446262D01*
X150816119Y-98504076D01*
X150786575Y-98548222D01*
X150743225Y-98584368D01*
X150701932Y-98605263D01*
X150632587Y-98616890D01*
X150563336Y-98604177D01*
X150500745Y-98568745D01*
X150451379Y-98512218D01*
X150445418Y-98501795D01*
X150437545Y-98483533D01*
X150431706Y-98460229D01*
X150427599Y-98427885D01*
X150424925Y-98382504D01*
X150423381Y-98320087D01*
X150423334Y-98314548D01*
X150524029Y-98314548D01*
X150524372Y-98367377D01*
X150526542Y-98415162D01*
X150531907Y-98446009D01*
X150541817Y-98466735D01*
X150557621Y-98484156D01*
X150561324Y-98487505D01*
X150608899Y-98512219D01*
X150659235Y-98509690D01*
X150706117Y-98480088D01*
X150720077Y-98464753D01*
X150731760Y-98444422D01*
X150738286Y-98416314D01*
X150741124Y-98373350D01*
X150741743Y-98308447D01*
X150741437Y-98258922D01*
X150739322Y-98210582D01*
X150733990Y-98179387D01*
X150724060Y-98158447D01*
X150708150Y-98140873D01*
X150698804Y-98132959D01*
X150650376Y-98111643D01*
X150599640Y-98114998D01*
X150555587Y-98142907D01*
X150546104Y-98153973D01*
X150534539Y-98174809D01*
X150527852Y-98203906D01*
X150524773Y-98248181D01*
X150524029Y-98314548D01*
X150423334Y-98314548D01*
X150422667Y-98236637D01*
X150422483Y-98128158D01*
X150422429Y-97791401D01*
X150469600Y-97811162D01*
X150482072Y-97816570D01*
X150501924Y-97828785D01*
X150513287Y-97847282D01*
X150519533Y-97879629D01*
X150524029Y-97933393D01*
X150528135Y-97981666D01*
X150533563Y-98013357D01*
X150541339Y-98025183D01*
X150553057Y-98022012D01*
X150582918Y-98010867D01*
X150636284Y-98008104D01*
X150693693Y-98018425D01*
X150743225Y-98040661D01*
X150770476Y-98061243D01*
X150805465Y-98101400D01*
X150827874Y-98152886D01*
X150839790Y-98221368D01*
X150843142Y-98308447D01*
X150843298Y-98312514D01*
X150842137Y-98369113D01*
G37*
X150842137Y-98369113D02*
X150833945Y-98446262D01*
X150816119Y-98504076D01*
X150786575Y-98548222D01*
X150743225Y-98584368D01*
X150701932Y-98605263D01*
X150632587Y-98616890D01*
X150563336Y-98604177D01*
X150500745Y-98568745D01*
X150451379Y-98512218D01*
X150445418Y-98501795D01*
X150437545Y-98483533D01*
X150431706Y-98460229D01*
X150427599Y-98427885D01*
X150424925Y-98382504D01*
X150423381Y-98320087D01*
X150423334Y-98314548D01*
X150524029Y-98314548D01*
X150524372Y-98367377D01*
X150526542Y-98415162D01*
X150531907Y-98446009D01*
X150541817Y-98466735D01*
X150557621Y-98484156D01*
X150561324Y-98487505D01*
X150608899Y-98512219D01*
X150659235Y-98509690D01*
X150706117Y-98480088D01*
X150720077Y-98464753D01*
X150731760Y-98444422D01*
X150738286Y-98416314D01*
X150741124Y-98373350D01*
X150741743Y-98308447D01*
X150741437Y-98258922D01*
X150739322Y-98210582D01*
X150733990Y-98179387D01*
X150724060Y-98158447D01*
X150708150Y-98140873D01*
X150698804Y-98132959D01*
X150650376Y-98111643D01*
X150599640Y-98114998D01*
X150555587Y-98142907D01*
X150546104Y-98153973D01*
X150534539Y-98174809D01*
X150527852Y-98203906D01*
X150524773Y-98248181D01*
X150524029Y-98314548D01*
X150423334Y-98314548D01*
X150422667Y-98236637D01*
X150422483Y-98128158D01*
X150422429Y-97791401D01*
X150469600Y-97811162D01*
X150482072Y-97816570D01*
X150501924Y-97828785D01*
X150513287Y-97847282D01*
X150519533Y-97879629D01*
X150524029Y-97933393D01*
X150528135Y-97981666D01*
X150533563Y-98013357D01*
X150541339Y-98025183D01*
X150553057Y-98022012D01*
X150582918Y-98010867D01*
X150636284Y-98008104D01*
X150693693Y-98018425D01*
X150743225Y-98040661D01*
X150770476Y-98061243D01*
X150805465Y-98101400D01*
X150827874Y-98152886D01*
X150839790Y-98221368D01*
X150843142Y-98308447D01*
X150843298Y-98312514D01*
X150842137Y-98369113D01*
G36*
X152291143Y-97812244D02*
G01*
X152338314Y-97832142D01*
X152338314Y-98229309D01*
X152338119Y-98332298D01*
X152337598Y-98424941D01*
X152336799Y-98503500D01*
X152335772Y-98564239D01*
X152334563Y-98603423D01*
X152333223Y-98617314D01*
X152332699Y-98617268D01*
X152314887Y-98612220D01*
X152282423Y-98601380D01*
X152236714Y-98585446D01*
X152236714Y-98380973D01*
X152236424Y-98300632D01*
X152235074Y-98242362D01*
X152231969Y-98202709D01*
X152226412Y-98176418D01*
X152217707Y-98158236D01*
X152205156Y-98142907D01*
X152196599Y-98134755D01*
X152150328Y-98112175D01*
X152099328Y-98114175D01*
X152052593Y-98140873D01*
X152045789Y-98147498D01*
X152034893Y-98161256D01*
X152027436Y-98179442D01*
X152022769Y-98206977D01*
X152020242Y-98248781D01*
X152019202Y-98309773D01*
X152019000Y-98394873D01*
X152018903Y-98438034D01*
X152018274Y-98509024D01*
X152017156Y-98565876D01*
X152015663Y-98603628D01*
X152013909Y-98617314D01*
X152013385Y-98617268D01*
X151995573Y-98612220D01*
X151963109Y-98601380D01*
X151917400Y-98585446D01*
X151917423Y-98380037D01*
X151917457Y-98361751D01*
X151919378Y-98266426D01*
X151925278Y-98194343D01*
X151936601Y-98140613D01*
X151954787Y-98100349D01*
X151981279Y-98068661D01*
X152017518Y-98040661D01*
X152052863Y-98023133D01*
X152109373Y-98009585D01*
X152164956Y-98008815D01*
X152207686Y-98021995D01*
X152210898Y-98023815D01*
X152220805Y-98023620D01*
X152227575Y-98008372D01*
X152232461Y-97973413D01*
X152236714Y-97914089D01*
X152243971Y-97792347D01*
X152291143Y-97812244D01*
G37*
X152291143Y-97812244D02*
X152338314Y-97832142D01*
X152338314Y-98229309D01*
X152338119Y-98332298D01*
X152337598Y-98424941D01*
X152336799Y-98503500D01*
X152335772Y-98564239D01*
X152334563Y-98603423D01*
X152333223Y-98617314D01*
X152332699Y-98617268D01*
X152314887Y-98612220D01*
X152282423Y-98601380D01*
X152236714Y-98585446D01*
X152236714Y-98380973D01*
X152236424Y-98300632D01*
X152235074Y-98242362D01*
X152231969Y-98202709D01*
X152226412Y-98176418D01*
X152217707Y-98158236D01*
X152205156Y-98142907D01*
X152196599Y-98134755D01*
X152150328Y-98112175D01*
X152099328Y-98114175D01*
X152052593Y-98140873D01*
X152045789Y-98147498D01*
X152034893Y-98161256D01*
X152027436Y-98179442D01*
X152022769Y-98206977D01*
X152020242Y-98248781D01*
X152019202Y-98309773D01*
X152019000Y-98394873D01*
X152018903Y-98438034D01*
X152018274Y-98509024D01*
X152017156Y-98565876D01*
X152015663Y-98603628D01*
X152013909Y-98617314D01*
X152013385Y-98617268D01*
X151995573Y-98612220D01*
X151963109Y-98601380D01*
X151917400Y-98585446D01*
X151917423Y-98380037D01*
X151917457Y-98361751D01*
X151919378Y-98266426D01*
X151925278Y-98194343D01*
X151936601Y-98140613D01*
X151954787Y-98100349D01*
X151981279Y-98068661D01*
X152017518Y-98040661D01*
X152052863Y-98023133D01*
X152109373Y-98009585D01*
X152164956Y-98008815D01*
X152207686Y-98021995D01*
X152210898Y-98023815D01*
X152220805Y-98023620D01*
X152227575Y-98008372D01*
X152232461Y-97973413D01*
X152236714Y-97914089D01*
X152243971Y-97792347D01*
X152291143Y-97812244D01*
G36*
X151702083Y-98023369D02*
G01*
X151751976Y-98052461D01*
X151773925Y-98075127D01*
X151816104Y-98142882D01*
X151830314Y-98216750D01*
X151830314Y-98267570D01*
X151783599Y-98247928D01*
X151751292Y-98228108D01*
X151725831Y-98186960D01*
X151723216Y-98178475D01*
X151695078Y-98135251D01*
X151652667Y-98111903D01*
X151603970Y-98110900D01*
X151556973Y-98134714D01*
X151549957Y-98140856D01*
X151526493Y-98167545D01*
X151522619Y-98190814D01*
X151540368Y-98213662D01*
X151581779Y-98239087D01*
X151648886Y-98270088D01*
X151653424Y-98272052D01*
X151727922Y-98306790D01*
X151778803Y-98337563D01*
X151810125Y-98368288D01*
X151825943Y-98402882D01*
X151830314Y-98445262D01*
X151824586Y-98492246D01*
X151795662Y-98552385D01*
X151744778Y-98595588D01*
X151707974Y-98608559D01*
X151656034Y-98615656D01*
X151605599Y-98614140D01*
X151569583Y-98603432D01*
X151565758Y-98600766D01*
X151555598Y-98582137D01*
X151562648Y-98549305D01*
X151574897Y-98523535D01*
X151594539Y-98512806D01*
X151631791Y-98513339D01*
X151683508Y-98510262D01*
X151717301Y-98489012D01*
X151728714Y-98449677D01*
X151728704Y-98448547D01*
X151721787Y-98425713D01*
X151698259Y-98404763D01*
X151652514Y-98380615D01*
X151590304Y-98351541D01*
X151549099Y-98335725D01*
X151525312Y-98336744D01*
X151514197Y-98357637D01*
X151511008Y-98401441D01*
X151511000Y-98471193D01*
X151510644Y-98514252D01*
X151509013Y-98567426D01*
X151506361Y-98603822D01*
X151503022Y-98617314D01*
X151502130Y-98617223D01*
X151482837Y-98609910D01*
X151450884Y-98594478D01*
X151406724Y-98571642D01*
X151411971Y-98365878D01*
X151412336Y-98352232D01*
X151416504Y-98256451D01*
X151423868Y-98184262D01*
X151435930Y-98130858D01*
X151454193Y-98091433D01*
X151480160Y-98061180D01*
X151515333Y-98035293D01*
X151515984Y-98034887D01*
X151572856Y-98013768D01*
X151638633Y-98010200D01*
X151702083Y-98023369D01*
G37*
X151702083Y-98023369D02*
X151751976Y-98052461D01*
X151773925Y-98075127D01*
X151816104Y-98142882D01*
X151830314Y-98216750D01*
X151830314Y-98267570D01*
X151783599Y-98247928D01*
X151751292Y-98228108D01*
X151725831Y-98186960D01*
X151723216Y-98178475D01*
X151695078Y-98135251D01*
X151652667Y-98111903D01*
X151603970Y-98110900D01*
X151556973Y-98134714D01*
X151549957Y-98140856D01*
X151526493Y-98167545D01*
X151522619Y-98190814D01*
X151540368Y-98213662D01*
X151581779Y-98239087D01*
X151648886Y-98270088D01*
X151653424Y-98272052D01*
X151727922Y-98306790D01*
X151778803Y-98337563D01*
X151810125Y-98368288D01*
X151825943Y-98402882D01*
X151830314Y-98445262D01*
X151824586Y-98492246D01*
X151795662Y-98552385D01*
X151744778Y-98595588D01*
X151707974Y-98608559D01*
X151656034Y-98615656D01*
X151605599Y-98614140D01*
X151569583Y-98603432D01*
X151565758Y-98600766D01*
X151555598Y-98582137D01*
X151562648Y-98549305D01*
X151574897Y-98523535D01*
X151594539Y-98512806D01*
X151631791Y-98513339D01*
X151683508Y-98510262D01*
X151717301Y-98489012D01*
X151728714Y-98449677D01*
X151728704Y-98448547D01*
X151721787Y-98425713D01*
X151698259Y-98404763D01*
X151652514Y-98380615D01*
X151590304Y-98351541D01*
X151549099Y-98335725D01*
X151525312Y-98336744D01*
X151514197Y-98357637D01*
X151511008Y-98401441D01*
X151511000Y-98471193D01*
X151510644Y-98514252D01*
X151509013Y-98567426D01*
X151506361Y-98603822D01*
X151503022Y-98617314D01*
X151502130Y-98617223D01*
X151482837Y-98609910D01*
X151450884Y-98594478D01*
X151406724Y-98571642D01*
X151411971Y-98365878D01*
X151412336Y-98352232D01*
X151416504Y-98256451D01*
X151423868Y-98184262D01*
X151435930Y-98130858D01*
X151454193Y-98091433D01*
X151480160Y-98061180D01*
X151515333Y-98035293D01*
X151515984Y-98034887D01*
X151572856Y-98013768D01*
X151638633Y-98010200D01*
X151702083Y-98023369D01*
G36*
X151726533Y-93305171D02*
G01*
X151802456Y-93305665D01*
X151857091Y-93306935D01*
X151894100Y-93309347D01*
X151917147Y-93313267D01*
X151929896Y-93319062D01*
X151936011Y-93327099D01*
X151939156Y-93337743D01*
X151939246Y-93338125D01*
X151944414Y-93363147D01*
X151953809Y-93411481D01*
X151966467Y-93478060D01*
X151981425Y-93557814D01*
X151997719Y-93645675D01*
X151999048Y-93652864D01*
X152015291Y-93738140D01*
X152030405Y-93813042D01*
X152043408Y-93873019D01*
X152053315Y-93913517D01*
X152059144Y-93929984D01*
X152059175Y-93930010D01*
X152077543Y-93939120D01*
X152115240Y-93954257D01*
X152164143Y-93972158D01*
X152166897Y-93973130D01*
X152229417Y-93996759D01*
X152302143Y-94026395D01*
X152369894Y-94055862D01*
X152481303Y-94106426D01*
X152727999Y-93937960D01*
X152745375Y-93926111D01*
X152819802Y-93875747D01*
X152886214Y-93831412D01*
X152940639Y-93795716D01*
X152979106Y-93771271D01*
X152997642Y-93760689D01*
X153010343Y-93763115D01*
X153039179Y-93781910D01*
X153083743Y-93819130D01*
X153145270Y-93875820D01*
X153224998Y-93953027D01*
X153232132Y-93960055D01*
X153295396Y-94023022D01*
X153351590Y-94080068D01*
X153397277Y-94127617D01*
X153429014Y-94162097D01*
X153443364Y-94179931D01*
X153443410Y-94180017D01*
X153445233Y-94193595D01*
X153438510Y-94215620D01*
X153421546Y-94249104D01*
X153392644Y-94297061D01*
X153350108Y-94362504D01*
X153292244Y-94448445D01*
X153282383Y-94462951D01*
X153232513Y-94536435D01*
X153188505Y-94601487D01*
X153152980Y-94654217D01*
X153128559Y-94690736D01*
X153117864Y-94707156D01*
X153117058Y-94710634D01*
X153122118Y-94736585D01*
X153137277Y-94778959D01*
X153160063Y-94830528D01*
X153191029Y-94897970D01*
X153225604Y-94977995D01*
X153254966Y-95050429D01*
X153262245Y-95069177D01*
X153281310Y-95117046D01*
X153295315Y-95150396D01*
X153301641Y-95162914D01*
X153308625Y-95163850D01*
X153340013Y-95169261D01*
X153391387Y-95178606D01*
X153457402Y-95190869D01*
X153532713Y-95205032D01*
X153611975Y-95220080D01*
X153689843Y-95234995D01*
X153760970Y-95248761D01*
X153820012Y-95260362D01*
X153861622Y-95268780D01*
X153880457Y-95272999D01*
X153883580Y-95274189D01*
X153891191Y-95280605D01*
X153896854Y-95294265D01*
X153900851Y-95318799D01*
X153903466Y-95357838D01*
X153904984Y-95415013D01*
X153905686Y-95493954D01*
X153905857Y-95598292D01*
X153905857Y-95915599D01*
X153829657Y-95930639D01*
X153820440Y-95932442D01*
X153771491Y-95941780D01*
X153703805Y-95954469D01*
X153625078Y-95969073D01*
X153543000Y-95984155D01*
X153510678Y-95990222D01*
X153438455Y-96004981D01*
X153378266Y-96018937D01*
X153335640Y-96030752D01*
X153316110Y-96039087D01*
X153307260Y-96052705D01*
X153291148Y-96088738D01*
X153274665Y-96135372D01*
X153268863Y-96152834D01*
X153247506Y-96210158D01*
X153219959Y-96278001D01*
X153190707Y-96345155D01*
X153175063Y-96380230D01*
X153152774Y-96432622D01*
X153137457Y-96471858D01*
X153131762Y-96491363D01*
X153132078Y-96492836D01*
X153142881Y-96513529D01*
X153167238Y-96553465D01*
X153202681Y-96608772D01*
X153246736Y-96675581D01*
X153296932Y-96750020D01*
X153462101Y-96992423D01*
X153245103Y-97209783D01*
X153224116Y-97230699D01*
X153159942Y-97293305D01*
X153102590Y-97347295D01*
X153055420Y-97389626D01*
X153021792Y-97417257D01*
X153005067Y-97427143D01*
X152986903Y-97419621D01*
X152948865Y-97398027D01*
X152895326Y-97364951D01*
X152830484Y-97322991D01*
X152758540Y-97274743D01*
X152687875Y-97227091D01*
X152624126Y-97185128D01*
X152572113Y-97151965D01*
X152535879Y-97130178D01*
X152519467Y-97122343D01*
X152518505Y-97122414D01*
X152496703Y-97130138D01*
X152458040Y-97148123D01*
X152410212Y-97172813D01*
X152409710Y-97173084D01*
X152346187Y-97204899D01*
X152302660Y-97220442D01*
X152275652Y-97220485D01*
X152261690Y-97205800D01*
X152255780Y-97191344D01*
X152239829Y-97152631D01*
X152215260Y-97093116D01*
X152183379Y-97015965D01*
X152145493Y-96924341D01*
X152102910Y-96821407D01*
X152056937Y-96710326D01*
X152015267Y-96609272D01*
X151972868Y-96505580D01*
X151935356Y-96412919D01*
X151903988Y-96334442D01*
X151880025Y-96273300D01*
X151864723Y-96232643D01*
X151859343Y-96215625D01*
X151869618Y-96200019D01*
X151898163Y-96173962D01*
X151938571Y-96143687D01*
X152035579Y-96064484D01*
X152122393Y-95963275D01*
X152185922Y-95851916D01*
X152225777Y-95733693D01*
X152241565Y-95611895D01*
X152232896Y-95489810D01*
X152199378Y-95370725D01*
X152140621Y-95257929D01*
X152056232Y-95154711D01*
X152012231Y-95114513D01*
X151906811Y-95043438D01*
X151794010Y-94997101D01*
X151677125Y-94974399D01*
X151559453Y-94974228D01*
X151444290Y-94995487D01*
X151334935Y-95037070D01*
X151234683Y-95097876D01*
X151146833Y-95176801D01*
X151074680Y-95272741D01*
X151021522Y-95384595D01*
X150990657Y-95511257D01*
X150984992Y-95572307D01*
X150992785Y-95704576D01*
X151027884Y-95830066D01*
X151089249Y-95946559D01*
X151175843Y-96051839D01*
X151286629Y-96143687D01*
X151325531Y-96172730D01*
X151354704Y-96199072D01*
X151365857Y-96215600D01*
X151361410Y-96230009D01*
X151346978Y-96268615D01*
X151323773Y-96328001D01*
X151293052Y-96405015D01*
X151256074Y-96496503D01*
X151214096Y-96599316D01*
X151168378Y-96710302D01*
X151126778Y-96810872D01*
X151083822Y-96914747D01*
X151045429Y-97007619D01*
X151012905Y-97086325D01*
X150987558Y-97147699D01*
X150970695Y-97188579D01*
X150963625Y-97205800D01*
X150963543Y-97206004D01*
X150949398Y-97220545D01*
X150922259Y-97220379D01*
X150878623Y-97204727D01*
X150814988Y-97172813D01*
X150809979Y-97170126D01*
X150762725Y-97145950D01*
X150725411Y-97128837D01*
X150705733Y-97122343D01*
X150689605Y-97130018D01*
X150653559Y-97151671D01*
X150601692Y-97184728D01*
X150538045Y-97226610D01*
X150466660Y-97274743D01*
X150396324Y-97321931D01*
X150331270Y-97364067D01*
X150277420Y-97397378D01*
X150238974Y-97419269D01*
X150220134Y-97427143D01*
X150216925Y-97426143D01*
X150194554Y-97410384D01*
X150156333Y-97377833D01*
X150105621Y-97331533D01*
X150045781Y-97274526D01*
X149980171Y-97209858D01*
X149763248Y-96992572D01*
X149932201Y-96744053D01*
X150101153Y-96495533D01*
X150049783Y-96384395D01*
X150049631Y-96384066D01*
X150018783Y-96313218D01*
X149987261Y-96234323D01*
X149961866Y-96164400D01*
X149958023Y-96153122D01*
X149938647Y-96100767D01*
X149921174Y-96060083D01*
X149908988Y-96039087D01*
X149904026Y-96036122D01*
X149874234Y-96026175D01*
X149823647Y-96013305D01*
X149757794Y-95998853D01*
X149682200Y-95984155D01*
X149659557Y-95980010D01*
X149577638Y-95964916D01*
X149501200Y-95950699D01*
X149437937Y-95938795D01*
X149395543Y-95930639D01*
X149319343Y-95915599D01*
X149319343Y-95598292D01*
X149319360Y-95559276D01*
X149319682Y-95464092D01*
X149320633Y-95393055D01*
X149322496Y-95342534D01*
X149325555Y-95308898D01*
X149330094Y-95288518D01*
X149336395Y-95277762D01*
X149344743Y-95272999D01*
X149352824Y-95271070D01*
X149385772Y-95264245D01*
X149438336Y-95253822D01*
X149505169Y-95240818D01*
X149580928Y-95226249D01*
X149660265Y-95211133D01*
X149737837Y-95196485D01*
X149808298Y-95183323D01*
X149866302Y-95172663D01*
X149906504Y-95165521D01*
X149923559Y-95162914D01*
X149924712Y-95161341D01*
X149933985Y-95140919D01*
X149950032Y-95101845D01*
X149970235Y-95050429D01*
X149998272Y-94981153D01*
X150032786Y-94901090D01*
X150065138Y-94830528D01*
X150072552Y-94814689D01*
X150093355Y-94765093D01*
X150105819Y-94726838D01*
X150107463Y-94707156D01*
X150106615Y-94705762D01*
X150093148Y-94685220D01*
X150066450Y-94645316D01*
X150029139Y-94589940D01*
X149983834Y-94522977D01*
X149933152Y-94448317D01*
X149876045Y-94363492D01*
X149833207Y-94297600D01*
X149804060Y-94249278D01*
X149786917Y-94215533D01*
X149780095Y-94193372D01*
X149781906Y-94179802D01*
X149782515Y-94178784D01*
X149798897Y-94159010D01*
X149832295Y-94122975D01*
X149879271Y-94074251D01*
X149936386Y-94016412D01*
X150000203Y-93953027D01*
X150066402Y-93888705D01*
X150131248Y-93828247D01*
X150178899Y-93787455D01*
X150210590Y-93765284D01*
X150227558Y-93760689D01*
X150229775Y-93761721D01*
X150253124Y-93775637D01*
X150295512Y-93802830D01*
X150352969Y-93840689D01*
X150421523Y-93886603D01*
X150497201Y-93937960D01*
X150743898Y-94106426D01*
X150855306Y-94055862D01*
X150858543Y-94054397D01*
X150926943Y-94024765D01*
X150999507Y-93995293D01*
X151061057Y-93972158D01*
X151061329Y-93972062D01*
X151110195Y-93954167D01*
X151147812Y-93939053D01*
X151166057Y-93929984D01*
X151166352Y-93929655D01*
X151172546Y-93911082D01*
X151182739Y-93868845D01*
X151195948Y-93807496D01*
X151211190Y-93731589D01*
X151227481Y-93645675D01*
X151228049Y-93642596D01*
X151244313Y-93554928D01*
X151259208Y-93475541D01*
X151271771Y-93409501D01*
X151281038Y-93361879D01*
X151286044Y-93337743D01*
X151286364Y-93336405D01*
X151289660Y-93326073D01*
X151296338Y-93318306D01*
X151310062Y-93312740D01*
X151334495Y-93309007D01*
X151373302Y-93306742D01*
X151430146Y-93305578D01*
X151508690Y-93305148D01*
X151612600Y-93305086D01*
X151625656Y-93305086D01*
X151726533Y-93305171D01*
G37*
X151726533Y-93305171D02*
X151802456Y-93305665D01*
X151857091Y-93306935D01*
X151894100Y-93309347D01*
X151917147Y-93313267D01*
X151929896Y-93319062D01*
X151936011Y-93327099D01*
X151939156Y-93337743D01*
X151939246Y-93338125D01*
X151944414Y-93363147D01*
X151953809Y-93411481D01*
X151966467Y-93478060D01*
X151981425Y-93557814D01*
X151997719Y-93645675D01*
X151999048Y-93652864D01*
X152015291Y-93738140D01*
X152030405Y-93813042D01*
X152043408Y-93873019D01*
X152053315Y-93913517D01*
X152059144Y-93929984D01*
X152059175Y-93930010D01*
X152077543Y-93939120D01*
X152115240Y-93954257D01*
X152164143Y-93972158D01*
X152166897Y-93973130D01*
X152229417Y-93996759D01*
X152302143Y-94026395D01*
X152369894Y-94055862D01*
X152481303Y-94106426D01*
X152727999Y-93937960D01*
X152745375Y-93926111D01*
X152819802Y-93875747D01*
X152886214Y-93831412D01*
X152940639Y-93795716D01*
X152979106Y-93771271D01*
X152997642Y-93760689D01*
X153010343Y-93763115D01*
X153039179Y-93781910D01*
X153083743Y-93819130D01*
X153145270Y-93875820D01*
X153224998Y-93953027D01*
X153232132Y-93960055D01*
X153295396Y-94023022D01*
X153351590Y-94080068D01*
X153397277Y-94127617D01*
X153429014Y-94162097D01*
X153443364Y-94179931D01*
X153443410Y-94180017D01*
X153445233Y-94193595D01*
X153438510Y-94215620D01*
X153421546Y-94249104D01*
X153392644Y-94297061D01*
X153350108Y-94362504D01*
X153292244Y-94448445D01*
X153282383Y-94462951D01*
X153232513Y-94536435D01*
X153188505Y-94601487D01*
X153152980Y-94654217D01*
X153128559Y-94690736D01*
X153117864Y-94707156D01*
X153117058Y-94710634D01*
X153122118Y-94736585D01*
X153137277Y-94778959D01*
X153160063Y-94830528D01*
X153191029Y-94897970D01*
X153225604Y-94977995D01*
X153254966Y-95050429D01*
X153262245Y-95069177D01*
X153281310Y-95117046D01*
X153295315Y-95150396D01*
X153301641Y-95162914D01*
X153308625Y-95163850D01*
X153340013Y-95169261D01*
X153391387Y-95178606D01*
X153457402Y-95190869D01*
X153532713Y-95205032D01*
X153611975Y-95220080D01*
X153689843Y-95234995D01*
X153760970Y-95248761D01*
X153820012Y-95260362D01*
X153861622Y-95268780D01*
X153880457Y-95272999D01*
X153883580Y-95274189D01*
X153891191Y-95280605D01*
X153896854Y-95294265D01*
X153900851Y-95318799D01*
X153903466Y-95357838D01*
X153904984Y-95415013D01*
X153905686Y-95493954D01*
X153905857Y-95598292D01*
X153905857Y-95915599D01*
X153829657Y-95930639D01*
X153820440Y-95932442D01*
X153771491Y-95941780D01*
X153703805Y-95954469D01*
X153625078Y-95969073D01*
X153543000Y-95984155D01*
X153510678Y-95990222D01*
X153438455Y-96004981D01*
X153378266Y-96018937D01*
X153335640Y-96030752D01*
X153316110Y-96039087D01*
X153307260Y-96052705D01*
X153291148Y-96088738D01*
X153274665Y-96135372D01*
X153268863Y-96152834D01*
X153247506Y-96210158D01*
X153219959Y-96278001D01*
X153190707Y-96345155D01*
X153175063Y-96380230D01*
X153152774Y-96432622D01*
X153137457Y-96471858D01*
X153131762Y-96491363D01*
X153132078Y-96492836D01*
X153142881Y-96513529D01*
X153167238Y-96553465D01*
X153202681Y-96608772D01*
X153246736Y-96675581D01*
X153296932Y-96750020D01*
X153462101Y-96992423D01*
X153245103Y-97209783D01*
X153224116Y-97230699D01*
X153159942Y-97293305D01*
X153102590Y-97347295D01*
X153055420Y-97389626D01*
X153021792Y-97417257D01*
X153005067Y-97427143D01*
X152986903Y-97419621D01*
X152948865Y-97398027D01*
X152895326Y-97364951D01*
X152830484Y-97322991D01*
X152758540Y-97274743D01*
X152687875Y-97227091D01*
X152624126Y-97185128D01*
X152572113Y-97151965D01*
X152535879Y-97130178D01*
X152519467Y-97122343D01*
X152518505Y-97122414D01*
X152496703Y-97130138D01*
X152458040Y-97148123D01*
X152410212Y-97172813D01*
X152409710Y-97173084D01*
X152346187Y-97204899D01*
X152302660Y-97220442D01*
X152275652Y-97220485D01*
X152261690Y-97205800D01*
X152255780Y-97191344D01*
X152239829Y-97152631D01*
X152215260Y-97093116D01*
X152183379Y-97015965D01*
X152145493Y-96924341D01*
X152102910Y-96821407D01*
X152056937Y-96710326D01*
X152015267Y-96609272D01*
X151972868Y-96505580D01*
X151935356Y-96412919D01*
X151903988Y-96334442D01*
X151880025Y-96273300D01*
X151864723Y-96232643D01*
X151859343Y-96215625D01*
X151869618Y-96200019D01*
X151898163Y-96173962D01*
X151938571Y-96143687D01*
X152035579Y-96064484D01*
X152122393Y-95963275D01*
X152185922Y-95851916D01*
X152225777Y-95733693D01*
X152241565Y-95611895D01*
X152232896Y-95489810D01*
X152199378Y-95370725D01*
X152140621Y-95257929D01*
X152056232Y-95154711D01*
X152012231Y-95114513D01*
X151906811Y-95043438D01*
X151794010Y-94997101D01*
X151677125Y-94974399D01*
X151559453Y-94974228D01*
X151444290Y-94995487D01*
X151334935Y-95037070D01*
X151234683Y-95097876D01*
X151146833Y-95176801D01*
X151074680Y-95272741D01*
X151021522Y-95384595D01*
X150990657Y-95511257D01*
X150984992Y-95572307D01*
X150992785Y-95704576D01*
X151027884Y-95830066D01*
X151089249Y-95946559D01*
X151175843Y-96051839D01*
X151286629Y-96143687D01*
X151325531Y-96172730D01*
X151354704Y-96199072D01*
X151365857Y-96215600D01*
X151361410Y-96230009D01*
X151346978Y-96268615D01*
X151323773Y-96328001D01*
X151293052Y-96405015D01*
X151256074Y-96496503D01*
X151214096Y-96599316D01*
X151168378Y-96710302D01*
X151126778Y-96810872D01*
X151083822Y-96914747D01*
X151045429Y-97007619D01*
X151012905Y-97086325D01*
X150987558Y-97147699D01*
X150970695Y-97188579D01*
X150963625Y-97205800D01*
X150963543Y-97206004D01*
X150949398Y-97220545D01*
X150922259Y-97220379D01*
X150878623Y-97204727D01*
X150814988Y-97172813D01*
X150809979Y-97170126D01*
X150762725Y-97145950D01*
X150725411Y-97128837D01*
X150705733Y-97122343D01*
X150689605Y-97130018D01*
X150653559Y-97151671D01*
X150601692Y-97184728D01*
X150538045Y-97226610D01*
X150466660Y-97274743D01*
X150396324Y-97321931D01*
X150331270Y-97364067D01*
X150277420Y-97397378D01*
X150238974Y-97419269D01*
X150220134Y-97427143D01*
X150216925Y-97426143D01*
X150194554Y-97410384D01*
X150156333Y-97377833D01*
X150105621Y-97331533D01*
X150045781Y-97274526D01*
X149980171Y-97209858D01*
X149763248Y-96992572D01*
X149932201Y-96744053D01*
X150101153Y-96495533D01*
X150049783Y-96384395D01*
X150049631Y-96384066D01*
X150018783Y-96313218D01*
X149987261Y-96234323D01*
X149961866Y-96164400D01*
X149958023Y-96153122D01*
X149938647Y-96100767D01*
X149921174Y-96060083D01*
X149908988Y-96039087D01*
X149904026Y-96036122D01*
X149874234Y-96026175D01*
X149823647Y-96013305D01*
X149757794Y-95998853D01*
X149682200Y-95984155D01*
X149659557Y-95980010D01*
X149577638Y-95964916D01*
X149501200Y-95950699D01*
X149437937Y-95938795D01*
X149395543Y-95930639D01*
X149319343Y-95915599D01*
X149319343Y-95598292D01*
X149319360Y-95559276D01*
X149319682Y-95464092D01*
X149320633Y-95393055D01*
X149322496Y-95342534D01*
X149325555Y-95308898D01*
X149330094Y-95288518D01*
X149336395Y-95277762D01*
X149344743Y-95272999D01*
X149352824Y-95271070D01*
X149385772Y-95264245D01*
X149438336Y-95253822D01*
X149505169Y-95240818D01*
X149580928Y-95226249D01*
X149660265Y-95211133D01*
X149737837Y-95196485D01*
X149808298Y-95183323D01*
X149866302Y-95172663D01*
X149906504Y-95165521D01*
X149923559Y-95162914D01*
X149924712Y-95161341D01*
X149933985Y-95140919D01*
X149950032Y-95101845D01*
X149970235Y-95050429D01*
X149998272Y-94981153D01*
X150032786Y-94901090D01*
X150065138Y-94830528D01*
X150072552Y-94814689D01*
X150093355Y-94765093D01*
X150105819Y-94726838D01*
X150107463Y-94707156D01*
X150106615Y-94705762D01*
X150093148Y-94685220D01*
X150066450Y-94645316D01*
X150029139Y-94589940D01*
X149983834Y-94522977D01*
X149933152Y-94448317D01*
X149876045Y-94363492D01*
X149833207Y-94297600D01*
X149804060Y-94249278D01*
X149786917Y-94215533D01*
X149780095Y-94193372D01*
X149781906Y-94179802D01*
X149782515Y-94178784D01*
X149798897Y-94159010D01*
X149832295Y-94122975D01*
X149879271Y-94074251D01*
X149936386Y-94016412D01*
X150000203Y-93953027D01*
X150066402Y-93888705D01*
X150131248Y-93828247D01*
X150178899Y-93787455D01*
X150210590Y-93765284D01*
X150227558Y-93760689D01*
X150229775Y-93761721D01*
X150253124Y-93775637D01*
X150295512Y-93802830D01*
X150352969Y-93840689D01*
X150421523Y-93886603D01*
X150497201Y-93937960D01*
X150743898Y-94106426D01*
X150855306Y-94055862D01*
X150858543Y-94054397D01*
X150926943Y-94024765D01*
X150999507Y-93995293D01*
X151061057Y-93972158D01*
X151061329Y-93972062D01*
X151110195Y-93954167D01*
X151147812Y-93939053D01*
X151166057Y-93929984D01*
X151166352Y-93929655D01*
X151172546Y-93911082D01*
X151182739Y-93868845D01*
X151195948Y-93807496D01*
X151211190Y-93731589D01*
X151227481Y-93645675D01*
X151228049Y-93642596D01*
X151244313Y-93554928D01*
X151259208Y-93475541D01*
X151271771Y-93409501D01*
X151281038Y-93361879D01*
X151286044Y-93337743D01*
X151286364Y-93336405D01*
X151289660Y-93326073D01*
X151296338Y-93318306D01*
X151310062Y-93312740D01*
X151334495Y-93309007D01*
X151373302Y-93306742D01*
X151430146Y-93305578D01*
X151508690Y-93305148D01*
X151612600Y-93305086D01*
X151625656Y-93305086D01*
X151726533Y-93305171D01*
G36*
X149580095Y-98009020D02*
G01*
X149611199Y-98016921D01*
X149640159Y-98036617D01*
X149677431Y-98073284D01*
X149701401Y-98099178D01*
X149726370Y-98132797D01*
X149737631Y-98164306D01*
X149740257Y-98204285D01*
X149740257Y-98269717D01*
X149695635Y-98246642D01*
X149660273Y-98218524D01*
X149636051Y-98180648D01*
X149631891Y-98170351D01*
X149600194Y-98130437D01*
X149556154Y-98110424D01*
X149508131Y-98112372D01*
X149464486Y-98138343D01*
X149446020Y-98159435D01*
X149435263Y-98186419D01*
X149446778Y-98210434D01*
X149482581Y-98234591D01*
X149544690Y-98261999D01*
X149554115Y-98265785D01*
X149610658Y-98290559D01*
X149659180Y-98314989D01*
X149690051Y-98334286D01*
X149720971Y-98368753D01*
X149741527Y-98423757D01*
X149739344Y-98482783D01*
X149715024Y-98538645D01*
X149669168Y-98584155D01*
X149632038Y-98603527D01*
X149560311Y-98617092D01*
X149520452Y-98615262D01*
X149483553Y-98605368D01*
X149469397Y-98584606D01*
X149474691Y-98550413D01*
X149476231Y-98545892D01*
X149488442Y-98521916D01*
X149508774Y-98512842D01*
X149547508Y-98513449D01*
X149574857Y-98514274D01*
X149606857Y-98507192D01*
X149628782Y-98486019D01*
X149641270Y-98459952D01*
X149642662Y-98432645D01*
X149642598Y-98432485D01*
X149626407Y-98417730D01*
X149591755Y-98396257D01*
X149546921Y-98372258D01*
X149500182Y-98349925D01*
X149459817Y-98333452D01*
X149434104Y-98327029D01*
X149430279Y-98333318D01*
X149425464Y-98362915D01*
X149422166Y-98411247D01*
X149420943Y-98472172D01*
X149420658Y-98514342D01*
X149419318Y-98567453D01*
X149417128Y-98603825D01*
X149414369Y-98617314D01*
X149399944Y-98612781D01*
X149370826Y-98600470D01*
X149333857Y-98583626D01*
X149333857Y-98367521D01*
X149334093Y-98312127D01*
X149336329Y-98228007D01*
X149342023Y-98165600D01*
X149352503Y-98120158D01*
X149369097Y-98086933D01*
X149393131Y-98061178D01*
X149425933Y-98038144D01*
X149467724Y-98019135D01*
X149544887Y-98007714D01*
X149580095Y-98009020D01*
G37*
X149580095Y-98009020D02*
X149611199Y-98016921D01*
X149640159Y-98036617D01*
X149677431Y-98073284D01*
X149701401Y-98099178D01*
X149726370Y-98132797D01*
X149737631Y-98164306D01*
X149740257Y-98204285D01*
X149740257Y-98269717D01*
X149695635Y-98246642D01*
X149660273Y-98218524D01*
X149636051Y-98180648D01*
X149631891Y-98170351D01*
X149600194Y-98130437D01*
X149556154Y-98110424D01*
X149508131Y-98112372D01*
X149464486Y-98138343D01*
X149446020Y-98159435D01*
X149435263Y-98186419D01*
X149446778Y-98210434D01*
X149482581Y-98234591D01*
X149544690Y-98261999D01*
X149554115Y-98265785D01*
X149610658Y-98290559D01*
X149659180Y-98314989D01*
X149690051Y-98334286D01*
X149720971Y-98368753D01*
X149741527Y-98423757D01*
X149739344Y-98482783D01*
X149715024Y-98538645D01*
X149669168Y-98584155D01*
X149632038Y-98603527D01*
X149560311Y-98617092D01*
X149520452Y-98615262D01*
X149483553Y-98605368D01*
X149469397Y-98584606D01*
X149474691Y-98550413D01*
X149476231Y-98545892D01*
X149488442Y-98521916D01*
X149508774Y-98512842D01*
X149547508Y-98513449D01*
X149574857Y-98514274D01*
X149606857Y-98507192D01*
X149628782Y-98486019D01*
X149641270Y-98459952D01*
X149642662Y-98432645D01*
X149642598Y-98432485D01*
X149626407Y-98417730D01*
X149591755Y-98396257D01*
X149546921Y-98372258D01*
X149500182Y-98349925D01*
X149459817Y-98333452D01*
X149434104Y-98327029D01*
X149430279Y-98333318D01*
X149425464Y-98362915D01*
X149422166Y-98411247D01*
X149420943Y-98472172D01*
X149420658Y-98514342D01*
X149419318Y-98567453D01*
X149417128Y-98603825D01*
X149414369Y-98617314D01*
X149399944Y-98612781D01*
X149370826Y-98600470D01*
X149333857Y-98583626D01*
X149333857Y-98367521D01*
X149334093Y-98312127D01*
X149336329Y-98228007D01*
X149342023Y-98165600D01*
X149352503Y-98120158D01*
X149369097Y-98086933D01*
X149393131Y-98061178D01*
X149425933Y-98038144D01*
X149467724Y-98019135D01*
X149544887Y-98007714D01*
X149580095Y-98009020D01*
G36*
X153770284Y-98366878D02*
G01*
X153767678Y-98390187D01*
X153748260Y-98473152D01*
X153713173Y-98536248D01*
X153659812Y-98584608D01*
X153656796Y-98586604D01*
X153588962Y-98614985D01*
X153518135Y-98617511D01*
X153449889Y-98595897D01*
X153389796Y-98551862D01*
X153343429Y-98487122D01*
X153342650Y-98485561D01*
X153327243Y-98445358D01*
X153315957Y-98399666D01*
X153309970Y-98356772D01*
X153310461Y-98324960D01*
X153318607Y-98312514D01*
X153325844Y-98313271D01*
X153360451Y-98327035D01*
X153399678Y-98352346D01*
X153433048Y-98381645D01*
X153450083Y-98407372D01*
X153467792Y-98442271D01*
X153504085Y-98474012D01*
X153546230Y-98486686D01*
X153561677Y-98483021D01*
X153592169Y-98464574D01*
X153618728Y-98438966D01*
X153630086Y-98415734D01*
X153630082Y-98415648D01*
X153617196Y-98404979D01*
X153582841Y-98385733D01*
X153532193Y-98360613D01*
X153470429Y-98332324D01*
X153470089Y-98332174D01*
X153402988Y-98302298D01*
X153358011Y-98280773D01*
X153330745Y-98264237D01*
X153316778Y-98249331D01*
X153311697Y-98232693D01*
X153311090Y-98210962D01*
X153315312Y-98169813D01*
X153458600Y-98169813D01*
X153473391Y-98182749D01*
X153510244Y-98202133D01*
X153511325Y-98202681D01*
X153554805Y-98223387D01*
X153593702Y-98239905D01*
X153618378Y-98246893D01*
X153628276Y-98237553D01*
X153630086Y-98205548D01*
X153622566Y-98165715D01*
X153596497Y-98129517D01*
X153558754Y-98110750D01*
X153516677Y-98112645D01*
X153477605Y-98138432D01*
X153462247Y-98156251D01*
X153458600Y-98169813D01*
X153315312Y-98169813D01*
X153316433Y-98158886D01*
X153342851Y-98088135D01*
X153387073Y-98032535D01*
X153444297Y-97994039D01*
X153509720Y-97974597D01*
X153578537Y-97976159D01*
X153645947Y-98000678D01*
X153707144Y-98050102D01*
X153741050Y-98099012D01*
X153765406Y-98168827D01*
X153769367Y-98205548D01*
X153774899Y-98256855D01*
X153770284Y-98366878D01*
G37*
X153770284Y-98366878D02*
X153767678Y-98390187D01*
X153748260Y-98473152D01*
X153713173Y-98536248D01*
X153659812Y-98584608D01*
X153656796Y-98586604D01*
X153588962Y-98614985D01*
X153518135Y-98617511D01*
X153449889Y-98595897D01*
X153389796Y-98551862D01*
X153343429Y-98487122D01*
X153342650Y-98485561D01*
X153327243Y-98445358D01*
X153315957Y-98399666D01*
X153309970Y-98356772D01*
X153310461Y-98324960D01*
X153318607Y-98312514D01*
X153325844Y-98313271D01*
X153360451Y-98327035D01*
X153399678Y-98352346D01*
X153433048Y-98381645D01*
X153450083Y-98407372D01*
X153467792Y-98442271D01*
X153504085Y-98474012D01*
X153546230Y-98486686D01*
X153561677Y-98483021D01*
X153592169Y-98464574D01*
X153618728Y-98438966D01*
X153630086Y-98415734D01*
X153630082Y-98415648D01*
X153617196Y-98404979D01*
X153582841Y-98385733D01*
X153532193Y-98360613D01*
X153470429Y-98332324D01*
X153470089Y-98332174D01*
X153402988Y-98302298D01*
X153358011Y-98280773D01*
X153330745Y-98264237D01*
X153316778Y-98249331D01*
X153311697Y-98232693D01*
X153311090Y-98210962D01*
X153315312Y-98169813D01*
X153458600Y-98169813D01*
X153473391Y-98182749D01*
X153510244Y-98202133D01*
X153511325Y-98202681D01*
X153554805Y-98223387D01*
X153593702Y-98239905D01*
X153618378Y-98246893D01*
X153628276Y-98237553D01*
X153630086Y-98205548D01*
X153622566Y-98165715D01*
X153596497Y-98129517D01*
X153558754Y-98110750D01*
X153516677Y-98112645D01*
X153477605Y-98138432D01*
X153462247Y-98156251D01*
X153458600Y-98169813D01*
X153315312Y-98169813D01*
X153316433Y-98158886D01*
X153342851Y-98088135D01*
X153387073Y-98032535D01*
X153444297Y-97994039D01*
X153509720Y-97974597D01*
X153578537Y-97976159D01*
X153645947Y-98000678D01*
X153707144Y-98050102D01*
X153741050Y-98099012D01*
X153765406Y-98168827D01*
X153769367Y-98205548D01*
X153774899Y-98256855D01*
X153770284Y-98366878D01*
G36*
X151220291Y-98029267D02*
G01*
X151224873Y-98031803D01*
X151262304Y-98060857D01*
X151295770Y-98098210D01*
X151301607Y-98106652D01*
X151312765Y-98126353D01*
X151320736Y-98149735D01*
X151326218Y-98181867D01*
X151329907Y-98227819D01*
X151332499Y-98292659D01*
X151334692Y-98381457D01*
X151335002Y-98396469D01*
X151336000Y-98493799D01*
X151334594Y-98562734D01*
X151330764Y-98603748D01*
X151324489Y-98617314D01*
X151305498Y-98613252D01*
X151273238Y-98600944D01*
X151265641Y-98597345D01*
X151253776Y-98589198D01*
X151245594Y-98575804D01*
X151240243Y-98552408D01*
X151236869Y-98514255D01*
X151234619Y-98456590D01*
X151232640Y-98374657D01*
X151232098Y-98350707D01*
X151230003Y-98275066D01*
X151227283Y-98222128D01*
X151223115Y-98186875D01*
X151216679Y-98164287D01*
X151207150Y-98149344D01*
X151193706Y-98137027D01*
X151153905Y-98115434D01*
X151104941Y-98111276D01*
X151061129Y-98127799D01*
X151029608Y-98162010D01*
X151017514Y-98210914D01*
X151017178Y-98224207D01*
X151010572Y-98248272D01*
X150991070Y-98251944D01*
X150952883Y-98237613D01*
X150944038Y-98233017D01*
X150920134Y-98205986D01*
X150919661Y-98165794D01*
X150942436Y-98110209D01*
X150963327Y-98079917D01*
X151016742Y-98036884D01*
X151082674Y-98012555D01*
X151153174Y-98009243D01*
X151220291Y-98029267D01*
G37*
X151220291Y-98029267D02*
X151224873Y-98031803D01*
X151262304Y-98060857D01*
X151295770Y-98098210D01*
X151301607Y-98106652D01*
X151312765Y-98126353D01*
X151320736Y-98149735D01*
X151326218Y-98181867D01*
X151329907Y-98227819D01*
X151332499Y-98292659D01*
X151334692Y-98381457D01*
X151335002Y-98396469D01*
X151336000Y-98493799D01*
X151334594Y-98562734D01*
X151330764Y-98603748D01*
X151324489Y-98617314D01*
X151305498Y-98613252D01*
X151273238Y-98600944D01*
X151265641Y-98597345D01*
X151253776Y-98589198D01*
X151245594Y-98575804D01*
X151240243Y-98552408D01*
X151236869Y-98514255D01*
X151234619Y-98456590D01*
X151232640Y-98374657D01*
X151232098Y-98350707D01*
X151230003Y-98275066D01*
X151227283Y-98222128D01*
X151223115Y-98186875D01*
X151216679Y-98164287D01*
X151207150Y-98149344D01*
X151193706Y-98137027D01*
X151153905Y-98115434D01*
X151104941Y-98111276D01*
X151061129Y-98127799D01*
X151029608Y-98162010D01*
X151017514Y-98210914D01*
X151017178Y-98224207D01*
X151010572Y-98248272D01*
X150991070Y-98251944D01*
X150952883Y-98237613D01*
X150944038Y-98233017D01*
X150920134Y-98205986D01*
X150919661Y-98165794D01*
X150942436Y-98110209D01*
X150963327Y-98079917D01*
X151016742Y-98036884D01*
X151082674Y-98012555D01*
X151153174Y-98009243D01*
X151220291Y-98029267D01*
G36*
X154323852Y-98475800D02*
G01*
X154324251Y-98508139D01*
X154325529Y-98616255D01*
X154325785Y-98698986D01*
X154324234Y-98759226D01*
X154320090Y-98799873D01*
X154312564Y-98823823D01*
X154300871Y-98833971D01*
X154284224Y-98833214D01*
X154261836Y-98824448D01*
X154232921Y-98810569D01*
X154226742Y-98807608D01*
X154201013Y-98793111D01*
X154187576Y-98775865D01*
X154182434Y-98747108D01*
X154181590Y-98698083D01*
X154181552Y-98610057D01*
X154090876Y-98610057D01*
X154035098Y-98607615D01*
X153991240Y-98597708D01*
X153954818Y-98577686D01*
X153952103Y-98575729D01*
X153915146Y-98542669D01*
X153889426Y-98502731D01*
X153873206Y-98450457D01*
X153864748Y-98380388D01*
X153862683Y-98301230D01*
X154007457Y-98301230D01*
X154007482Y-98314497D01*
X154008861Y-98374384D01*
X154013287Y-98413532D01*
X154022061Y-98438953D01*
X154036486Y-98457657D01*
X154037384Y-98458550D01*
X154072837Y-98482752D01*
X154107196Y-98480367D01*
X154146003Y-98451060D01*
X154155495Y-98441044D01*
X154169476Y-98420508D01*
X154177360Y-98393797D01*
X154180845Y-98353299D01*
X154181629Y-98291403D01*
X154180950Y-98253930D01*
X154173583Y-98185780D01*
X154156768Y-98141130D01*
X154128834Y-98116726D01*
X154088109Y-98109314D01*
X154070950Y-98110894D01*
X154041260Y-98126566D01*
X154021631Y-98161491D01*
X154010788Y-98218701D01*
X154007457Y-98301230D01*
X153862683Y-98301230D01*
X153862314Y-98287067D01*
X153862853Y-98218969D01*
X153865307Y-98167387D01*
X153870758Y-98131616D01*
X153880286Y-98104815D01*
X153894971Y-98080138D01*
X153908452Y-98061280D01*
X153957399Y-98010368D01*
X154012856Y-97982718D01*
X154082528Y-97973965D01*
X154162264Y-97982690D01*
X154231195Y-98013985D01*
X154285713Y-98069181D01*
X154289823Y-98075024D01*
X154299408Y-98090553D01*
X154306751Y-98108298D01*
X154312212Y-98132090D01*
X154316150Y-98165758D01*
X154318923Y-98213133D01*
X154320892Y-98278045D01*
X154321128Y-98291403D01*
X154322415Y-98364324D01*
X154323852Y-98475800D01*
G37*
X154323852Y-98475800D02*
X154324251Y-98508139D01*
X154325529Y-98616255D01*
X154325785Y-98698986D01*
X154324234Y-98759226D01*
X154320090Y-98799873D01*
X154312564Y-98823823D01*
X154300871Y-98833971D01*
X154284224Y-98833214D01*
X154261836Y-98824448D01*
X154232921Y-98810569D01*
X154226742Y-98807608D01*
X154201013Y-98793111D01*
X154187576Y-98775865D01*
X154182434Y-98747108D01*
X154181590Y-98698083D01*
X154181552Y-98610057D01*
X154090876Y-98610057D01*
X154035098Y-98607615D01*
X153991240Y-98597708D01*
X153954818Y-98577686D01*
X153952103Y-98575729D01*
X153915146Y-98542669D01*
X153889426Y-98502731D01*
X153873206Y-98450457D01*
X153864748Y-98380388D01*
X153862683Y-98301230D01*
X154007457Y-98301230D01*
X154007482Y-98314497D01*
X154008861Y-98374384D01*
X154013287Y-98413532D01*
X154022061Y-98438953D01*
X154036486Y-98457657D01*
X154037384Y-98458550D01*
X154072837Y-98482752D01*
X154107196Y-98480367D01*
X154146003Y-98451060D01*
X154155495Y-98441044D01*
X154169476Y-98420508D01*
X154177360Y-98393797D01*
X154180845Y-98353299D01*
X154181629Y-98291403D01*
X154180950Y-98253930D01*
X154173583Y-98185780D01*
X154156768Y-98141130D01*
X154128834Y-98116726D01*
X154088109Y-98109314D01*
X154070950Y-98110894D01*
X154041260Y-98126566D01*
X154021631Y-98161491D01*
X154010788Y-98218701D01*
X154007457Y-98301230D01*
X153862683Y-98301230D01*
X153862314Y-98287067D01*
X153862853Y-98218969D01*
X153865307Y-98167387D01*
X153870758Y-98131616D01*
X153880286Y-98104815D01*
X153894971Y-98080138D01*
X153908452Y-98061280D01*
X153957399Y-98010368D01*
X154012856Y-97982718D01*
X154082528Y-97973965D01*
X154162264Y-97982690D01*
X154231195Y-98013985D01*
X154285713Y-98069181D01*
X154289823Y-98075024D01*
X154299408Y-98090553D01*
X154306751Y-98108298D01*
X154312212Y-98132090D01*
X154316150Y-98165758D01*
X154318923Y-98213133D01*
X154320892Y-98278045D01*
X154321128Y-98291403D01*
X154322415Y-98364324D01*
X154323852Y-98475800D01*
D14*
%TO.C,JP1*%
X168946101Y-100718164D02*
X168521836Y-100293899D01*
X166541937Y-102273798D02*
X166966202Y-102698063D01*
X167531887Y-100293899D02*
X166541937Y-101283849D01*
X167956151Y-102698063D02*
X168946101Y-101708113D01*
X166541937Y-101283849D02*
G75*
G03*
X166541937Y-102273798I494974J-494975D01*
G01*
X168946101Y-101708113D02*
G75*
G03*
X168946101Y-100718164I-494975J494975D01*
G01*
X168521836Y-100293899D02*
G75*
G03*
X167531887Y-100293899I-494974J-494975D01*
G01*
X166966201Y-102698064D02*
G75*
G03*
X167956151Y-102698063I494975J494975D01*
G01*
%TD*%
M02*
