%TF.GenerationSoftware,KiCad,Pcbnew,(6.0.5)*%
%TF.CreationDate,2022-09-09T17:06:15+01:00*%
%TF.ProjectId,ESC,4553432e-6b69-4636-9164-5f7063625858,rev?*%
%TF.SameCoordinates,Original*%
%TF.FileFunction,Paste,Top*%
%TF.FilePolarity,Positive*%
%FSLAX46Y46*%
G04 Gerber Fmt 4.6, Leading zero omitted, Abs format (unit mm)*
G04 Created by KiCad (PCBNEW (6.0.5)) date 2022-09-09 17:06:15*
%MOMM*%
%LPD*%
G01*
G04 APERTURE LIST*
G04 Aperture macros list*
%AMRoundRect*
0 Rectangle with rounded corners*
0 $1 Rounding radius*
0 $2 $3 $4 $5 $6 $7 $8 $9 X,Y pos of 4 corners*
0 Add a 4 corners polygon primitive as box body*
4,1,4,$2,$3,$4,$5,$6,$7,$8,$9,$2,$3,0*
0 Add four circle primitives for the rounded corners*
1,1,$1+$1,$2,$3*
1,1,$1+$1,$4,$5*
1,1,$1+$1,$6,$7*
1,1,$1+$1,$8,$9*
0 Add four rect primitives between the rounded corners*
20,1,$1+$1,$2,$3,$4,$5,0*
20,1,$1+$1,$4,$5,$6,$7,0*
20,1,$1+$1,$6,$7,$8,$9,0*
20,1,$1+$1,$8,$9,$2,$3,0*%
%AMRotRect*
0 Rectangle, with rotation*
0 The origin of the aperture is its center*
0 $1 length*
0 $2 width*
0 $3 Rotation angle, in degrees counterclockwise*
0 Add horizontal line*
21,1,$1,$2,0,0,$3*%
%AMFreePoly0*
4,1,9,3.862500,-0.866500,0.737500,-0.866500,0.737500,-0.450000,-0.737500,-0.450000,-0.737500,0.450000,0.737500,0.450000,0.737500,0.866500,3.862500,0.866500,3.862500,-0.866500,3.862500,-0.866500,$1*%
G04 Aperture macros list end*
%ADD10RoundRect,0.140000X0.170000X-0.140000X0.170000X0.140000X-0.170000X0.140000X-0.170000X-0.140000X0*%
%ADD11RoundRect,0.140000X-0.170000X0.140000X-0.170000X-0.140000X0.170000X-0.140000X0.170000X0.140000X0*%
%ADD12R,1.495000X2.950000*%
%ADD13R,1.495000X0.700000*%
%ADD14R,0.400000X1.200000*%
%ADD15RoundRect,0.135000X-0.226274X-0.035355X-0.035355X-0.226274X0.226274X0.035355X0.035355X0.226274X0*%
%ADD16RoundRect,0.250000X-0.159099X0.512652X-0.512652X0.159099X0.159099X-0.512652X0.512652X-0.159099X0*%
%ADD17RoundRect,0.135000X-0.185000X0.135000X-0.185000X-0.135000X0.185000X-0.135000X0.185000X0.135000X0*%
%ADD18RoundRect,0.250000X-0.229810X0.689429X-0.689429X0.229810X0.229810X-0.689429X0.689429X-0.229810X0*%
%ADD19RoundRect,0.135000X-0.135000X-0.185000X0.135000X-0.185000X0.135000X0.185000X-0.135000X0.185000X0*%
%ADD20RoundRect,0.140000X-0.219203X-0.021213X-0.021213X-0.219203X0.219203X0.021213X0.021213X0.219203X0*%
%ADD21RoundRect,0.140000X-0.140000X-0.170000X0.140000X-0.170000X0.140000X0.170000X-0.140000X0.170000X0*%
%ADD22RoundRect,0.140000X0.140000X0.170000X-0.140000X0.170000X-0.140000X-0.170000X0.140000X-0.170000X0*%
%ADD23RoundRect,0.250000X-0.325000X-0.650000X0.325000X-0.650000X0.325000X0.650000X-0.325000X0.650000X0*%
%ADD24RoundRect,0.135000X0.135000X0.185000X-0.135000X0.185000X-0.135000X-0.185000X0.135000X-0.185000X0*%
%ADD25RoundRect,0.250000X-0.475000X0.250000X-0.475000X-0.250000X0.475000X-0.250000X0.475000X0.250000X0*%
%ADD26RoundRect,0.135000X-0.035355X0.226274X-0.226274X0.035355X0.035355X-0.226274X0.226274X-0.035355X0*%
%ADD27RoundRect,0.135000X0.226274X0.035355X0.035355X0.226274X-0.226274X-0.035355X-0.035355X-0.226274X0*%
%ADD28R,0.750000X0.350000*%
%ADD29R,1.130000X1.420000*%
%ADD30R,0.350000X0.650000*%
%ADD31R,1.130000X2.080000*%
%ADD32R,2.020000X3.050000*%
%ADD33R,0.350000X0.750000*%
%ADD34R,1.150000X0.850000*%
%ADD35R,0.350000X0.420000*%
%ADD36R,0.420000X0.350000*%
%ADD37R,1.350000X0.330000*%
%ADD38R,0.330000X3.850000*%
%ADD39RoundRect,0.250000X0.450000X-0.262500X0.450000X0.262500X-0.450000X0.262500X-0.450000X-0.262500X0*%
%ADD40R,1.300000X0.900000*%
%ADD41FreePoly0,180.000000*%
%ADD42RoundRect,0.218750X0.218750X0.256250X-0.218750X0.256250X-0.218750X-0.256250X0.218750X-0.256250X0*%
%ADD43RoundRect,0.140000X0.219203X0.021213X0.021213X0.219203X-0.219203X-0.021213X-0.021213X-0.219203X0*%
%ADD44RoundRect,0.140000X-0.021213X0.219203X-0.219203X0.021213X0.021213X-0.219203X0.219203X-0.021213X0*%
%ADD45RoundRect,0.150000X0.587500X0.150000X-0.587500X0.150000X-0.587500X-0.150000X0.587500X-0.150000X0*%
%ADD46RoundRect,0.225000X-0.335876X-0.017678X-0.017678X-0.335876X0.335876X0.017678X0.017678X0.335876X0*%
%ADD47RoundRect,0.150000X0.150000X-0.512500X0.150000X0.512500X-0.150000X0.512500X-0.150000X-0.512500X0*%
%ADD48RoundRect,0.250000X-0.650000X0.325000X-0.650000X-0.325000X0.650000X-0.325000X0.650000X0.325000X0*%
%ADD49RoundRect,0.140000X0.021213X-0.219203X0.219203X-0.021213X-0.021213X0.219203X-0.219203X0.021213X0*%
%ADD50RoundRect,0.250000X0.262500X0.450000X-0.262500X0.450000X-0.262500X-0.450000X0.262500X-0.450000X0*%
%ADD51RotRect,1.400000X1.200000X315.000000*%
%ADD52RoundRect,0.218750X0.256250X-0.218750X0.256250X0.218750X-0.256250X0.218750X-0.256250X-0.218750X0*%
%ADD53RoundRect,0.075000X-0.441942X-0.548008X0.548008X0.441942X0.441942X0.548008X-0.548008X-0.441942X0*%
%ADD54RoundRect,0.075000X0.441942X-0.548008X0.548008X-0.441942X-0.441942X0.548008X-0.548008X0.441942X0*%
%ADD55RoundRect,0.135000X0.185000X-0.135000X0.185000X0.135000X-0.185000X0.135000X-0.185000X-0.135000X0*%
%ADD56RoundRect,0.250000X1.075000X-0.375000X1.075000X0.375000X-1.075000X0.375000X-1.075000X-0.375000X0*%
G04 APERTURE END LIST*
D10*
%TO.C,C21*%
X148082000Y-97863600D03*
X148082000Y-96903600D03*
%TD*%
D11*
%TO.C,C20*%
X188112400Y-112781200D03*
X188112400Y-113741200D03*
%TD*%
D10*
%TO.C,C19*%
X147980400Y-104874000D03*
X147980400Y-103914000D03*
%TD*%
D11*
%TO.C,C18*%
X188087000Y-106725600D03*
X188087000Y-105765600D03*
%TD*%
D10*
%TO.C,C17*%
X147878800Y-111861600D03*
X147878800Y-110901600D03*
%TD*%
D11*
%TO.C,C16*%
X187807600Y-98780600D03*
X187807600Y-99740600D03*
%TD*%
D12*
%TO.C,R22*%
X154609800Y-117602000D03*
D13*
X154609800Y-115277000D03*
X152503800Y-115277000D03*
D12*
X152503800Y-117602000D03*
%TD*%
%TO.C,R21*%
X186002000Y-117602000D03*
D13*
X186002000Y-115277000D03*
X183896000Y-115277000D03*
D12*
X183896000Y-117602000D03*
%TD*%
D14*
%TO.C,J1*%
X159110200Y-96739600D03*
X158460200Y-96739600D03*
X157810200Y-96739600D03*
X157160200Y-96739600D03*
X156510200Y-96739600D03*
%TD*%
D15*
%TO.C,R11*%
X150642376Y-96413376D03*
X151363624Y-97134624D03*
%TD*%
D16*
%TO.C,C24*%
X181864000Y-114554000D03*
X180520498Y-115897502D03*
%TD*%
D17*
%TO.C,R7*%
X168942194Y-113911468D03*
X168942194Y-114931468D03*
%TD*%
D18*
%TO.C,C23*%
X179501800Y-113690400D03*
X177415834Y-115776366D03*
%TD*%
D19*
%TO.C,R27*%
X168908000Y-111937800D03*
X169928000Y-111937800D03*
%TD*%
D20*
%TO.C,C11*%
X172101189Y-110074389D03*
X172780011Y-110753211D03*
%TD*%
D21*
%TO.C,C27*%
X147525800Y-102590600D03*
X148485800Y-102590600D03*
%TD*%
D17*
%TO.C,R16*%
X153162000Y-98092800D03*
X153162000Y-99112800D03*
%TD*%
D22*
%TO.C,C22*%
X188301400Y-115006200D03*
X187341400Y-115006200D03*
%TD*%
D23*
%TO.C,C14*%
X160676800Y-114611100D03*
X163626800Y-114611100D03*
%TD*%
D24*
%TO.C,R14*%
X181787800Y-101650800D03*
X180767800Y-101650800D03*
%TD*%
D17*
%TO.C,R8*%
X161213800Y-102436200D03*
X161213800Y-103456200D03*
%TD*%
D25*
%TO.C,C29*%
X156413200Y-113527800D03*
X156413200Y-115427800D03*
%TD*%
D26*
%TO.C,R17*%
X184180424Y-101721976D03*
X183459176Y-102443224D03*
%TD*%
D27*
%TO.C,R26*%
X183113624Y-113466824D03*
X182392376Y-112745576D03*
%TD*%
D24*
%TO.C,R18*%
X182321200Y-102641400D03*
X181301200Y-102641400D03*
%TD*%
D20*
%TO.C,C13*%
X173394172Y-94385846D03*
X174072994Y-95064668D03*
%TD*%
D28*
%TO.C,IC7*%
X146773200Y-99885600D03*
X146773200Y-99385600D03*
X146773200Y-98885600D03*
X146773200Y-98385600D03*
D29*
X145533200Y-99170600D03*
D28*
X146773200Y-97885600D03*
X146773200Y-97385600D03*
X146773200Y-96885600D03*
X146773200Y-96385600D03*
D30*
X145593200Y-95655600D03*
X146093200Y-95655600D03*
X145093200Y-95655600D03*
D31*
X145533200Y-97020600D03*
D30*
X142593200Y-95655600D03*
D32*
X143608200Y-97505600D03*
D30*
X143593200Y-95655600D03*
D33*
X144593200Y-100555600D03*
D30*
X144093200Y-95655600D03*
X143093200Y-95655600D03*
D34*
X143173200Y-99455600D03*
D35*
X143593200Y-100720600D03*
D36*
X141758200Y-99385600D03*
X141758200Y-99885600D03*
X141758200Y-96385600D03*
D35*
X142593200Y-100720600D03*
D37*
X143093200Y-100345600D03*
D36*
X141758200Y-97385600D03*
X141758200Y-96885600D03*
X141758200Y-97885600D03*
D35*
X143093200Y-100720600D03*
D36*
X141758200Y-98385600D03*
X141758200Y-98885600D03*
D38*
X142133200Y-98135600D03*
D33*
X144093200Y-100555600D03*
X145093200Y-100555600D03*
X145593200Y-100555600D03*
X146093200Y-100555600D03*
%TD*%
D28*
%TO.C,IC5*%
X146773200Y-106885600D03*
X146773200Y-106385600D03*
X146773200Y-105885600D03*
D29*
X145533200Y-106170600D03*
D28*
X146773200Y-105385600D03*
X146773200Y-104885600D03*
X146773200Y-104385600D03*
X146773200Y-103885600D03*
X146773200Y-103385600D03*
D30*
X145093200Y-102655600D03*
X145593200Y-102655600D03*
X146093200Y-102655600D03*
D31*
X145533200Y-104020600D03*
D30*
X143593200Y-102655600D03*
D32*
X143608200Y-104505600D03*
D30*
X142593200Y-102655600D03*
X144093200Y-102655600D03*
X143093200Y-102655600D03*
D34*
X143173200Y-106455600D03*
D33*
X144593200Y-107555600D03*
D35*
X143093200Y-107720600D03*
D36*
X141758200Y-106385600D03*
D38*
X142133200Y-105135600D03*
D37*
X143093200Y-107345600D03*
D36*
X141758200Y-106885600D03*
X141758200Y-104385600D03*
X141758200Y-103385600D03*
X141758200Y-103885600D03*
D35*
X142593200Y-107720600D03*
D36*
X141758200Y-105385600D03*
D35*
X143593200Y-107720600D03*
D36*
X141758200Y-104885600D03*
X141758200Y-105885600D03*
D33*
X144093200Y-107555600D03*
X145093200Y-107555600D03*
X145593200Y-107555600D03*
X146093200Y-107555600D03*
%TD*%
D19*
%TO.C,R24*%
X168857200Y-110642400D03*
X169877200Y-110642400D03*
%TD*%
D21*
%TO.C,C15*%
X179329202Y-97790000D03*
X180289202Y-97790000D03*
%TD*%
D39*
%TO.C,R4*%
X152577800Y-104849300D03*
X152577800Y-103024300D03*
%TD*%
D22*
%TO.C,C26*%
X188301400Y-108006200D03*
X187341400Y-108006200D03*
%TD*%
D25*
%TO.C,C1*%
X182422803Y-93919000D03*
X182422803Y-95819000D03*
%TD*%
D19*
%TO.C,R1*%
X168169400Y-92989400D03*
X169189400Y-92989400D03*
%TD*%
D15*
%TO.C,R23*%
X181985976Y-110180176D03*
X182707224Y-110901424D03*
%TD*%
D40*
%TO.C,U3*%
X180669202Y-96242004D03*
D41*
X180581702Y-94742004D03*
D40*
X180669202Y-93242004D03*
%TD*%
D24*
%TO.C,R3*%
X167540400Y-95046800D03*
X166520400Y-95046800D03*
%TD*%
D42*
%TO.C,D1*%
X182656900Y-105384600D03*
X181081900Y-105384600D03*
%TD*%
D43*
%TO.C,C3*%
X166747362Y-110171147D03*
X166068540Y-109492325D03*
%TD*%
D44*
%TO.C,C12*%
X179079211Y-104739651D03*
X178400389Y-105418473D03*
%TD*%
D15*
%TO.C,R29*%
X180893776Y-111043776D03*
X181615024Y-111765024D03*
%TD*%
D28*
%TO.C,IC4*%
X188996400Y-103751200D03*
X188996400Y-104251200D03*
X188996400Y-104751200D03*
X188996400Y-105251200D03*
D29*
X190236400Y-104466200D03*
D28*
X188996400Y-105751200D03*
X188996400Y-106251200D03*
X188996400Y-106751200D03*
D30*
X189676400Y-107981200D03*
X190676400Y-107981200D03*
D31*
X190236400Y-106616200D03*
D30*
X190176400Y-107981200D03*
D28*
X188996400Y-107251200D03*
D30*
X191676400Y-107981200D03*
D34*
X192596400Y-104181200D03*
D30*
X192676400Y-107981200D03*
X192176400Y-107981200D03*
X193176400Y-107981200D03*
D32*
X192161400Y-106131200D03*
D33*
X191176400Y-103081200D03*
D36*
X194011400Y-104251200D03*
D38*
X193636400Y-105501200D03*
D36*
X194011400Y-104751200D03*
X194011400Y-106751200D03*
D35*
X192176400Y-102916200D03*
D36*
X194011400Y-107251200D03*
D35*
X193176400Y-102916200D03*
D37*
X192676400Y-103291200D03*
D36*
X194011400Y-103751200D03*
X194011400Y-105251200D03*
X194011400Y-106251200D03*
X194011400Y-105751200D03*
D35*
X192676400Y-102916200D03*
D33*
X191676400Y-103081200D03*
X190676400Y-103081200D03*
X190176400Y-103081200D03*
X189676400Y-103081200D03*
%TD*%
D22*
%TO.C,C25*%
X188301400Y-101006200D03*
X187341400Y-101006200D03*
%TD*%
D45*
%TO.C,U1*%
X162839400Y-112566500D03*
X162839400Y-110666500D03*
X160964400Y-111616500D03*
%TD*%
D46*
%TO.C,C9*%
X161826378Y-100801252D03*
X162922394Y-101897268D03*
%TD*%
D24*
%TO.C,R30*%
X171985400Y-112674400D03*
X170965400Y-112674400D03*
%TD*%
D11*
%TO.C,C2*%
X164185600Y-111136500D03*
X164185600Y-112096500D03*
%TD*%
D26*
%TO.C,R9*%
X183189824Y-99740776D03*
X182468576Y-100462024D03*
%TD*%
%TO.C,R13*%
X183672424Y-100807576D03*
X182951176Y-101528824D03*
%TD*%
D47*
%TO.C,U2*%
X163007000Y-96006500D03*
X163957000Y-96006500D03*
X164907000Y-96006500D03*
X164907000Y-93731500D03*
X163957000Y-93731500D03*
X163007000Y-93731500D03*
%TD*%
D24*
%TO.C,R10*%
X181533800Y-100330000D03*
X180513800Y-100330000D03*
%TD*%
D48*
%TO.C,C28*%
X158673800Y-115470200D03*
X158673800Y-112520200D03*
%TD*%
D49*
%TO.C,C6*%
X161125972Y-105065290D03*
X161804794Y-104386468D03*
%TD*%
D28*
%TO.C,IC3*%
X146773200Y-113885600D03*
X146773200Y-113385600D03*
X146773200Y-112885600D03*
X146773200Y-112385600D03*
D29*
X145533200Y-113170600D03*
D28*
X146773200Y-111885600D03*
X146773200Y-111385600D03*
X146773200Y-110885600D03*
D31*
X145533200Y-111020600D03*
D30*
X146093200Y-109655600D03*
D28*
X146773200Y-110385600D03*
D30*
X145593200Y-109655600D03*
X145093200Y-109655600D03*
D34*
X143173200Y-113455600D03*
D30*
X143093200Y-109655600D03*
X143593200Y-109655600D03*
X142593200Y-109655600D03*
X144093200Y-109655600D03*
D33*
X144593200Y-114555600D03*
D32*
X143608200Y-111505600D03*
D36*
X141758200Y-112885600D03*
D35*
X143593200Y-114720600D03*
D36*
X141758200Y-110885600D03*
X141758200Y-110385600D03*
X141758200Y-113885600D03*
X141758200Y-111885600D03*
D35*
X143093200Y-114720600D03*
D36*
X141758200Y-112385600D03*
D35*
X142593200Y-114720600D03*
D37*
X143093200Y-114345600D03*
D38*
X142133200Y-112135600D03*
D36*
X141758200Y-113385600D03*
X141758200Y-111385600D03*
D33*
X144093200Y-114555600D03*
X145093200Y-114555600D03*
X145593200Y-114555600D03*
X146093200Y-114555600D03*
%TD*%
D44*
%TO.C,C7*%
X165563994Y-108196468D03*
X164885172Y-108875290D03*
%TD*%
D50*
%TO.C,R5*%
X182801900Y-107365800D03*
X180976900Y-107365800D03*
%TD*%
D24*
%TO.C,R28*%
X171985400Y-111480600D03*
X170965400Y-111480600D03*
%TD*%
D19*
%TO.C,R2*%
X170305000Y-93522800D03*
X171325000Y-93522800D03*
%TD*%
D28*
%TO.C,IC2*%
X188996400Y-96751200D03*
X188996400Y-97251200D03*
X188996400Y-97751200D03*
D29*
X190236400Y-97466200D03*
D28*
X188996400Y-98251200D03*
X188996400Y-98751200D03*
X188996400Y-99251200D03*
X188996400Y-99751200D03*
D30*
X190176400Y-100981200D03*
X189676400Y-100981200D03*
D28*
X188996400Y-100251200D03*
D30*
X190676400Y-100981200D03*
D31*
X190236400Y-99616200D03*
D33*
X191176400Y-96081200D03*
D30*
X192676400Y-100981200D03*
D32*
X192161400Y-99131200D03*
D30*
X192176400Y-100981200D03*
D34*
X192596400Y-97181200D03*
D30*
X193176400Y-100981200D03*
X191676400Y-100981200D03*
D37*
X192676400Y-96291200D03*
D36*
X194011400Y-97751200D03*
X194011400Y-100251200D03*
X194011400Y-99751200D03*
X194011400Y-98251200D03*
D38*
X193636400Y-98501200D03*
D36*
X194011400Y-96751200D03*
D35*
X193176400Y-95916200D03*
D36*
X194011400Y-99251200D03*
D35*
X192176400Y-95916200D03*
X192676400Y-95916200D03*
D36*
X194011400Y-97251200D03*
X194011400Y-98751200D03*
D33*
X191676400Y-96081200D03*
X190676400Y-96081200D03*
X190176400Y-96081200D03*
X189676400Y-96081200D03*
%TD*%
D28*
%TO.C,IC6*%
X188996400Y-110751200D03*
X188996400Y-111251200D03*
X188996400Y-111751200D03*
D29*
X190236400Y-111466200D03*
D28*
X188996400Y-112251200D03*
X188996400Y-112751200D03*
X188996400Y-113251200D03*
X188996400Y-113751200D03*
D31*
X190236400Y-113616200D03*
D30*
X189676400Y-114981200D03*
D28*
X188996400Y-114251200D03*
D30*
X190676400Y-114981200D03*
X190176400Y-114981200D03*
X193176400Y-114981200D03*
D34*
X192596400Y-111181200D03*
D33*
X191176400Y-110081200D03*
D30*
X192176400Y-114981200D03*
D32*
X192161400Y-113131200D03*
D30*
X191676400Y-114981200D03*
X192676400Y-114981200D03*
D35*
X192176400Y-109916200D03*
D36*
X194011400Y-111751200D03*
X194011400Y-110751200D03*
X194011400Y-113751200D03*
X194011400Y-112751200D03*
D35*
X192676400Y-109916200D03*
D36*
X194011400Y-113251200D03*
D38*
X193636400Y-112501200D03*
D36*
X194011400Y-112251200D03*
X194011400Y-111251200D03*
D35*
X193176400Y-109916200D03*
D37*
X192676400Y-110291200D03*
D36*
X194011400Y-114251200D03*
D33*
X191676400Y-110081200D03*
X190676400Y-110081200D03*
X190176400Y-110081200D03*
X189676400Y-110081200D03*
%TD*%
D21*
%TO.C,C30*%
X147525800Y-95631000D03*
X148485800Y-95631000D03*
%TD*%
D51*
%TO.C,Y1*%
X161739478Y-106801514D03*
X163295113Y-108357149D03*
X164497194Y-107155068D03*
X162941559Y-105599433D03*
%TD*%
D52*
%TO.C,D2*%
X154432000Y-105689500D03*
X154432000Y-104114500D03*
%TD*%
D15*
%TO.C,R15*%
X151836176Y-95854576D03*
X152557424Y-96575824D03*
%TD*%
%TO.C,R19*%
X152242576Y-94432176D03*
X152963824Y-95153424D03*
%TD*%
D43*
%TO.C,C8*%
X167591506Y-109327002D03*
X166912684Y-108648180D03*
%TD*%
D53*
%TO.C,IC1*%
X164379119Y-103723181D03*
X164732672Y-104076734D03*
X165086225Y-104430287D03*
X165439779Y-104783841D03*
X165793332Y-105137394D03*
X166146886Y-105490948D03*
X166500439Y-105844501D03*
X166853992Y-106198054D03*
X167207546Y-106551608D03*
X167561099Y-106905161D03*
X167914652Y-107258714D03*
X168268206Y-107612268D03*
X168621759Y-107965821D03*
X168975313Y-108319375D03*
X169328866Y-108672928D03*
X169682419Y-109026481D03*
D54*
X172404781Y-109026481D03*
X172758334Y-108672928D03*
X173111887Y-108319375D03*
X173465441Y-107965821D03*
X173818994Y-107612268D03*
X174172548Y-107258714D03*
X174526101Y-106905161D03*
X174879654Y-106551608D03*
X175233208Y-106198054D03*
X175586761Y-105844501D03*
X175940314Y-105490948D03*
X176293868Y-105137394D03*
X176647421Y-104783841D03*
X177000975Y-104430287D03*
X177354528Y-104076734D03*
X177708081Y-103723181D03*
D53*
X177708081Y-101000819D03*
X177354528Y-100647266D03*
X177000975Y-100293713D03*
X176647421Y-99940159D03*
X176293868Y-99586606D03*
X175940314Y-99233052D03*
X175586761Y-98879499D03*
X175233208Y-98525946D03*
X174879654Y-98172392D03*
X174526101Y-97818839D03*
X174172548Y-97465286D03*
X173818994Y-97111732D03*
X173465441Y-96758179D03*
X173111887Y-96404625D03*
X172758334Y-96051072D03*
X172404781Y-95697519D03*
D54*
X169682419Y-95697519D03*
X169328866Y-96051072D03*
X168975313Y-96404625D03*
X168621759Y-96758179D03*
X168268206Y-97111732D03*
X167914652Y-97465286D03*
X167561099Y-97818839D03*
X167207546Y-98172392D03*
X166853992Y-98525946D03*
X166500439Y-98879499D03*
X166146886Y-99233052D03*
X165793332Y-99586606D03*
X165439779Y-99940159D03*
X165086225Y-100293713D03*
X164732672Y-100647266D03*
X164379119Y-101000819D03*
%TD*%
D27*
%TO.C,R25*%
X184104224Y-112577824D03*
X183382976Y-111856576D03*
%TD*%
D55*
%TO.C,R6*%
X170059794Y-115363268D03*
X170059794Y-114343268D03*
%TD*%
D56*
%TO.C,L1*%
X166446200Y-114760200D03*
X166446200Y-111960200D03*
%TD*%
D17*
%TO.C,R12*%
X152044400Y-98092800D03*
X152044400Y-99112800D03*
%TD*%
%TO.C,R20*%
X154330400Y-98092800D03*
X154330400Y-99112800D03*
%TD*%
D49*
%TO.C,C10*%
X163107172Y-100052279D03*
X163785994Y-99373457D03*
%TD*%
D21*
%TO.C,C31*%
X147525800Y-109651800D03*
X148485800Y-109651800D03*
%TD*%
M02*
