%TF.GenerationSoftware,KiCad,Pcbnew,(6.0.5)*%
%TF.CreationDate,2022-09-09T17:06:15+01:00*%
%TF.ProjectId,ESC,4553432e-6b69-4636-9164-5f7063625858,rev?*%
%TF.SameCoordinates,Original*%
%TF.FileFunction,Copper,L2,Bot*%
%TF.FilePolarity,Positive*%
%FSLAX46Y46*%
G04 Gerber Fmt 4.6, Leading zero omitted, Abs format (unit mm)*
G04 Created by KiCad (PCBNEW (6.0.5)) date 2022-09-09 17:06:15*
%MOMM*%
%LPD*%
G01*
G04 APERTURE LIST*
G04 Aperture macros list*
%AMRoundRect*
0 Rectangle with rounded corners*
0 $1 Rounding radius*
0 $2 $3 $4 $5 $6 $7 $8 $9 X,Y pos of 4 corners*
0 Add a 4 corners polygon primitive as box body*
4,1,4,$2,$3,$4,$5,$6,$7,$8,$9,$2,$3,0*
0 Add four circle primitives for the rounded corners*
1,1,$1+$1,$2,$3*
1,1,$1+$1,$4,$5*
1,1,$1+$1,$6,$7*
1,1,$1+$1,$8,$9*
0 Add four rect primitives between the rounded corners*
20,1,$1+$1,$2,$3,$4,$5,0*
20,1,$1+$1,$4,$5,$6,$7,0*
20,1,$1+$1,$6,$7,$8,$9,0*
20,1,$1+$1,$8,$9,$2,$3,0*%
%AMHorizOval*
0 Thick line with rounded ends*
0 $1 width*
0 $2 $3 position (X,Y) of the first rounded end (center of the circle)*
0 $4 $5 position (X,Y) of the second rounded end (center of the circle)*
0 Add line between two ends*
20,1,$1,$2,$3,$4,$5,0*
0 Add two circle primitives to create the rounded ends*
1,1,$1,$2,$3*
1,1,$1,$4,$5*%
%AMRotRect*
0 Rectangle, with rotation*
0 The origin of the aperture is its center*
0 $1 length*
0 $2 width*
0 $3 Rotation angle, in degrees counterclockwise*
0 Add horizontal line*
21,1,$1,$2,0,0,$3*%
%AMFreePoly0*
4,1,22,0.499999,-0.750000,0.000000,-0.750000,0.000000,-0.745033,-0.079941,-0.743568,-0.215256,-0.701293,-0.333266,-0.622738,-0.424486,-0.514219,-0.481581,-0.384460,-0.499164,-0.250000,-0.500000,-0.250000,-0.500000,0.250000,-0.499164,0.250000,-0.499963,0.256109,-0.478152,0.396186,-0.417904,0.524511,-0.324060,0.630769,-0.204165,0.706417,-0.067858,0.745374,0.000000,0.744960,0.000000,0.750000,
0.499999,0.750000,0.499999,-0.750000,0.499999,-0.750000,$1*%
%AMFreePoly1*
4,1,20,0.000000,0.744960,0.073905,0.744508,0.209726,0.703889,0.328688,0.626782,0.421226,0.519385,0.479903,0.390333,0.500000,0.250000,0.500000,-0.250000,0.499851,-0.262216,0.476331,-0.402017,0.414519,-0.529596,0.319384,-0.634700,0.198574,-0.708877,0.061801,-0.746166,0.000000,-0.745033,0.000000,-0.750000,-0.499999,-0.750000,-0.499999,0.750000,0.000000,0.750000,0.000000,0.744960,
0.000000,0.744960,$1*%
G04 Aperture macros list end*
%TA.AperFunction,SMDPad,CuDef*%
%ADD10RoundRect,0.250000X-0.353553X0.707107X-0.707107X0.353553X0.353553X-0.707107X0.707107X-0.353553X0*%
%TD*%
%TA.AperFunction,ComponentPad*%
%ADD11O,0.750000X1.650000*%
%TD*%
%TA.AperFunction,ComponentPad*%
%ADD12HorizOval,1.700000X0.000000X0.000000X0.000000X0.000000X0*%
%TD*%
%TA.AperFunction,ComponentPad*%
%ADD13RotRect,1.700000X1.700000X315.000000*%
%TD*%
%TA.AperFunction,SMDPad,CuDef*%
%ADD14RoundRect,0.250000X0.250000X0.750000X-0.250000X0.750000X-0.250000X-0.750000X0.250000X-0.750000X0*%
%TD*%
%TA.AperFunction,ComponentPad*%
%ADD15C,0.500000*%
%TD*%
%TA.AperFunction,SMDPad,CuDef*%
%ADD16FreePoly0,45.000000*%
%TD*%
%TA.AperFunction,SMDPad,CuDef*%
%ADD17FreePoly1,45.000000*%
%TD*%
%TA.AperFunction,ViaPad*%
%ADD18C,0.500000*%
%TD*%
%TA.AperFunction,Conductor*%
%ADD19C,0.200000*%
%TD*%
%TA.AperFunction,Conductor*%
%ADD20C,0.250000*%
%TD*%
%TA.AperFunction,Conductor*%
%ADD21C,0.150000*%
%TD*%
%TA.AperFunction,Conductor*%
%ADD22C,0.300000*%
%TD*%
G04 APERTURE END LIST*
D10*
%TO.P,J17,1,Pin_1*%
%TO.N,+5V*%
X176250600Y-94030800D03*
%TD*%
%TO.P,J16,1,Pin_1*%
%TO.N,GND*%
X165000000Y-95200000D03*
%TD*%
%TO.P,J15,1,Pin_1*%
%TO.N,I2C1_SCL*%
X163800000Y-96400000D03*
%TD*%
%TO.P,J14,1,Pin_1*%
%TO.N,I2C1_SDA*%
X162600000Y-97600000D03*
%TD*%
%TO.P,J4,1,Pin_1*%
%TO.N,+5V*%
X161400000Y-98800000D03*
%TD*%
%TO.P,J13,1,Pin_1*%
%TO.N,GND*%
X169138600Y-94056200D03*
%TD*%
%TO.P,J12,1,Pin_1*%
%TO.N,SWCLK*%
X170942000Y-94081600D03*
%TD*%
%TO.P,J11,1,Pin_1*%
%TO.N,SWDIO*%
X172694600Y-94056200D03*
%TD*%
%TO.P,J2,1,Pin_1*%
%TO.N,+3V3*%
X174472600Y-94056200D03*
%TD*%
D11*
%TO.P,J1,*%
%TO.N,*%
X154985200Y-94239600D03*
X160635200Y-94239600D03*
%TD*%
D12*
%TO.P,J3,3,Pin_3*%
%TO.N,+5V*%
X174817498Y-113802702D03*
%TO.P,J3,2,Pin_2*%
%TO.N,PPM_IN*%
X176613549Y-112006651D03*
D13*
%TO.P,J3,1,Pin_1*%
%TO.N,GND*%
X178409600Y-110210600D03*
%TD*%
D10*
%TO.P,J10,1,Pin_1*%
%TO.N,GND*%
X170942000Y-97815400D03*
%TD*%
%TO.P,J9,1,Pin_1*%
%TO.N,GND*%
X172796200Y-99949000D03*
%TD*%
D14*
%TO.P,J8,1,Pin_1*%
%TO.N,GND*%
X170027600Y-102438200D03*
%TD*%
%TO.P,J7,1,Pin_1*%
%TO.N,PWM_3*%
X168630600Y-103505000D03*
%TD*%
D10*
%TO.P,J6,1,Pin_1*%
%TO.N,PWM_2*%
X171653200Y-101066600D03*
%TD*%
%TO.P,J5,1,Pin_1*%
%TO.N,PWM_1*%
X169849800Y-98882200D03*
%TD*%
D15*
%TO.P,IC7,8,VIN*%
%TO.N,+BATT*%
X145821400Y-96352600D03*
X145262600Y-97020600D03*
X145821400Y-97673400D03*
%TO.P,IC7,12,PGND*%
%TO.N,/M2_PGND_preshunt*%
X143129000Y-98435400D03*
X144094200Y-97521000D03*
X144094200Y-96555800D03*
X144094200Y-98435400D03*
X143129000Y-97521000D03*
X143129000Y-96555800D03*
X143173200Y-99455600D03*
%TD*%
%TO.P,IC5,8,VIN*%
%TO.N,+BATT*%
X145262600Y-104020600D03*
X145821400Y-103352600D03*
X145821400Y-104673400D03*
%TO.P,IC5,12,PGND*%
%TO.N,/M2_PGND_preshunt*%
X143129000Y-104521000D03*
X143173200Y-106455600D03*
X144094200Y-104521000D03*
X144094200Y-105435400D03*
X144094200Y-103555800D03*
X143129000Y-105435400D03*
X143129000Y-103555800D03*
%TD*%
%TO.P,IC4,8,VIN*%
%TO.N,+BATT*%
X189948200Y-107284200D03*
X190507000Y-106616200D03*
X189948200Y-105963400D03*
%TO.P,IC4,12,PGND*%
%TO.N,/M1_PGND_preshunt*%
X192640600Y-107081000D03*
X192596400Y-104181200D03*
X191675400Y-107081000D03*
X192640600Y-105201400D03*
X191675400Y-105201400D03*
X192640600Y-106115800D03*
X191675400Y-106115800D03*
%TD*%
%TO.P,IC3,8,VIN*%
%TO.N,+BATT*%
X145821400Y-110352600D03*
X145821400Y-111673400D03*
X145262600Y-111020600D03*
%TO.P,IC3,12,PGND*%
%TO.N,/M2_PGND_preshunt*%
X143173200Y-113455600D03*
X143129000Y-112435400D03*
X144094200Y-110555800D03*
X143129000Y-111521000D03*
X144094200Y-112435400D03*
X143129000Y-110555800D03*
X144094200Y-111521000D03*
%TD*%
%TO.P,IC2,8,VIN*%
%TO.N,+BATT*%
X189948200Y-98963400D03*
X189948200Y-100284200D03*
X190507000Y-99616200D03*
%TO.P,IC2,12,PGND*%
%TO.N,/M1_PGND_preshunt*%
X192640600Y-100081000D03*
X191675400Y-98201400D03*
X191675400Y-100081000D03*
X192640600Y-98201400D03*
X192640600Y-99115800D03*
X192596400Y-97181200D03*
X191675400Y-99115800D03*
%TD*%
%TO.P,IC6,8,VIN*%
%TO.N,+BATT*%
X190507000Y-113616200D03*
X189948200Y-112963400D03*
X189948200Y-114284200D03*
%TO.P,IC6,12,PGND*%
%TO.N,/M1_PGND_preshunt*%
X192640600Y-114081000D03*
X192640600Y-112201400D03*
X191675400Y-114081000D03*
X192640600Y-113115800D03*
X192596400Y-111181200D03*
X191675400Y-112201400D03*
X191675400Y-113115800D03*
%TD*%
D16*
%TO.P,JP1,1,A*%
%TO.N,+3V3*%
X167284400Y-101955600D03*
D17*
%TO.P,JP1,2,B*%
%TO.N,/BOOT0*%
X168203638Y-101036362D03*
%TD*%
D18*
%TO.N,+3V3*%
X157048200Y-100584000D03*
X162636200Y-100660200D03*
X156903875Y-110140246D03*
%TO.N,GND*%
X157536560Y-98114440D03*
X179924758Y-106942842D03*
X153416000Y-102387400D03*
%TO.N,I2C1_SCL*%
X165531800Y-96951800D03*
%TO.N,I2C1_SDA*%
X167284400Y-99669600D03*
%TO.N,+3V3*%
X173532800Y-93599000D03*
%TO.N,SWDIO*%
X174396400Y-95808800D03*
%TO.N,SWCLK*%
X168706800Y-95021400D03*
%TO.N,+3V3*%
X173228000Y-103632000D03*
X165455600Y-110484794D03*
%TO.N,/M1_PGND_preshunt*%
X191693800Y-101803200D03*
X191592200Y-108864400D03*
%TO.N,PWM_1*%
X168452800Y-98704400D03*
%TO.N,PWM_2*%
X169011600Y-99390200D03*
%TO.N,PWM_3*%
X169265600Y-100330000D03*
%TO.N,+3V3*%
X167919400Y-113842800D03*
X171348400Y-109321600D03*
%TO.N,+5V*%
X186131200Y-95275400D03*
%TO.N,/M2_PGND_preshunt*%
X147472400Y-118516400D03*
X143611600Y-108915200D03*
X143560800Y-101904800D03*
X144373600Y-101600000D03*
X144449800Y-108508800D03*
X145338800Y-118364000D03*
X143179800Y-117856000D03*
X144449800Y-117348000D03*
X143154400Y-115849400D03*
X144424400Y-115671600D03*
%TO.N,TEMP_ind*%
X155448000Y-104241600D03*
%TO.N,+BATT*%
X159054800Y-113436400D03*
X157429200Y-113639600D03*
%TO.N,M2_COM*%
X167995600Y-105156000D03*
X153924000Y-100736400D03*
%TO.N,GND*%
X153720800Y-116027200D03*
%TO.N,+5V*%
X152603200Y-113461800D03*
%TO.N,2C_THWn*%
X151739600Y-101447600D03*
X158648400Y-101396800D03*
%TO.N,2C_Gate*%
X164896800Y-98501200D03*
%TO.N,+3V3*%
X165150800Y-101955600D03*
%TO.N,2B_THWn*%
X158800800Y-105105200D03*
X152958800Y-106680000D03*
%TO.N,EN*%
X166014400Y-103530400D03*
X170840400Y-107289600D03*
%TO.N,2A_THWn*%
X152857200Y-112217200D03*
X154711400Y-110845600D03*
%TO.N,ZCD_EN#*%
X169595800Y-104292400D03*
X160629600Y-109067600D03*
%TO.N,2B_Vsense*%
X157810200Y-109728000D03*
X172389800Y-105765600D03*
%TO.N,2C_Vsense*%
X166319200Y-107442000D03*
X157429200Y-108864400D03*
%TO.N,2A_Vsense*%
X158750000Y-109626400D03*
%TO.N,M2_COM*%
X170383200Y-105460800D03*
%TO.N,OPAMP3_VIN+*%
X174625000Y-108331000D03*
%TO.N,GND*%
X181051200Y-108635800D03*
%TO.N,OPAMP3_VIN+*%
X183007000Y-109982000D03*
%TO.N,2B_Gate*%
X152146000Y-107188000D03*
X159867600Y-107594400D03*
%TO.N,+BATT*%
X180009800Y-112699800D03*
X146481800Y-94894400D03*
X147345400Y-101854000D03*
X189026800Y-115011200D03*
X170840400Y-115722400D03*
X189052200Y-100812600D03*
X188391800Y-108813600D03*
X180924200Y-113842800D03*
X147370800Y-94894400D03*
X189026800Y-108026200D03*
X161493200Y-115646200D03*
X187934600Y-115798600D03*
X188722000Y-101676200D03*
X145592800Y-94894400D03*
X146786600Y-95656400D03*
X146761200Y-109753400D03*
X188518800Y-94615000D03*
X147396200Y-108839000D03*
X146761200Y-102641400D03*
X189788800Y-115874800D03*
%TO.N,GND*%
X186105800Y-113512600D03*
X148488400Y-101879400D03*
X148564600Y-99060000D03*
X187350400Y-97688400D03*
X175133000Y-95377000D03*
X187325000Y-94894400D03*
X187350400Y-101574600D03*
X172034200Y-115697000D03*
X171678600Y-110820200D03*
X180695600Y-96774000D03*
X148590000Y-113055400D03*
X148564600Y-106019600D03*
X187325000Y-104952800D03*
X148488400Y-94945200D03*
X148488400Y-108940600D03*
X187350400Y-108585000D03*
%TO.N,+3V3*%
X182448200Y-109220000D03*
%TO.N,+5V*%
X149783800Y-113055400D03*
X186105800Y-109194600D03*
X186131200Y-97510600D03*
X177190400Y-93370400D03*
X186105800Y-102311200D03*
X186105800Y-111404400D03*
X149809200Y-106426000D03*
X149860000Y-99415600D03*
X149809200Y-108331000D03*
X186105800Y-104470200D03*
X149834600Y-101396800D03*
%TO.N,TEMP_ind*%
X166878000Y-103378000D03*
%TO.N,VDC_sense*%
X168942194Y-113362901D03*
X169951400Y-107315000D03*
%TO.N,1A_Vsense*%
X178638200Y-102997000D03*
X175514000Y-103505000D03*
%TO.N,1B_Vsense*%
X175641000Y-107569000D03*
X179476400Y-102387400D03*
%TO.N,2A_Vsense*%
X177927000Y-99314000D03*
%TO.N,PPM_IN*%
X175869600Y-100711000D03*
%TO.N,USB_D-*%
X173075600Y-97840800D03*
X165709600Y-93878400D03*
%TO.N,USB_D+*%
X166395400Y-94335600D03*
X173177200Y-98755200D03*
%TO.N,ZCD_EN#*%
X150901400Y-112649000D03*
X178435000Y-106349800D03*
X184759600Y-98526600D03*
X184251600Y-111048800D03*
X184759600Y-104114600D03*
X150774400Y-99415600D03*
X151130000Y-106756200D03*
%TO.N,1A*%
X184607200Y-101295200D03*
X194640200Y-95910400D03*
%TO.N,EN*%
X151003000Y-100939600D03*
X151028400Y-113995200D03*
X184759600Y-103073200D03*
X185140600Y-96647000D03*
X184759600Y-110083600D03*
X151155400Y-107823000D03*
%TO.N,2A*%
X138226800Y-112242600D03*
X150545800Y-93141800D03*
%TO.N,1B*%
X195770500Y-102933500D03*
X184124600Y-100355400D03*
%TO.N,1B_THWn*%
X182778400Y-98856800D03*
X175844200Y-97180400D03*
%TO.N,2B*%
X149796500Y-93573600D03*
X139776200Y-103809800D03*
%TO.N,1C*%
X196621400Y-110921800D03*
X183642000Y-99288600D03*
%TO.N,1C_THWn*%
X175133000Y-96494600D03*
X184581800Y-108737400D03*
%TO.N,2C_Gate*%
X151231600Y-100101400D03*
%TO.N,2C*%
X149047200Y-94005400D03*
X140690600Y-96977200D03*
%TO.N,M1_COM*%
X180416200Y-102641400D03*
X175641000Y-108585000D03*
%TO.N,M2_COM*%
X175183800Y-104292400D03*
X176911000Y-101803200D03*
%TO.N,/BOOT0*%
X166674800Y-100457000D03*
X161823400Y-102463600D03*
%TO.N,/M1_PGND_preshunt*%
X191135000Y-118338600D03*
X192481200Y-117348000D03*
X189661800Y-117424200D03*
X191693800Y-116230400D03*
X187909200Y-118440200D03*
%TO.N,/M2_SHUNT+*%
X168300400Y-110769400D03*
X152501600Y-114579400D03*
%TO.N,/M2_SHUNT-*%
X154609800Y-114579400D03*
X168300400Y-111937800D03*
%TD*%
D19*
%TO.N,/M2_SHUNT+*%
X168055501Y-111014299D02*
X156066701Y-111014299D01*
X168300400Y-110769400D02*
X168055501Y-111014299D01*
X156066701Y-111014299D02*
X152501600Y-114579400D01*
D20*
%TO.N,+3V3*%
X173228000Y-105943400D02*
X173228000Y-103632000D01*
X172542200Y-106629200D02*
X173228000Y-105943400D01*
X165455600Y-110484794D02*
X165892606Y-110484794D01*
X157380629Y-110617000D02*
X156903875Y-110140246D01*
X165892606Y-110484794D02*
X169748200Y-106629200D01*
X169748200Y-106629200D02*
X172542200Y-106629200D01*
X159644206Y-110484794D02*
X159512000Y-110617000D01*
X165455600Y-110484794D02*
X159644206Y-110484794D01*
X159512000Y-110617000D02*
X157380629Y-110617000D01*
D21*
%TO.N,2A_THWn*%
X154228800Y-110845600D02*
X154711400Y-110845600D01*
X152857200Y-112217200D02*
X154228800Y-110845600D01*
D22*
%TO.N,GND*%
X175869600Y-95377000D02*
X175133000Y-95377000D01*
X177648600Y-97156000D02*
X175869600Y-95377000D01*
X180695600Y-96774000D02*
X180313600Y-97156000D01*
X180313600Y-97156000D02*
X177648600Y-97156000D01*
D21*
%TO.N,EN*%
X185140600Y-96647000D02*
X185369200Y-96875600D01*
X185369200Y-102463600D02*
X184759600Y-103073200D01*
X185369200Y-96875600D02*
X185369200Y-102463600D01*
%TO.N,1B_THWn*%
X182372000Y-98450400D02*
X177114200Y-98450400D01*
X182778400Y-98856800D02*
X182372000Y-98450400D01*
D20*
%TO.N,+3V3*%
X157222320Y-100409880D02*
X157048200Y-100584000D01*
X162385880Y-100409880D02*
X157222320Y-100409880D01*
X162636200Y-100660200D02*
X162385880Y-100409880D01*
D21*
%TO.N,M2_COM*%
X167741600Y-104902000D02*
X167995600Y-105156000D01*
X167741600Y-103530400D02*
X167741600Y-104902000D01*
X166827200Y-102616000D02*
X167741600Y-103530400D01*
X165100000Y-102616000D02*
X166827200Y-102616000D01*
X159207200Y-100787200D02*
X161544000Y-103124000D01*
X158292800Y-100787200D02*
X159207200Y-100787200D01*
X157962600Y-101117400D02*
X158292800Y-100787200D01*
X161544000Y-103124000D02*
X164592000Y-103124000D01*
X156286200Y-101117400D02*
X157962600Y-101117400D01*
X164592000Y-103124000D02*
X165100000Y-102616000D01*
X155905200Y-100736400D02*
X156286200Y-101117400D01*
X153924000Y-100736400D02*
X155905200Y-100736400D01*
%TO.N,2C_Gate*%
X151384000Y-99949000D02*
X151231600Y-100101400D01*
X163439373Y-99958627D02*
X161566527Y-99958627D01*
X161556900Y-99949000D02*
X151384000Y-99949000D01*
X164896800Y-98501200D02*
X163439373Y-99958627D01*
X161566527Y-99958627D02*
X161556900Y-99949000D01*
%TO.N,2B_Vsense*%
X159473900Y-109918500D02*
X165671500Y-109918500D01*
X159207200Y-110185200D02*
X159473900Y-109918500D01*
X158267400Y-110185200D02*
X159207200Y-110185200D01*
X157810200Y-109728000D02*
X158267400Y-110185200D01*
X165671500Y-109918500D02*
X169468800Y-106121200D01*
%TO.N,PWM_3*%
X168630600Y-102362000D02*
X168630600Y-103505000D01*
X169265600Y-100330000D02*
X169265600Y-101727000D01*
X169265600Y-101727000D02*
X168630600Y-102362000D01*
%TO.N,I2C1_SDA*%
X162815400Y-97815400D02*
X162600000Y-97600000D01*
X165430200Y-97815400D02*
X162815400Y-97815400D01*
X167284400Y-99669600D02*
X165430200Y-97815400D01*
%TO.N,I2C1_SCL*%
X164453400Y-97053400D02*
X163800000Y-96400000D01*
X165531800Y-96951800D02*
X165430200Y-97053400D01*
X165430200Y-97053400D02*
X164453400Y-97053400D01*
D20*
%TO.N,+5V*%
X161385600Y-98800000D02*
X158953200Y-96367600D01*
X161400000Y-98800000D02*
X161385600Y-98800000D01*
X158953200Y-96367600D02*
X158953200Y-92633800D01*
X174853600Y-92633800D02*
X174269400Y-92633800D01*
X174269400Y-92633800D02*
X176453800Y-92633800D01*
X176250600Y-94030800D02*
X174853600Y-92633800D01*
X163423600Y-92633800D02*
X174269400Y-92633800D01*
X176530000Y-94030800D02*
X177190400Y-93370400D01*
X176250600Y-94030800D02*
X176530000Y-94030800D01*
X158953200Y-92633800D02*
X163423600Y-92633800D01*
X152095200Y-92633800D02*
X158953200Y-92633800D01*
D21*
%TO.N,PWM_2*%
X170459400Y-100711000D02*
X171653200Y-100711000D01*
X169138600Y-99390200D02*
X170459400Y-100711000D01*
X169011600Y-99390200D02*
X169138600Y-99390200D01*
X171653200Y-100711000D02*
X171856400Y-100914200D01*
%TO.N,1C*%
X183515000Y-96113600D02*
X183515000Y-99161600D01*
X183515000Y-99161600D02*
X183642000Y-99288600D01*
X193319400Y-93243400D02*
X186385200Y-93243400D01*
X186385200Y-93243400D02*
X183515000Y-96113600D01*
X196900800Y-96824800D02*
X193319400Y-93243400D01*
X196900800Y-110642400D02*
X196900800Y-96824800D01*
X196621400Y-110921800D02*
X196900800Y-110642400D01*
D20*
%TO.N,+3V3*%
X173532800Y-93599000D02*
X174015400Y-93599000D01*
X174015400Y-93599000D02*
X174472600Y-94056200D01*
D21*
%TO.N,SWCLK*%
X169443400Y-95758000D02*
X170611800Y-95758000D01*
X168706800Y-95021400D02*
X169443400Y-95758000D01*
X170611800Y-95758000D02*
X170942000Y-95427800D01*
X170942000Y-95427800D02*
X170942000Y-94081600D01*
%TO.N,SWDIO*%
X174396400Y-95808800D02*
X172694600Y-94107000D01*
X172694600Y-94107000D02*
X172694600Y-94056200D01*
%TO.N,USB_D-*%
X166605125Y-93751400D02*
X165836600Y-93751400D01*
X169119725Y-96266000D02*
X166605125Y-93751400D01*
X171253686Y-96266000D02*
X169119725Y-96266000D01*
X165836600Y-93751400D02*
X165709600Y-93878400D01*
X172828486Y-97840800D02*
X171253686Y-96266000D01*
X173075600Y-97840800D02*
X172828486Y-97840800D01*
%TO.N,USB_D+*%
X168716573Y-96656773D02*
X166395400Y-94335600D01*
X171078773Y-96656773D02*
X168716573Y-96656773D01*
X173177200Y-98755200D02*
X171078773Y-96656773D01*
%TO.N,2B*%
X149644100Y-93421200D02*
X149796500Y-93573600D01*
X139496800Y-96570800D02*
X142646400Y-93421200D01*
X139776200Y-103809800D02*
X139496800Y-103530400D01*
X139496800Y-103530400D02*
X139496800Y-96570800D01*
X142646400Y-93421200D02*
X149644100Y-93421200D01*
%TO.N,2A*%
X150317200Y-92913200D02*
X150545800Y-93141800D01*
X142595600Y-92913200D02*
X150317200Y-92913200D01*
X138226800Y-112242600D02*
X138226800Y-97282000D01*
X138226800Y-97282000D02*
X142595600Y-92913200D01*
D20*
%TO.N,+5V*%
X149783800Y-113563400D02*
X149783800Y-113055400D01*
X150774400Y-114554000D02*
X149783800Y-113563400D01*
X151511000Y-114554000D02*
X150774400Y-114554000D01*
X152603200Y-113461800D02*
X151511000Y-114554000D01*
D21*
%TO.N,EN*%
X176276000Y-113461800D02*
X170840400Y-108026200D01*
X179298600Y-111658400D02*
X177495200Y-113461800D01*
X184759600Y-111455200D02*
X184556400Y-111658400D01*
X184556400Y-111658400D02*
X179298600Y-111658400D01*
X177495200Y-113461800D02*
X176276000Y-113461800D01*
X170840400Y-108026200D02*
X170840400Y-107289600D01*
X184759600Y-110083600D02*
X184759600Y-111455200D01*
%TO.N,2B_Vsense*%
X172034200Y-106121200D02*
X172389800Y-105765600D01*
X169468800Y-106121200D02*
X172034200Y-106121200D01*
%TO.N,VDC_sense*%
X169951400Y-107315000D02*
X168942194Y-108324206D01*
X168942194Y-108324206D02*
X168942194Y-113362901D01*
%TO.N,2C*%
X140690600Y-95935800D02*
X142621000Y-94005400D01*
X142621000Y-94005400D02*
X149047200Y-94005400D01*
X140690600Y-96977200D02*
X140690600Y-95935800D01*
%TO.N,PWM_1*%
X169672000Y-98704400D02*
X169849800Y-98882200D01*
X168452800Y-98704400D02*
X169672000Y-98704400D01*
%TO.N,ZCD_EN#*%
X165404800Y-109067600D02*
X160629600Y-109067600D01*
X169595800Y-104876600D02*
X165404800Y-109067600D01*
X169595800Y-104292400D02*
X169595800Y-104876600D01*
D20*
%TO.N,+3V3*%
X169900600Y-113842800D02*
X169900600Y-110769400D01*
X169900600Y-110769400D02*
X171348400Y-109321600D01*
X169341800Y-114401600D02*
X169900600Y-113842800D01*
X168478200Y-114401600D02*
X169341800Y-114401600D01*
X167919400Y-113842800D02*
X168478200Y-114401600D01*
%TO.N,+5V*%
X177520600Y-114096800D02*
X175111596Y-114096800D01*
X179603400Y-112014000D02*
X177520600Y-114096800D01*
X185496200Y-112014000D02*
X179603400Y-112014000D01*
X175111596Y-114096800D02*
X174817498Y-113802702D01*
X186105800Y-111404400D02*
X185496200Y-112014000D01*
D21*
%TO.N,M1_COM*%
X180416200Y-103124000D02*
X180416200Y-102641400D01*
X176149000Y-107391200D02*
X180416200Y-103124000D01*
X175641000Y-108585000D02*
X176149000Y-108077000D01*
X176149000Y-108077000D02*
X176149000Y-107391200D01*
%TO.N,M2_COM*%
X176428400Y-102285800D02*
X176911000Y-101803200D01*
X174980600Y-104089200D02*
X174980600Y-102997000D01*
X174980600Y-102997000D02*
X175691800Y-102285800D01*
X175691800Y-102285800D02*
X176428400Y-102285800D01*
X175183800Y-104292400D02*
X174980600Y-104089200D01*
%TO.N,TEMP_ind*%
X164185600Y-104241600D02*
X155448000Y-104241600D01*
X164693600Y-103733600D02*
X164185600Y-104241600D01*
X165760400Y-102971600D02*
X165455600Y-102971600D01*
X166471600Y-102971600D02*
X165760400Y-102971600D01*
X165455600Y-102971600D02*
X164693600Y-103733600D01*
X166878000Y-103378000D02*
X166471600Y-102971600D01*
%TO.N,EN*%
X151485600Y-108153200D02*
X151155400Y-107823000D01*
X161363312Y-108153200D02*
X151485600Y-108153200D01*
X165986112Y-103530400D02*
X161363312Y-108153200D01*
X166014400Y-103530400D02*
X165986112Y-103530400D01*
%TO.N,2A_Vsense*%
X175641000Y-99314000D02*
X177927000Y-99314000D01*
X165354000Y-109601000D02*
X175641000Y-99314000D01*
X158775400Y-109601000D02*
X165354000Y-109601000D01*
X158750000Y-109626400D02*
X158775400Y-109601000D01*
%TO.N,2B_Gate*%
X159461200Y-107188000D02*
X152146000Y-107188000D01*
X159867600Y-107594400D02*
X159461200Y-107188000D01*
%TO.N,2C_THWn*%
X158597600Y-101447600D02*
X151739600Y-101447600D01*
X158648400Y-101396800D02*
X158597600Y-101447600D01*
%TO.N,2B_THWn*%
X157226000Y-106680000D02*
X152958800Y-106680000D01*
X158800800Y-105105200D02*
X157226000Y-106680000D01*
%TO.N,2C_Vsense*%
X165252400Y-108508800D02*
X166319200Y-107442000D01*
X157429200Y-108864400D02*
X157784800Y-108508800D01*
X157784800Y-108508800D02*
X165252400Y-108508800D01*
D22*
%TO.N,GND*%
X148615400Y-113055400D02*
X148590000Y-113055400D01*
X150723600Y-115163600D02*
X148615400Y-113055400D01*
X152857200Y-115163600D02*
X150723600Y-115163600D01*
X153720800Y-116027200D02*
X152857200Y-115163600D01*
D20*
%TO.N,+3V3*%
X165150800Y-101955600D02*
X167284400Y-101955600D01*
D21*
%TO.N,/BOOT0*%
X167624276Y-100457000D02*
X168203638Y-101036362D01*
X166674800Y-100457000D02*
X167624276Y-100457000D01*
%TO.N,M2_COM*%
X175387000Y-100203000D02*
X176403000Y-100203000D01*
X176911000Y-100711000D02*
X176911000Y-101803200D01*
X170434000Y-105410000D02*
X170434000Y-105156000D01*
X170434000Y-105156000D02*
X175387000Y-100203000D01*
X170383200Y-105460800D02*
X170434000Y-105410000D01*
X176403000Y-100203000D02*
X176911000Y-100711000D01*
%TO.N,PPM_IN*%
X173863000Y-102209600D02*
X173863000Y-109256102D01*
%TO.N,OPAMP3_VIN+*%
X183261000Y-109728000D02*
X183007000Y-109982000D01*
X183261000Y-109220000D02*
X183261000Y-109728000D01*
X181864000Y-107823000D02*
X183261000Y-109220000D01*
X179070000Y-107823000D02*
X181864000Y-107823000D01*
X177546000Y-109347000D02*
X179070000Y-107823000D01*
X175133000Y-109347000D02*
X177546000Y-109347000D01*
X174625000Y-108839000D02*
X175133000Y-109347000D01*
X174625000Y-108331000D02*
X174625000Y-108839000D01*
%TO.N,PPM_IN*%
X175361600Y-100711000D02*
X173863000Y-102209600D01*
X175869600Y-100711000D02*
X175361600Y-100711000D01*
X173863000Y-109256102D02*
X176613549Y-112006651D01*
%TO.N,1B_Vsense*%
X175641000Y-107391200D02*
X179476400Y-103555800D01*
X175641000Y-107569000D02*
X175641000Y-107391200D01*
X179476400Y-103555800D02*
X179476400Y-102387400D01*
D22*
%TO.N,GND*%
X181051200Y-108635800D02*
X179984400Y-108635800D01*
X179984400Y-108635800D02*
X178409600Y-110210600D01*
%TO.N,+BATT*%
X170840400Y-115722400D02*
X170840400Y-116408200D01*
%TO.N,GND*%
X171678600Y-114579400D02*
X172034200Y-114935000D01*
X171678600Y-110820200D02*
X171678600Y-114579400D01*
X172034200Y-114935000D02*
X172034200Y-115697000D01*
D20*
%TO.N,+5V*%
X149885400Y-94843600D02*
X152095200Y-92633800D01*
X176453800Y-92633800D02*
X177190400Y-93370400D01*
D21*
%TO.N,1A_Vsense*%
X178130200Y-103505000D02*
X178638200Y-102997000D01*
X175514000Y-103505000D02*
X178130200Y-103505000D01*
%TO.N,ZCD_EN#*%
X150495000Y-106121200D02*
X151130000Y-106756200D01*
X184124600Y-103479600D02*
X184759600Y-104114600D01*
X184251600Y-109880400D02*
X185092680Y-109039320D01*
X150495000Y-99695000D02*
X150495000Y-106121200D01*
X181152800Y-106121200D02*
X184251600Y-109220000D01*
X185092680Y-104447680D02*
X184759600Y-104114600D01*
X185092680Y-109039320D02*
X185092680Y-104447680D01*
X178663600Y-106121200D02*
X181152800Y-106121200D01*
X150495000Y-112242600D02*
X150495000Y-107391200D01*
X150901400Y-112649000D02*
X150495000Y-112242600D01*
X150774400Y-99415600D02*
X150495000Y-99695000D01*
X184251600Y-109220000D02*
X184251600Y-109880400D01*
X184251600Y-111048800D02*
X184251600Y-109880400D01*
X150495000Y-107391200D02*
X151130000Y-106756200D01*
X184759600Y-98526600D02*
X185092680Y-98859680D01*
X184124600Y-102743000D02*
X184124600Y-103479600D01*
X185092680Y-98859680D02*
X185092680Y-101774920D01*
X185092680Y-101774920D02*
X184124600Y-102743000D01*
X178435000Y-106349800D02*
X178663600Y-106121200D01*
%TO.N,1A*%
X184607200Y-99085400D02*
X184251600Y-98729800D01*
X184251600Y-98729800D02*
X184251600Y-96393000D01*
X192735200Y-94005400D02*
X194640200Y-95910400D01*
X186639200Y-94005400D02*
X192735200Y-94005400D01*
X184251600Y-96393000D02*
X186639200Y-94005400D01*
X184607200Y-101295200D02*
X184607200Y-99085400D01*
%TO.N,EN*%
X151155400Y-107823000D02*
X150771520Y-108206880D01*
X150774400Y-105689400D02*
X150774400Y-101168200D01*
X151409400Y-113614200D02*
X151028400Y-113995200D01*
X151638000Y-106553000D02*
X150774400Y-105689400D01*
X184759600Y-103073200D02*
X185369200Y-103682800D01*
X150774400Y-101168200D02*
X151003000Y-100939600D01*
X185369200Y-109474000D02*
X184759600Y-110083600D01*
X151409400Y-112445800D02*
X151409400Y-113614200D01*
X150771520Y-108206880D02*
X150771520Y-111807920D01*
X151638000Y-107340400D02*
X151638000Y-106553000D01*
X151155400Y-107823000D02*
X151638000Y-107340400D01*
X150771520Y-111807920D02*
X151409400Y-112445800D01*
X185369200Y-103682800D02*
X185369200Y-109474000D01*
%TO.N,1B*%
X186486800Y-93675200D02*
X183921400Y-96240600D01*
X184124600Y-99060000D02*
X184124600Y-100355400D01*
X193116200Y-93675200D02*
X186486800Y-93675200D01*
X183921400Y-98856800D02*
X184124600Y-99060000D01*
X195770500Y-96329500D02*
X193116200Y-93675200D01*
X183921400Y-96240600D02*
X183921400Y-98856800D01*
X195770500Y-102933500D02*
X195770500Y-96329500D01*
%TO.N,1B_THWn*%
X175844200Y-97180400D02*
X177114200Y-98450400D01*
%TO.N,1C_THWn*%
X181737000Y-98806000D02*
X183819800Y-100888800D01*
X175133000Y-96494600D02*
X175133000Y-97409000D01*
X183819800Y-104165400D02*
X184785000Y-105130600D01*
X175133000Y-97409000D02*
X176530000Y-98806000D01*
X184785000Y-108534200D02*
X184581800Y-108737400D01*
X176530000Y-98806000D02*
X181737000Y-98806000D01*
X183819800Y-100888800D02*
X183819800Y-104165400D01*
X184785000Y-105130600D02*
X184785000Y-108534200D01*
%TO.N,/BOOT0*%
X161823400Y-102463600D02*
X163830000Y-100457000D01*
X163830000Y-100457000D02*
X166674800Y-100457000D01*
D19*
%TO.N,/M2_SHUNT-*%
X156253096Y-111464301D02*
X154609800Y-113107597D01*
X154609800Y-113107597D02*
X154609800Y-114579400D01*
X167826901Y-111464301D02*
X156253096Y-111464301D01*
X168300400Y-111937800D02*
X167826901Y-111464301D01*
%TD*%
%TA.AperFunction,Conductor*%
%TO.N,+5V*%
G36*
X150288344Y-94440656D02*
G01*
X150291800Y-94449000D01*
X150291800Y-99590369D01*
X150289896Y-99596796D01*
X150279774Y-99612382D01*
X150279580Y-99613607D01*
X150277163Y-99628868D01*
X150276288Y-99631822D01*
X150269500Y-99647068D01*
X150269500Y-99676321D01*
X150269355Y-99678166D01*
X150264778Y-99707065D01*
X150265099Y-99708263D01*
X150269098Y-99723188D01*
X150269500Y-99726242D01*
X150269500Y-106114972D01*
X150269484Y-106115590D01*
X150267300Y-106157264D01*
X150267745Y-106158423D01*
X150267745Y-106158424D01*
X150277785Y-106184579D01*
X150278311Y-106186355D01*
X150284134Y-106213752D01*
X150284135Y-106213754D01*
X150284393Y-106214968D01*
X150289548Y-106222063D01*
X150291800Y-106228997D01*
X150291800Y-107286569D01*
X150289896Y-107292996D01*
X150279774Y-107308582D01*
X150279580Y-107309807D01*
X150277163Y-107325068D01*
X150276288Y-107328022D01*
X150269500Y-107343268D01*
X150269500Y-107372521D01*
X150269355Y-107374366D01*
X150264778Y-107403265D01*
X150265099Y-107404463D01*
X150269098Y-107419388D01*
X150269500Y-107422442D01*
X150269500Y-112236372D01*
X150269484Y-112236990D01*
X150267300Y-112278664D01*
X150267745Y-112279823D01*
X150267745Y-112279824D01*
X150277785Y-112305979D01*
X150278311Y-112307755D01*
X150284134Y-112335152D01*
X150284135Y-112335154D01*
X150284393Y-112336368D01*
X150289548Y-112343463D01*
X150291800Y-112350397D01*
X150291800Y-113424600D01*
X150288344Y-113432944D01*
X150280000Y-113436400D01*
X149426259Y-113436400D01*
X149417915Y-113432944D01*
X149304488Y-113319517D01*
X149301033Y-113311190D01*
X149275816Y-94449016D01*
X149279261Y-94440667D01*
X149287616Y-94437200D01*
X150280000Y-94437200D01*
X150288344Y-94440656D01*
G37*
%TD.AperFunction*%
%TD*%
%TA.AperFunction,Conductor*%
%TO.N,GND*%
G36*
X149043744Y-94440656D02*
G01*
X149047200Y-94449000D01*
X149047200Y-113424600D01*
X149043744Y-113432944D01*
X149035400Y-113436400D01*
X148068384Y-113436400D01*
X148060040Y-113432944D01*
X148056584Y-113424616D01*
X148031216Y-94449016D01*
X148034661Y-94440667D01*
X148043016Y-94437200D01*
X149035400Y-94437200D01*
X149043744Y-94440656D01*
G37*
%TD.AperFunction*%
%TD*%
%TA.AperFunction,Conductor*%
%TO.N,/M1_PGND_preshunt*%
G36*
X193366773Y-95685227D02*
G01*
X193370200Y-95693500D01*
X193370200Y-118995458D01*
X193368235Y-119001948D01*
X193322873Y-119069990D01*
X193315432Y-119074973D01*
X193313138Y-119075200D01*
X185186457Y-119075200D01*
X185178184Y-119071773D01*
X185174757Y-119063500D01*
X185176372Y-119057568D01*
X185925378Y-117784257D01*
X185933060Y-117778739D01*
X188658185Y-117207127D01*
X191132723Y-116688078D01*
X191132724Y-116688077D01*
X191135000Y-116687600D01*
X191135000Y-114655600D01*
X190982695Y-95693594D01*
X190986056Y-95685294D01*
X190994395Y-95681800D01*
X193358500Y-95681800D01*
X193366773Y-95685227D01*
G37*
%TD.AperFunction*%
%TD*%
%TA.AperFunction,Conductor*%
%TO.N,/M2_PGND_preshunt*%
G36*
X144680844Y-95304256D02*
G01*
X144681940Y-95305520D01*
X144752245Y-95399260D01*
X144754605Y-95406324D01*
X144780000Y-116052600D01*
X147116540Y-117373253D01*
X147117039Y-117373551D01*
X149774750Y-119053425D01*
X149779956Y-119060805D01*
X149778420Y-119069705D01*
X149771040Y-119074911D01*
X149768445Y-119075200D01*
X142802733Y-119075200D01*
X142795653Y-119072840D01*
X142779607Y-119060805D01*
X142397120Y-118773940D01*
X142392519Y-118766169D01*
X142392400Y-118764500D01*
X142392400Y-95312600D01*
X142395856Y-95304256D01*
X142404200Y-95300800D01*
X144672500Y-95300800D01*
X144680844Y-95304256D01*
G37*
%TD.AperFunction*%
%TD*%
%TA.AperFunction,Conductor*%
%TO.N,GND*%
G36*
X187804158Y-94288227D02*
G01*
X187807585Y-94296515D01*
X187782215Y-113881915D01*
X187778777Y-113890184D01*
X187770515Y-113893600D01*
X185609500Y-113893600D01*
X185601227Y-113890173D01*
X185597800Y-113881900D01*
X185597800Y-112736900D01*
X185601227Y-112728627D01*
X185609500Y-112725200D01*
X186791600Y-112725200D01*
X186791600Y-94296500D01*
X186795027Y-94288227D01*
X186803300Y-94284800D01*
X187795885Y-94284800D01*
X187804158Y-94288227D01*
G37*
%TD.AperFunction*%
%TD*%
%TA.AperFunction,Conductor*%
%TO.N,+5V*%
G36*
X186610373Y-94974027D02*
G01*
X186613800Y-94982300D01*
X186613800Y-112256300D01*
X186610373Y-112264573D01*
X186602100Y-112268000D01*
X185609500Y-112268000D01*
X185601227Y-112264573D01*
X185597800Y-112256300D01*
X185597800Y-109473096D01*
X185597944Y-109471266D01*
X185599230Y-109463149D01*
X185599230Y-109463147D01*
X185599422Y-109461934D01*
X185598199Y-109457369D01*
X185597800Y-109454342D01*
X185597800Y-102462696D01*
X185597944Y-102460866D01*
X185599230Y-102452749D01*
X185599230Y-102452747D01*
X185599422Y-102451534D01*
X185598199Y-102446969D01*
X185597800Y-102443942D01*
X185597800Y-95370551D01*
X185601227Y-95362278D01*
X185989478Y-94974027D01*
X185997751Y-94970600D01*
X186602100Y-94970600D01*
X186610373Y-94974027D01*
G37*
%TD.AperFunction*%
%TD*%
%TA.AperFunction,Conductor*%
%TO.N,+BATT*%
G36*
X189642143Y-94303754D02*
G01*
X189705434Y-94341828D01*
X190714666Y-95175542D01*
X190776056Y-95250839D01*
X190803958Y-95343901D01*
X190805079Y-95366913D01*
X190854626Y-116101905D01*
X190855115Y-116306753D01*
X190836389Y-116402086D01*
X190782606Y-116482996D01*
X190701954Y-116537166D01*
X190656806Y-116551133D01*
X189159450Y-116862465D01*
X185748812Y-117571607D01*
X185748810Y-117571608D01*
X185724800Y-117576600D01*
X185715548Y-117592838D01*
X185715547Y-117592839D01*
X184714621Y-119349568D01*
X184650980Y-119422977D01*
X184564091Y-119466444D01*
X184498274Y-119475300D01*
X150995701Y-119475300D01*
X150900413Y-119456346D01*
X150867088Y-119439512D01*
X145077847Y-115947217D01*
X145006045Y-115881768D01*
X144964756Y-115793824D01*
X144957465Y-115734601D01*
X144956876Y-115487460D01*
X144908855Y-95366913D01*
X144907596Y-94839194D01*
X144926322Y-94743861D01*
X144980106Y-94662951D01*
X145060758Y-94608782D01*
X145156595Y-94589600D01*
X147604732Y-94589600D01*
X147700020Y-94608554D01*
X147780802Y-94662530D01*
X147834778Y-94743312D01*
X147853732Y-94838267D01*
X147878767Y-113564277D01*
X147878800Y-113588800D01*
X149423476Y-114309649D01*
X149494247Y-114359218D01*
X150475571Y-115340542D01*
X150478175Y-115345869D01*
X150491203Y-115357954D01*
X150512377Y-115377596D01*
X150519106Y-115384077D01*
X150530877Y-115395848D01*
X150530488Y-115396237D01*
X150533763Y-115400279D01*
X150534009Y-115400435D01*
X150535391Y-115398945D01*
X150560246Y-115422001D01*
X150580960Y-115430265D01*
X150581148Y-115430389D01*
X150581356Y-115430476D01*
X150599746Y-115443092D01*
X150622113Y-115448400D01*
X150626577Y-115450378D01*
X150645832Y-115456468D01*
X150647900Y-115456971D01*
X150664222Y-115463483D01*
X150670515Y-115464100D01*
X150688271Y-115464100D01*
X150708666Y-115468940D01*
X150731448Y-115465840D01*
X150733748Y-115465952D01*
X150761099Y-115464100D01*
X151842059Y-115464100D01*
X151937347Y-115483054D01*
X151947357Y-115487460D01*
X153212800Y-116078000D01*
X153211044Y-116081763D01*
X153257969Y-116103669D01*
X153323575Y-116175327D01*
X153332508Y-116191367D01*
X153376367Y-116277445D01*
X153470555Y-116371633D01*
X153589238Y-116432105D01*
X153608588Y-116435170D01*
X153608589Y-116435170D01*
X153701448Y-116449877D01*
X153720800Y-116452942D01*
X153740152Y-116449877D01*
X153833011Y-116435170D01*
X153833012Y-116435170D01*
X153852362Y-116432105D01*
X153971045Y-116371633D01*
X154065233Y-116277445D01*
X154097067Y-116214968D01*
X154157215Y-116138670D01*
X154241982Y-116091198D01*
X154319156Y-116079011D01*
X154359110Y-116079048D01*
X155474273Y-116080067D01*
X155474275Y-116080067D01*
X155498798Y-116080089D01*
X155498800Y-113069381D01*
X155517754Y-112974093D01*
X155571731Y-112893311D01*
X155619689Y-112855867D01*
X157462325Y-111750285D01*
X157553785Y-111717513D01*
X157590434Y-111714801D01*
X159709678Y-111714801D01*
X159804966Y-111733755D01*
X159885748Y-111787731D01*
X159896076Y-111798705D01*
X161328998Y-113416520D01*
X161377989Y-113500419D01*
X161391600Y-113581616D01*
X161391600Y-115290600D01*
X161564930Y-115290600D01*
X161660218Y-115309554D01*
X161741000Y-115363530D01*
X161789527Y-115432096D01*
X162102792Y-116086573D01*
X162123884Y-116086592D01*
X162123885Y-116086592D01*
X171852875Y-116095255D01*
X171902444Y-116103129D01*
X171902638Y-116101905D01*
X172034200Y-116122742D01*
X172165762Y-116101905D01*
X172165985Y-116103315D01*
X172214977Y-116095577D01*
X181000400Y-116103400D01*
X180983914Y-116086424D01*
X178660257Y-113693746D01*
X178607468Y-113612184D01*
X178589911Y-113516628D01*
X178610257Y-113421628D01*
X178662814Y-113344202D01*
X179644586Y-112362430D01*
X179725368Y-112308454D01*
X179820656Y-112289500D01*
X180356727Y-112289500D01*
X180452015Y-112308454D01*
X180524578Y-112354578D01*
X182600600Y-114249200D01*
X182622553Y-114249097D01*
X184291266Y-114241263D01*
X188010800Y-114223800D01*
X188007597Y-111709200D01*
X187985718Y-94534117D01*
X188004551Y-94438805D01*
X188058424Y-94357955D01*
X188139137Y-94303876D01*
X188234718Y-94284800D01*
X189546855Y-94284800D01*
X189642143Y-94303754D01*
G37*
%TD.AperFunction*%
%TD*%
%TA.AperFunction,Conductor*%
%TO.N,GND*%
G36*
X170422687Y-107487945D02*
G01*
X170446172Y-107512308D01*
X170454005Y-107530110D01*
X170456251Y-107532782D01*
X170456253Y-107532785D01*
X170534790Y-107626216D01*
X170537039Y-107628891D01*
X170542747Y-107632690D01*
X170543054Y-107632895D01*
X170563942Y-107664042D01*
X170564900Y-107673683D01*
X170564900Y-107994244D01*
X170563958Y-108003803D01*
X170559503Y-108026200D01*
X170564900Y-108053332D01*
X170564900Y-108053333D01*
X170580885Y-108133695D01*
X170641776Y-108224824D01*
X170645787Y-108227504D01*
X170660766Y-108237513D01*
X170668191Y-108243607D01*
X171234464Y-108809880D01*
X171248816Y-108844528D01*
X171234464Y-108879176D01*
X171213283Y-108891641D01*
X171187133Y-108899115D01*
X171165909Y-108905180D01*
X171165906Y-108905181D01*
X171162555Y-108906139D01*
X171053419Y-108974999D01*
X170992548Y-109043923D01*
X170976996Y-109061532D01*
X170967996Y-109071722D01*
X170966512Y-109074883D01*
X170918833Y-109176437D01*
X170913154Y-109188532D01*
X170912617Y-109191979D01*
X170912617Y-109191980D01*
X170895700Y-109300632D01*
X170881931Y-109327742D01*
X169682004Y-110527670D01*
X169678852Y-110530558D01*
X169650693Y-110554186D01*
X169650690Y-110554189D01*
X169647406Y-110556945D01*
X169645262Y-110560659D01*
X169626884Y-110592491D01*
X169624588Y-110596095D01*
X169601046Y-110629716D01*
X169598951Y-110637535D01*
X169594057Y-110649348D01*
X169590012Y-110656355D01*
X169589267Y-110660578D01*
X169589267Y-110660579D01*
X169582886Y-110696772D01*
X169581961Y-110700942D01*
X169571336Y-110740593D01*
X169571709Y-110744858D01*
X169571709Y-110744860D01*
X169574914Y-110781488D01*
X169575100Y-110785759D01*
X169575100Y-113687678D01*
X169560748Y-113722326D01*
X169221326Y-114061748D01*
X169186678Y-114076100D01*
X168633322Y-114076100D01*
X168598674Y-114061748D01*
X168385208Y-113848282D01*
X168371351Y-113820581D01*
X168366680Y-113787964D01*
X168356239Y-113715059D01*
X168350795Y-113703084D01*
X168326021Y-113648599D01*
X168302828Y-113597588D01*
X168298192Y-113592207D01*
X168220873Y-113502474D01*
X168218593Y-113499828D01*
X168159922Y-113461800D01*
X168113237Y-113431540D01*
X168113233Y-113431538D01*
X168110306Y-113429641D01*
X168106962Y-113428641D01*
X168106960Y-113428640D01*
X167998770Y-113396284D01*
X167986673Y-113392666D01*
X167920473Y-113392262D01*
X167861123Y-113391899D01*
X167861121Y-113391899D01*
X167857631Y-113391878D01*
X167854276Y-113392837D01*
X167854275Y-113392837D01*
X167752890Y-113421813D01*
X167733555Y-113427339D01*
X167624419Y-113496199D01*
X167610589Y-113511859D01*
X167545456Y-113585608D01*
X167538996Y-113592922D01*
X167484154Y-113709732D01*
X167483617Y-113713179D01*
X167483617Y-113713180D01*
X167465710Y-113828193D01*
X167464301Y-113837240D01*
X167464753Y-113840697D01*
X167464753Y-113840700D01*
X167467556Y-113862132D01*
X167481033Y-113965194D01*
X167482440Y-113968391D01*
X167482440Y-113968392D01*
X167499129Y-114006320D01*
X167533005Y-114083310D01*
X167535251Y-114085982D01*
X167535253Y-114085985D01*
X167613792Y-114179418D01*
X167616039Y-114182091D01*
X167618943Y-114184024D01*
X167618944Y-114184025D01*
X167632396Y-114192979D01*
X167723460Y-114253596D01*
X167726786Y-114254635D01*
X167726788Y-114254636D01*
X167745558Y-114260500D01*
X167846633Y-114292078D01*
X167850123Y-114292142D01*
X167889736Y-114292868D01*
X167923486Y-114307212D01*
X168236470Y-114620196D01*
X168239358Y-114623348D01*
X168262986Y-114651507D01*
X168262989Y-114651510D01*
X168265745Y-114654794D01*
X168269459Y-114656938D01*
X168301291Y-114675316D01*
X168304895Y-114677612D01*
X168338516Y-114701154D01*
X168346336Y-114703249D01*
X168358148Y-114708143D01*
X168360209Y-114709333D01*
X168365155Y-114712188D01*
X168405584Y-114719317D01*
X168409747Y-114720241D01*
X168426422Y-114724709D01*
X168445254Y-114729755D01*
X168445256Y-114729755D01*
X168449394Y-114730864D01*
X168453659Y-114730491D01*
X168453661Y-114730491D01*
X168490293Y-114727286D01*
X168494563Y-114727100D01*
X169325441Y-114727100D01*
X169329712Y-114727286D01*
X169366340Y-114730491D01*
X169366342Y-114730491D01*
X169370607Y-114730864D01*
X169383960Y-114727286D01*
X169410246Y-114720242D01*
X169410258Y-114720239D01*
X169414423Y-114719315D01*
X169431232Y-114716351D01*
X169450621Y-114712933D01*
X169450622Y-114712933D01*
X169454845Y-114712188D01*
X169458562Y-114710042D01*
X169461852Y-114708143D01*
X169473664Y-114703249D01*
X169481484Y-114701154D01*
X169515105Y-114677612D01*
X169518709Y-114675316D01*
X169550541Y-114656938D01*
X169554255Y-114654794D01*
X169580645Y-114623344D01*
X169583532Y-114620194D01*
X170119196Y-114084530D01*
X170122348Y-114081642D01*
X170150507Y-114058014D01*
X170150510Y-114058011D01*
X170153794Y-114055255D01*
X170174316Y-114019708D01*
X170176613Y-114016103D01*
X170197694Y-113985997D01*
X170200154Y-113982484D01*
X170202249Y-113974664D01*
X170207143Y-113962852D01*
X170209044Y-113959558D01*
X170211188Y-113955845D01*
X170218317Y-113915416D01*
X170219242Y-113911248D01*
X170220742Y-113905652D01*
X170227003Y-113882283D01*
X170228755Y-113875746D01*
X170228755Y-113875744D01*
X170229864Y-113871606D01*
X170226286Y-113830707D01*
X170226100Y-113826437D01*
X170226100Y-110924522D01*
X170240452Y-110889874D01*
X171343214Y-109787113D01*
X171378759Y-109772769D01*
X171397385Y-109773110D01*
X171404655Y-109773243D01*
X171529155Y-109739300D01*
X171532126Y-109737476D01*
X171532128Y-109737475D01*
X171636150Y-109673605D01*
X171639124Y-109671779D01*
X171725722Y-109576107D01*
X171755161Y-109515346D01*
X171780466Y-109463117D01*
X171780467Y-109463115D01*
X171781988Y-109459975D01*
X171782317Y-109458021D01*
X171806164Y-109429805D01*
X171843536Y-109426668D01*
X171863284Y-109438700D01*
X175126563Y-112701979D01*
X175140915Y-112736627D01*
X175126563Y-112771275D01*
X175091915Y-112785627D01*
X175077426Y-112783436D01*
X175032039Y-112769387D01*
X175032040Y-112769387D01*
X175029752Y-112768679D01*
X175027377Y-112768429D01*
X175027375Y-112768429D01*
X174827250Y-112747395D01*
X174827245Y-112747395D01*
X174824867Y-112747145D01*
X174822482Y-112747362D01*
X174822477Y-112747362D01*
X174722284Y-112756481D01*
X174619701Y-112765816D01*
X174478742Y-112807302D01*
X174424373Y-112823304D01*
X174424371Y-112823305D01*
X174422070Y-112823982D01*
X174381667Y-112845104D01*
X174280662Y-112897909D01*
X174239500Y-112919428D01*
X174157704Y-112985193D01*
X174080810Y-113047017D01*
X174080807Y-113047020D01*
X174078945Y-113048517D01*
X174077406Y-113050351D01*
X174077405Y-113050352D01*
X174057395Y-113074199D01*
X173946522Y-113206332D01*
X173945367Y-113208433D01*
X173853310Y-113375885D01*
X173847274Y-113386864D01*
X173846550Y-113389145D01*
X173846550Y-113389146D01*
X173845379Y-113392837D01*
X173784982Y-113583234D01*
X173762018Y-113787964D01*
X173762218Y-113790346D01*
X173762218Y-113790350D01*
X173767572Y-113854100D01*
X173779257Y-113993255D01*
X173785809Y-114016103D01*
X173822964Y-114145678D01*
X173836042Y-114191288D01*
X173930210Y-114374520D01*
X173931696Y-114376395D01*
X173931698Y-114376398D01*
X173968080Y-114422300D01*
X174058175Y-114535972D01*
X174060001Y-114537526D01*
X174060002Y-114537527D01*
X174197791Y-114654794D01*
X174215062Y-114669493D01*
X174394896Y-114769999D01*
X174443434Y-114785770D01*
X174588545Y-114832920D01*
X174588549Y-114832921D01*
X174590827Y-114833661D01*
X174795392Y-114858053D01*
X175000798Y-114842248D01*
X175199223Y-114786847D01*
X175201352Y-114785772D01*
X175201356Y-114785770D01*
X175312246Y-114729755D01*
X175383108Y-114693960D01*
X175529739Y-114579400D01*
X175543560Y-114568602D01*
X175543561Y-114568601D01*
X175545449Y-114567126D01*
X175557629Y-114553016D01*
X175655799Y-114439283D01*
X175692892Y-114422300D01*
X176899004Y-114422300D01*
X176933652Y-114436652D01*
X176948004Y-114471300D01*
X176933652Y-114505948D01*
X175934866Y-115504734D01*
X175899943Y-115519085D01*
X172225521Y-115498364D01*
X171259565Y-115492917D01*
X171222721Y-115475904D01*
X171139593Y-115379428D01*
X171090608Y-115347678D01*
X171034237Y-115311140D01*
X171034233Y-115311138D01*
X171031306Y-115309241D01*
X171027962Y-115308241D01*
X171027960Y-115308240D01*
X170911023Y-115273268D01*
X170911024Y-115273268D01*
X170907673Y-115272266D01*
X170841473Y-115271862D01*
X170782123Y-115271499D01*
X170782121Y-115271499D01*
X170778631Y-115271478D01*
X170775276Y-115272437D01*
X170775275Y-115272437D01*
X170657910Y-115305980D01*
X170654555Y-115306939D01*
X170545419Y-115375799D01*
X170527294Y-115396322D01*
X170460774Y-115471641D01*
X170423771Y-115488204D01*
X168242399Y-115475903D01*
X162439712Y-115443181D01*
X162405145Y-115428634D01*
X162394950Y-115413484D01*
X162379921Y-115378415D01*
X162259162Y-115096644D01*
X162255200Y-115077343D01*
X162255200Y-112623600D01*
X162083186Y-112477762D01*
X161344136Y-111851176D01*
X161326989Y-111817823D01*
X161338449Y-111782113D01*
X161371802Y-111764966D01*
X161375824Y-111764801D01*
X167682134Y-111764801D01*
X167716782Y-111779153D01*
X167831486Y-111893857D01*
X167845802Y-111929023D01*
X167845301Y-111932240D01*
X167862033Y-112060194D01*
X167914005Y-112178310D01*
X167916251Y-112180982D01*
X167916253Y-112180985D01*
X167969640Y-112244496D01*
X167997039Y-112277091D01*
X167999943Y-112279024D01*
X167999944Y-112279025D01*
X168042850Y-112307585D01*
X168104460Y-112348596D01*
X168107786Y-112349635D01*
X168107788Y-112349636D01*
X168159738Y-112365866D01*
X168227633Y-112387078D01*
X168231123Y-112387142D01*
X168257320Y-112387622D01*
X168356655Y-112389443D01*
X168481155Y-112355500D01*
X168484126Y-112353676D01*
X168484128Y-112353675D01*
X168591124Y-112287979D01*
X168592063Y-112289508D01*
X168622218Y-112280172D01*
X168655393Y-112297662D01*
X168666694Y-112328963D01*
X168666694Y-112977729D01*
X168652342Y-113012377D01*
X168649989Y-113014549D01*
X168647213Y-113016300D01*
X168617469Y-113049979D01*
X168569890Y-113103852D01*
X168561790Y-113113023D01*
X168560306Y-113116184D01*
X168508541Y-113226441D01*
X168506948Y-113229833D01*
X168506411Y-113233280D01*
X168506411Y-113233281D01*
X168490182Y-113337516D01*
X168487095Y-113357341D01*
X168487547Y-113360798D01*
X168487547Y-113360801D01*
X168495526Y-113421813D01*
X168503827Y-113485295D01*
X168505234Y-113488492D01*
X168505234Y-113488493D01*
X168509776Y-113498815D01*
X168555799Y-113603411D01*
X168558045Y-113606083D01*
X168558047Y-113606086D01*
X168603723Y-113660424D01*
X168638833Y-113702192D01*
X168641737Y-113704125D01*
X168641738Y-113704126D01*
X168647519Y-113707974D01*
X168746254Y-113773697D01*
X168749580Y-113774736D01*
X168749582Y-113774737D01*
X168791920Y-113787964D01*
X168869427Y-113812179D01*
X168872917Y-113812243D01*
X168899114Y-113812723D01*
X168998449Y-113814544D01*
X169122949Y-113780601D01*
X169125920Y-113778777D01*
X169125922Y-113778776D01*
X169229944Y-113714906D01*
X169232918Y-113713080D01*
X169319516Y-113617408D01*
X169370655Y-113511859D01*
X169374259Y-113504420D01*
X169374260Y-113504418D01*
X169375782Y-113501276D01*
X169376637Y-113496199D01*
X169393269Y-113397333D01*
X169397191Y-113374021D01*
X169397327Y-113362901D01*
X169379033Y-113235160D01*
X169325622Y-113117689D01*
X169319511Y-113110596D01*
X169243667Y-113022575D01*
X169241387Y-113019929D01*
X169238455Y-113018029D01*
X169235828Y-113015737D01*
X169236906Y-113014501D01*
X169218774Y-112988173D01*
X169217694Y-112977940D01*
X169217694Y-108458618D01*
X169232046Y-108423970D01*
X169876776Y-107779240D01*
X169912322Y-107764896D01*
X169984594Y-107766220D01*
X170007655Y-107766643D01*
X170132155Y-107732700D01*
X170135126Y-107730876D01*
X170135128Y-107730875D01*
X170239150Y-107667005D01*
X170242124Y-107665179D01*
X170328722Y-107569507D01*
X170357225Y-107510677D01*
X170385248Y-107485753D01*
X170422687Y-107487945D01*
G37*
%TD.AperFunction*%
%TA.AperFunction,Conductor*%
G36*
X181764236Y-108112852D02*
G01*
X182354018Y-108702634D01*
X182368370Y-108737282D01*
X182354018Y-108771930D01*
X182332836Y-108784396D01*
X182262355Y-108804539D01*
X182153219Y-108873399D01*
X182067796Y-108970122D01*
X182050989Y-109005919D01*
X182026938Y-109057148D01*
X182012954Y-109086932D01*
X182012417Y-109090379D01*
X182012417Y-109090380D01*
X181994459Y-109205720D01*
X181993101Y-109214440D01*
X181993553Y-109217897D01*
X181993553Y-109217900D01*
X182009380Y-109338932D01*
X182009833Y-109342394D01*
X182019163Y-109363597D01*
X182023031Y-109372388D01*
X182023850Y-109409882D01*
X182012829Y-109426771D01*
X180071052Y-111368548D01*
X180036404Y-111382900D01*
X179330561Y-111382900D01*
X179321002Y-111381958D01*
X179303337Y-111378444D01*
X179303331Y-111378444D01*
X179298600Y-111377503D01*
X179271468Y-111382900D01*
X179271467Y-111382900D01*
X179191105Y-111398885D01*
X179160039Y-111419643D01*
X179122978Y-111444406D01*
X179122977Y-111444407D01*
X179099976Y-111459776D01*
X179097296Y-111463787D01*
X179087287Y-111478766D01*
X179081193Y-111486191D01*
X177395436Y-113171948D01*
X177360788Y-113186300D01*
X176410412Y-113186300D01*
X176375764Y-113171948D01*
X176315739Y-113111923D01*
X176301387Y-113077275D01*
X176315739Y-113042627D01*
X176350387Y-113028275D01*
X176365527Y-113030673D01*
X176386878Y-113037610D01*
X176591443Y-113062002D01*
X176796849Y-113046197D01*
X176995274Y-112990796D01*
X176997403Y-112989721D01*
X176997407Y-112989719D01*
X177133597Y-112920924D01*
X177179159Y-112897909D01*
X177341500Y-112771075D01*
X177343068Y-112769259D01*
X177474542Y-112616944D01*
X177474546Y-112616939D01*
X177476113Y-112615123D01*
X177577872Y-112435995D01*
X177591431Y-112395237D01*
X177614932Y-112324588D01*
X177642900Y-112240514D01*
X177644441Y-112228320D01*
X177668549Y-112037479D01*
X177668549Y-112037478D01*
X177668720Y-112036125D01*
X177669132Y-112006651D01*
X177649029Y-111801621D01*
X177643982Y-111784902D01*
X177590175Y-111606690D01*
X177589484Y-111604400D01*
X177527405Y-111487645D01*
X177493891Y-111424613D01*
X177493888Y-111424609D01*
X177492767Y-111422500D01*
X177362560Y-111262851D01*
X177203824Y-111131533D01*
X177074167Y-111061428D01*
X177024709Y-111034686D01*
X177024708Y-111034685D01*
X177022604Y-111033548D01*
X176825803Y-110972628D01*
X176823428Y-110972378D01*
X176823426Y-110972378D01*
X176623301Y-110951344D01*
X176623296Y-110951344D01*
X176620918Y-110951094D01*
X176618533Y-110951311D01*
X176618528Y-110951311D01*
X176518335Y-110960429D01*
X176415752Y-110969765D01*
X176274793Y-111011251D01*
X176220424Y-111027253D01*
X176220422Y-111027254D01*
X176218121Y-111027931D01*
X176188838Y-111043240D01*
X176122834Y-111077746D01*
X176085479Y-111081080D01*
X176065484Y-111068970D01*
X174152852Y-109156338D01*
X174138500Y-109121690D01*
X174138500Y-108577028D01*
X174152852Y-108542380D01*
X174187500Y-108528028D01*
X174222148Y-108542380D01*
X174232350Y-108557293D01*
X174238605Y-108571510D01*
X174240851Y-108574182D01*
X174240853Y-108574185D01*
X174274760Y-108614522D01*
X174321639Y-108670291D01*
X174327347Y-108674090D01*
X174327654Y-108674295D01*
X174348542Y-108705442D01*
X174349500Y-108715083D01*
X174349500Y-108807044D01*
X174348558Y-108816603D01*
X174344103Y-108839000D01*
X174345045Y-108843736D01*
X174348738Y-108862300D01*
X174349500Y-108866132D01*
X174349500Y-108866133D01*
X174365485Y-108946495D01*
X174426376Y-109037624D01*
X174430387Y-109040304D01*
X174445366Y-109050313D01*
X174452791Y-109056407D01*
X174915593Y-109519209D01*
X174921687Y-109526634D01*
X174924821Y-109531324D01*
X174934376Y-109545624D01*
X174957377Y-109560993D01*
X174957378Y-109560994D01*
X174988060Y-109581495D01*
X175025505Y-109606515D01*
X175097522Y-109620840D01*
X175105867Y-109622500D01*
X175105313Y-109625286D01*
X175105316Y-109625288D01*
X175105871Y-109622500D01*
X175133000Y-109627896D01*
X175155398Y-109623441D01*
X175164957Y-109622500D01*
X177514044Y-109622500D01*
X177523603Y-109623442D01*
X177546000Y-109627897D01*
X177573132Y-109622500D01*
X177573133Y-109622500D01*
X177653495Y-109606515D01*
X177690942Y-109581494D01*
X177716475Y-109564433D01*
X177721622Y-109560994D01*
X177721623Y-109560993D01*
X177740613Y-109548304D01*
X177744624Y-109545624D01*
X177754179Y-109531324D01*
X177757313Y-109526634D01*
X177763407Y-109519209D01*
X179169764Y-108112852D01*
X179204412Y-108098500D01*
X181729588Y-108098500D01*
X181764236Y-108112852D01*
G37*
%TD.AperFunction*%
%TA.AperFunction,Conductor*%
G36*
X181637236Y-99095852D02*
G01*
X183529948Y-100988564D01*
X183544300Y-101023212D01*
X183544300Y-104133444D01*
X183543358Y-104143003D01*
X183538903Y-104165400D01*
X183539845Y-104170136D01*
X183542910Y-104185544D01*
X183544300Y-104192532D01*
X183544300Y-104192533D01*
X183560285Y-104272895D01*
X183621176Y-104364024D01*
X183625187Y-104366704D01*
X183640166Y-104376713D01*
X183647591Y-104382807D01*
X184495148Y-105230364D01*
X184509500Y-105265012D01*
X184509500Y-106909804D01*
X184495148Y-106944452D01*
X183465056Y-107974544D01*
X183430408Y-107988896D01*
X183395760Y-107974544D01*
X181370207Y-105948991D01*
X181364113Y-105941566D01*
X181354104Y-105926587D01*
X181351424Y-105922576D01*
X181328423Y-105907207D01*
X181328422Y-105907206D01*
X181277371Y-105873095D01*
X181260295Y-105861685D01*
X181179933Y-105845700D01*
X181157537Y-105841245D01*
X181157536Y-105841245D01*
X181152800Y-105840303D01*
X181148064Y-105841245D01*
X181130404Y-105844758D01*
X181120844Y-105845700D01*
X178695556Y-105845700D01*
X178685996Y-105844758D01*
X178668336Y-105841245D01*
X178663600Y-105840303D01*
X178556105Y-105861685D01*
X178552091Y-105864367D01*
X178511785Y-105891299D01*
X178484263Y-105899556D01*
X178376723Y-105898899D01*
X178376721Y-105898899D01*
X178373231Y-105898878D01*
X178369876Y-105899837D01*
X178369875Y-105899837D01*
X178267199Y-105929182D01*
X178249155Y-105934339D01*
X178140019Y-106003199D01*
X178054596Y-106099922D01*
X177999754Y-106216732D01*
X177999217Y-106220179D01*
X177999217Y-106220180D01*
X177980716Y-106339007D01*
X177979901Y-106344240D01*
X177980353Y-106347697D01*
X177980353Y-106347700D01*
X177984234Y-106377377D01*
X177996633Y-106472194D01*
X178048605Y-106590310D01*
X178050851Y-106592982D01*
X178050853Y-106592985D01*
X178122232Y-106677900D01*
X178131639Y-106689091D01*
X178134543Y-106691024D01*
X178134544Y-106691025D01*
X178147996Y-106699979D01*
X178239060Y-106760596D01*
X178242386Y-106761635D01*
X178242388Y-106761636D01*
X178264093Y-106768417D01*
X178362233Y-106799078D01*
X178365723Y-106799142D01*
X178391920Y-106799622D01*
X178491255Y-106801443D01*
X178615755Y-106767500D01*
X178618726Y-106765676D01*
X178618728Y-106765675D01*
X178722750Y-106701805D01*
X178725724Y-106699979D01*
X178812322Y-106604307D01*
X178868588Y-106488175D01*
X178871860Y-106468729D01*
X178877101Y-106437571D01*
X178897002Y-106405784D01*
X178925422Y-106396700D01*
X181018388Y-106396700D01*
X181053036Y-106411052D01*
X183006144Y-108364160D01*
X183020496Y-108398808D01*
X183006144Y-108433456D01*
X182969756Y-108469844D01*
X182935108Y-108484196D01*
X182900460Y-108469844D01*
X182081407Y-107650791D01*
X182075313Y-107643366D01*
X182065304Y-107628387D01*
X182062624Y-107624376D01*
X182039623Y-107609007D01*
X182039622Y-107609006D01*
X181996772Y-107580375D01*
X181975509Y-107566167D01*
X181975508Y-107566167D01*
X181971495Y-107563485D01*
X181891133Y-107547500D01*
X181868737Y-107543045D01*
X181868736Y-107543045D01*
X181864000Y-107542103D01*
X181859264Y-107543045D01*
X181841604Y-107546558D01*
X181832044Y-107547500D01*
X179101957Y-107547500D01*
X179092398Y-107546559D01*
X179074731Y-107543045D01*
X179070000Y-107542104D01*
X179042871Y-107547500D01*
X179042316Y-107544712D01*
X179042313Y-107544714D01*
X179042867Y-107547500D01*
X178962731Y-107563440D01*
X178962505Y-107563485D01*
X178894378Y-107609006D01*
X178894377Y-107609007D01*
X178871376Y-107624376D01*
X178868696Y-107628387D01*
X178858687Y-107643366D01*
X178852593Y-107650791D01*
X177446236Y-109057148D01*
X177411588Y-109071500D01*
X175883155Y-109071500D01*
X175848507Y-109057148D01*
X175834155Y-109022500D01*
X175848507Y-108987852D01*
X175857516Y-108980743D01*
X175928750Y-108937005D01*
X175931724Y-108935179D01*
X176018322Y-108839507D01*
X176052445Y-108769078D01*
X176073065Y-108726519D01*
X176073066Y-108726517D01*
X176074588Y-108723375D01*
X176077001Y-108709036D01*
X176092901Y-108614522D01*
X176095997Y-108596120D01*
X176096133Y-108585000D01*
X176091400Y-108551952D01*
X176100695Y-108515621D01*
X176105257Y-108510359D01*
X176321209Y-108294407D01*
X176328634Y-108288313D01*
X176343613Y-108278304D01*
X176347624Y-108275624D01*
X176365224Y-108249285D01*
X176408515Y-108184495D01*
X176411909Y-108167433D01*
X176424500Y-108104133D01*
X176424501Y-108104129D01*
X176424500Y-108104129D01*
X176429896Y-108077000D01*
X176425441Y-108054602D01*
X176424500Y-108045043D01*
X176424500Y-107525612D01*
X176438852Y-107490964D01*
X180588409Y-103341407D01*
X180595834Y-103335313D01*
X180610813Y-103325304D01*
X180614824Y-103322624D01*
X180618978Y-103316407D01*
X180632420Y-103296292D01*
X180632424Y-103296285D01*
X180649649Y-103270505D01*
X180675715Y-103231495D01*
X180691700Y-103151133D01*
X180691700Y-103151132D01*
X180694209Y-103138519D01*
X180696155Y-103128737D01*
X180696155Y-103128736D01*
X180697097Y-103124000D01*
X180692642Y-103101603D01*
X180691700Y-103092044D01*
X180691700Y-103026581D01*
X180705951Y-102992176D01*
X180706924Y-102991579D01*
X180793522Y-102895907D01*
X180835921Y-102808397D01*
X180848265Y-102782919D01*
X180848266Y-102782917D01*
X180849788Y-102779775D01*
X180850999Y-102772581D01*
X180863206Y-102700020D01*
X180871197Y-102652520D01*
X180871333Y-102641400D01*
X180853039Y-102513659D01*
X180799628Y-102396188D01*
X180797310Y-102393497D01*
X180717673Y-102301074D01*
X180715393Y-102298428D01*
X180662875Y-102264388D01*
X180610037Y-102230140D01*
X180610033Y-102230138D01*
X180607106Y-102228241D01*
X180603762Y-102227241D01*
X180603760Y-102227240D01*
X180486823Y-102192268D01*
X180486824Y-102192268D01*
X180483473Y-102191266D01*
X180417273Y-102190862D01*
X180357923Y-102190499D01*
X180357921Y-102190499D01*
X180354431Y-102190478D01*
X180351076Y-102191437D01*
X180351075Y-102191437D01*
X180233710Y-102224980D01*
X180230355Y-102225939D01*
X180121219Y-102294799D01*
X180064500Y-102359021D01*
X180041099Y-102385518D01*
X180035796Y-102391522D01*
X180026775Y-102410737D01*
X180024809Y-102414924D01*
X179997092Y-102440188D01*
X179959629Y-102438454D01*
X179934365Y-102410737D01*
X179931458Y-102393497D01*
X179931483Y-102391522D01*
X179931533Y-102387400D01*
X179913239Y-102259659D01*
X179859828Y-102142188D01*
X179851375Y-102132377D01*
X179777873Y-102047074D01*
X179775593Y-102044428D01*
X179728088Y-102013637D01*
X179670237Y-101976140D01*
X179670233Y-101976138D01*
X179667306Y-101974241D01*
X179663962Y-101973241D01*
X179663960Y-101973240D01*
X179574866Y-101946595D01*
X179543673Y-101937266D01*
X179477473Y-101936862D01*
X179418123Y-101936499D01*
X179418121Y-101936499D01*
X179414631Y-101936478D01*
X179411276Y-101937437D01*
X179411275Y-101937437D01*
X179293910Y-101970980D01*
X179290555Y-101971939D01*
X179181419Y-102040799D01*
X179095996Y-102137522D01*
X179094512Y-102140683D01*
X179051258Y-102232812D01*
X179041154Y-102254332D01*
X179040617Y-102257779D01*
X179040617Y-102257780D01*
X179022950Y-102371252D01*
X179021301Y-102381840D01*
X179021753Y-102385297D01*
X179021753Y-102385300D01*
X179033583Y-102475764D01*
X179038033Y-102509794D01*
X179039440Y-102512991D01*
X179039440Y-102512992D01*
X179062635Y-102565707D01*
X179090005Y-102627910D01*
X179092251Y-102630582D01*
X179092253Y-102630585D01*
X179170749Y-102723967D01*
X179173039Y-102726691D01*
X179176358Y-102728900D01*
X179179054Y-102730695D01*
X179199942Y-102761842D01*
X179200900Y-102771483D01*
X179200900Y-103421388D01*
X179186548Y-103456036D01*
X175511585Y-107130999D01*
X175490403Y-107143464D01*
X175458514Y-107152578D01*
X175458508Y-107152581D01*
X175455155Y-107153539D01*
X175346019Y-107222399D01*
X175318045Y-107254074D01*
X175264826Y-107314333D01*
X175260596Y-107319122D01*
X175205754Y-107435932D01*
X175205217Y-107439379D01*
X175205217Y-107439380D01*
X175187310Y-107554393D01*
X175185901Y-107563440D01*
X175186353Y-107566897D01*
X175186353Y-107566900D01*
X175198867Y-107662592D01*
X175202633Y-107691394D01*
X175204040Y-107694591D01*
X175204040Y-107694592D01*
X175213809Y-107716794D01*
X175254605Y-107809510D01*
X175256851Y-107812182D01*
X175256853Y-107812185D01*
X175315428Y-107881868D01*
X175337639Y-107908291D01*
X175340543Y-107910224D01*
X175340544Y-107910225D01*
X175364898Y-107926436D01*
X175445060Y-107979796D01*
X175448386Y-107980835D01*
X175448388Y-107980836D01*
X175474187Y-107988896D01*
X175568233Y-108018278D01*
X175571723Y-108018342D01*
X175697255Y-108020643D01*
X175697222Y-108022417D01*
X175727707Y-108030813D01*
X175746233Y-108063420D01*
X175736275Y-108099577D01*
X175732257Y-108104127D01*
X175716035Y-108120349D01*
X175681088Y-108134700D01*
X175679054Y-108134688D01*
X175582723Y-108134099D01*
X175582721Y-108134099D01*
X175579231Y-108134078D01*
X175575876Y-108135037D01*
X175575875Y-108135037D01*
X175458510Y-108168580D01*
X175455155Y-108169539D01*
X175346019Y-108238399D01*
X175296554Y-108294407D01*
X175265899Y-108329118D01*
X175260596Y-108335122D01*
X175251496Y-108354504D01*
X175217598Y-108426706D01*
X175205754Y-108451932D01*
X175205217Y-108455379D01*
X175205217Y-108455380D01*
X175187136Y-108571510D01*
X175185901Y-108579440D01*
X175186353Y-108582897D01*
X175186353Y-108582900D01*
X175190902Y-108617683D01*
X175202633Y-108707394D01*
X175204040Y-108710591D01*
X175204040Y-108710592D01*
X175236690Y-108784795D01*
X175254605Y-108825510D01*
X175256851Y-108828182D01*
X175256853Y-108828185D01*
X175323946Y-108908001D01*
X175337639Y-108924291D01*
X175340543Y-108926224D01*
X175340544Y-108926225D01*
X175423899Y-108981710D01*
X175444789Y-109012856D01*
X175437537Y-109049652D01*
X175406391Y-109070542D01*
X175396747Y-109071500D01*
X175267412Y-109071500D01*
X175232764Y-109057148D01*
X174920693Y-108745077D01*
X174906341Y-108710429D01*
X174919013Y-108677547D01*
X174999978Y-108588098D01*
X174999982Y-108588093D01*
X175002322Y-108585507D01*
X175058588Y-108469375D01*
X175060943Y-108455380D01*
X175071807Y-108390799D01*
X175079997Y-108342120D01*
X175080133Y-108331000D01*
X175061839Y-108203259D01*
X175008428Y-108085788D01*
X174996780Y-108072269D01*
X174926473Y-107990674D01*
X174924193Y-107988028D01*
X174873127Y-107954929D01*
X174818837Y-107919740D01*
X174818833Y-107919738D01*
X174815906Y-107917841D01*
X174812562Y-107916841D01*
X174812560Y-107916840D01*
X174695623Y-107881868D01*
X174695624Y-107881868D01*
X174692273Y-107880866D01*
X174626073Y-107880462D01*
X174566723Y-107880099D01*
X174566721Y-107880099D01*
X174563231Y-107880078D01*
X174559876Y-107881037D01*
X174559875Y-107881037D01*
X174442510Y-107914580D01*
X174439155Y-107915539D01*
X174330019Y-107984399D01*
X174244596Y-108081122D01*
X174233793Y-108104133D01*
X174231855Y-108108260D01*
X174204139Y-108133525D01*
X174166676Y-108131791D01*
X174141411Y-108104075D01*
X174138500Y-108087436D01*
X174138500Y-102344012D01*
X174152852Y-102309364D01*
X175457986Y-101004230D01*
X175492634Y-100989878D01*
X175527282Y-101004230D01*
X175530136Y-101007342D01*
X175566239Y-101050291D01*
X175569143Y-101052224D01*
X175569144Y-101052225D01*
X175607716Y-101077900D01*
X175673660Y-101121796D01*
X175676986Y-101122835D01*
X175676988Y-101122836D01*
X175695758Y-101128700D01*
X175796833Y-101160278D01*
X175800323Y-101160342D01*
X175826520Y-101160822D01*
X175925855Y-101162643D01*
X176050355Y-101128700D01*
X176053326Y-101126876D01*
X176053328Y-101126875D01*
X176157350Y-101063005D01*
X176160324Y-101061179D01*
X176246922Y-100965507D01*
X176291802Y-100872875D01*
X176301665Y-100852519D01*
X176301666Y-100852517D01*
X176303188Y-100849375D01*
X176305017Y-100838507D01*
X176316020Y-100773100D01*
X176324597Y-100722120D01*
X176324682Y-100715181D01*
X176324710Y-100712902D01*
X176324710Y-100712899D01*
X176324733Y-100711000D01*
X176324074Y-100706394D01*
X176312714Y-100627078D01*
X176322009Y-100590745D01*
X176354272Y-100571626D01*
X176390605Y-100580921D01*
X176395867Y-100585483D01*
X176621148Y-100810764D01*
X176635500Y-100845412D01*
X176635500Y-101418028D01*
X176621148Y-101452676D01*
X176618795Y-101454848D01*
X176616019Y-101456599D01*
X176530596Y-101553322D01*
X176524395Y-101566529D01*
X176486067Y-101648167D01*
X176475754Y-101670132D01*
X176475217Y-101673579D01*
X176475217Y-101673580D01*
X176457575Y-101786891D01*
X176455901Y-101797640D01*
X176456353Y-101801097D01*
X176456353Y-101801100D01*
X176460987Y-101836533D01*
X176451249Y-101872750D01*
X176447049Y-101877535D01*
X176328636Y-101995948D01*
X176293988Y-102010300D01*
X175723761Y-102010300D01*
X175714202Y-102009358D01*
X175696537Y-102005844D01*
X175696531Y-102005844D01*
X175691800Y-102004903D01*
X175664668Y-102010300D01*
X175664667Y-102010300D01*
X175584305Y-102026285D01*
X175548153Y-102050441D01*
X175516178Y-102071806D01*
X175516177Y-102071807D01*
X175493176Y-102087176D01*
X175490496Y-102091187D01*
X175480487Y-102106166D01*
X175474393Y-102113591D01*
X174808391Y-102779593D01*
X174800966Y-102785687D01*
X174781976Y-102798376D01*
X174779296Y-102802387D01*
X174766607Y-102821377D01*
X174766605Y-102821380D01*
X174762157Y-102828037D01*
X174726160Y-102881910D01*
X174721085Y-102889505D01*
X174720144Y-102894238D01*
X174708603Y-102952258D01*
X174701283Y-102989059D01*
X174699703Y-102997000D01*
X174700645Y-103001734D01*
X174704158Y-103019396D01*
X174705100Y-103028956D01*
X174705100Y-104057244D01*
X174704158Y-104066803D01*
X174699703Y-104089200D01*
X174700645Y-104093936D01*
X174704234Y-104111980D01*
X174705100Y-104116332D01*
X174705100Y-104116333D01*
X174721085Y-104196695D01*
X174723768Y-104200710D01*
X174728030Y-104207089D01*
X174735706Y-104241851D01*
X174728701Y-104286840D01*
X174729153Y-104290297D01*
X174729153Y-104290300D01*
X174738337Y-104360529D01*
X174745433Y-104414794D01*
X174746840Y-104417991D01*
X174746840Y-104417992D01*
X174756622Y-104440224D01*
X174797405Y-104532910D01*
X174799651Y-104535582D01*
X174799653Y-104535585D01*
X174848424Y-104593605D01*
X174880439Y-104631691D01*
X174883343Y-104633624D01*
X174883344Y-104633625D01*
X174921916Y-104659300D01*
X174987860Y-104703196D01*
X174991186Y-104704235D01*
X174991188Y-104704236D01*
X175012893Y-104711017D01*
X175111033Y-104741678D01*
X175114523Y-104741742D01*
X175138856Y-104742188D01*
X175240055Y-104744043D01*
X175364555Y-104710100D01*
X175367526Y-104708276D01*
X175367528Y-104708275D01*
X175471550Y-104644405D01*
X175474524Y-104642579D01*
X175561122Y-104546907D01*
X175608619Y-104448875D01*
X175615865Y-104433919D01*
X175615866Y-104433917D01*
X175617388Y-104430775D01*
X175618994Y-104421234D01*
X175638483Y-104305384D01*
X175638797Y-104303520D01*
X175638933Y-104292400D01*
X175620639Y-104164659D01*
X175567228Y-104047188D01*
X175555320Y-104033368D01*
X175543576Y-103997752D01*
X175560456Y-103964262D01*
X175579551Y-103954109D01*
X175694755Y-103922700D01*
X175697726Y-103920876D01*
X175697728Y-103920875D01*
X175801750Y-103857005D01*
X175804724Y-103855179D01*
X175807066Y-103852592D01*
X175857732Y-103796617D01*
X175894060Y-103780500D01*
X178098244Y-103780500D01*
X178107803Y-103781442D01*
X178130200Y-103785897D01*
X178150963Y-103781767D01*
X178157332Y-103780500D01*
X178157333Y-103780500D01*
X178237695Y-103764515D01*
X178300675Y-103722433D01*
X178305822Y-103718994D01*
X178305823Y-103718993D01*
X178328824Y-103703624D01*
X178341513Y-103684634D01*
X178347607Y-103677209D01*
X178563576Y-103461240D01*
X178599122Y-103446896D01*
X178671394Y-103448220D01*
X178694455Y-103448643D01*
X178818955Y-103414700D01*
X178821926Y-103412876D01*
X178821928Y-103412875D01*
X178925950Y-103349005D01*
X178928924Y-103347179D01*
X179015522Y-103251507D01*
X179071788Y-103135375D01*
X179072564Y-103130767D01*
X179085304Y-103055038D01*
X179093197Y-103008120D01*
X179093333Y-102997000D01*
X179075039Y-102869259D01*
X179021628Y-102751788D01*
X179015984Y-102745237D01*
X178939673Y-102656674D01*
X178937393Y-102654028D01*
X178892160Y-102624710D01*
X178832037Y-102585740D01*
X178832033Y-102585738D01*
X178829106Y-102583841D01*
X178825762Y-102582841D01*
X178825760Y-102582840D01*
X178708823Y-102547868D01*
X178708824Y-102547868D01*
X178705473Y-102546866D01*
X178639273Y-102546462D01*
X178579923Y-102546099D01*
X178579921Y-102546099D01*
X178576431Y-102546078D01*
X178573076Y-102547037D01*
X178573075Y-102547037D01*
X178523170Y-102561300D01*
X178452355Y-102581539D01*
X178343219Y-102650399D01*
X178257796Y-102747122D01*
X178240989Y-102782919D01*
X178210496Y-102847869D01*
X178202954Y-102863932D01*
X178202417Y-102867379D01*
X178202417Y-102867380D01*
X178184775Y-102980691D01*
X178183101Y-102991440D01*
X178183553Y-102994897D01*
X178183553Y-102994900D01*
X178188187Y-103030333D01*
X178178449Y-103066550D01*
X178174249Y-103071335D01*
X178030436Y-103215148D01*
X177995788Y-103229500D01*
X175893790Y-103229500D01*
X175856669Y-103212485D01*
X175815473Y-103164674D01*
X175813193Y-103162028D01*
X175766757Y-103131930D01*
X175707837Y-103093740D01*
X175707833Y-103093738D01*
X175704906Y-103091841D01*
X175701562Y-103090841D01*
X175701560Y-103090840D01*
X175615962Y-103065240D01*
X175581273Y-103054866D01*
X175515073Y-103054462D01*
X175455723Y-103054099D01*
X175455721Y-103054099D01*
X175452231Y-103054078D01*
X175448874Y-103055037D01*
X175448870Y-103055038D01*
X175439325Y-103057766D01*
X175402066Y-103053489D01*
X175378746Y-103024119D01*
X175383023Y-102986860D01*
X175391211Y-102976005D01*
X175791564Y-102575652D01*
X175826212Y-102561300D01*
X176396444Y-102561300D01*
X176406003Y-102562242D01*
X176428400Y-102566697D01*
X176455532Y-102561300D01*
X176455533Y-102561300D01*
X176535895Y-102545315D01*
X176545399Y-102538965D01*
X176588990Y-102509838D01*
X176604022Y-102499794D01*
X176604023Y-102499793D01*
X176623010Y-102487106D01*
X176627024Y-102484424D01*
X176629704Y-102480413D01*
X176629708Y-102480409D01*
X176639717Y-102465430D01*
X176645810Y-102458006D01*
X176836376Y-102267440D01*
X176871922Y-102253096D01*
X176944194Y-102254420D01*
X176967255Y-102254843D01*
X177091755Y-102220900D01*
X177094726Y-102219076D01*
X177094728Y-102219075D01*
X177198750Y-102155205D01*
X177201724Y-102153379D01*
X177288322Y-102057707D01*
X177328761Y-101974241D01*
X177343065Y-101944719D01*
X177343066Y-101944717D01*
X177344588Y-101941575D01*
X177345285Y-101937437D01*
X177357727Y-101863475D01*
X177365997Y-101814320D01*
X177366133Y-101803200D01*
X177347839Y-101675459D01*
X177294428Y-101557988D01*
X177292029Y-101555203D01*
X177212473Y-101462874D01*
X177210193Y-101460228D01*
X177207261Y-101458328D01*
X177204634Y-101456036D01*
X177205712Y-101454800D01*
X177187580Y-101428472D01*
X177186500Y-101418239D01*
X177186500Y-100742957D01*
X177187441Y-100733398D01*
X177190955Y-100715731D01*
X177191896Y-100711000D01*
X177186500Y-100683871D01*
X177189288Y-100683316D01*
X177189286Y-100683313D01*
X177186500Y-100683867D01*
X177175204Y-100627078D01*
X177170515Y-100603505D01*
X177167834Y-100599493D01*
X177167833Y-100599490D01*
X177154434Y-100579438D01*
X177124994Y-100535378D01*
X177124992Y-100535376D01*
X177120920Y-100529281D01*
X177109624Y-100512376D01*
X177090634Y-100499687D01*
X177083209Y-100493593D01*
X176620407Y-100030791D01*
X176614313Y-100023366D01*
X176604304Y-100008387D01*
X176601624Y-100004376D01*
X176578623Y-99989007D01*
X176578622Y-99989006D01*
X176574146Y-99986015D01*
X176527003Y-99954515D01*
X176514509Y-99946166D01*
X176514504Y-99946164D01*
X176510495Y-99943485D01*
X176505761Y-99942543D01*
X176505760Y-99942543D01*
X176430133Y-99927500D01*
X176407737Y-99923045D01*
X176407736Y-99923045D01*
X176403000Y-99922103D01*
X176398264Y-99923045D01*
X176380604Y-99926558D01*
X176371044Y-99927500D01*
X175535412Y-99927500D01*
X175500764Y-99913148D01*
X175486412Y-99878500D01*
X175500764Y-99843852D01*
X175740764Y-99603852D01*
X175775412Y-99589500D01*
X177547194Y-99589500D01*
X177581842Y-99603852D01*
X177584702Y-99606970D01*
X177623639Y-99653291D01*
X177626543Y-99655224D01*
X177626544Y-99655225D01*
X177653999Y-99673500D01*
X177731060Y-99724796D01*
X177734386Y-99725835D01*
X177734388Y-99725836D01*
X177780298Y-99740179D01*
X177854233Y-99763278D01*
X177857723Y-99763342D01*
X177883920Y-99763822D01*
X177983255Y-99765643D01*
X178107755Y-99731700D01*
X178110726Y-99729876D01*
X178110728Y-99729875D01*
X178214750Y-99666005D01*
X178217724Y-99664179D01*
X178304322Y-99568507D01*
X178335201Y-99504772D01*
X178359065Y-99455519D01*
X178359066Y-99455517D01*
X178360588Y-99452375D01*
X178365223Y-99424828D01*
X178381683Y-99326984D01*
X178381997Y-99325120D01*
X178382133Y-99314000D01*
X178363839Y-99186259D01*
X178347708Y-99150781D01*
X178346432Y-99113300D01*
X178372033Y-99085894D01*
X178392314Y-99081500D01*
X181602588Y-99081500D01*
X181637236Y-99095852D01*
G37*
%TD.AperFunction*%
%TA.AperFunction,Conductor*%
G36*
X159107436Y-101077052D02*
G01*
X161326590Y-103296206D01*
X161332683Y-103303630D01*
X161342692Y-103318609D01*
X161342695Y-103318612D01*
X161345376Y-103322624D01*
X161368377Y-103337993D01*
X161368378Y-103337994D01*
X161392478Y-103354097D01*
X161436505Y-103383515D01*
X161506843Y-103397506D01*
X161544000Y-103404897D01*
X161566397Y-103400442D01*
X161575956Y-103399500D01*
X164519788Y-103399500D01*
X164554436Y-103413852D01*
X164568788Y-103448500D01*
X164554436Y-103483148D01*
X164085836Y-103951748D01*
X164051188Y-103966100D01*
X155827790Y-103966100D01*
X155790669Y-103949085D01*
X155789328Y-103947528D01*
X155747193Y-103898628D01*
X155682976Y-103857005D01*
X155641837Y-103830340D01*
X155641833Y-103830338D01*
X155638906Y-103828441D01*
X155635562Y-103827441D01*
X155635560Y-103827440D01*
X155518623Y-103792468D01*
X155518624Y-103792468D01*
X155515273Y-103791466D01*
X155449073Y-103791062D01*
X155389723Y-103790699D01*
X155389721Y-103790699D01*
X155386231Y-103790678D01*
X155382876Y-103791637D01*
X155382875Y-103791637D01*
X155265510Y-103825180D01*
X155262155Y-103826139D01*
X155153019Y-103894999D01*
X155098577Y-103956643D01*
X155078138Y-103979786D01*
X155067596Y-103991722D01*
X155066112Y-103994883D01*
X155028854Y-104074241D01*
X155012754Y-104108532D01*
X155012217Y-104111979D01*
X155012217Y-104111980D01*
X154994622Y-104224988D01*
X154992901Y-104236040D01*
X154993353Y-104239497D01*
X154993353Y-104239500D01*
X155001725Y-104303520D01*
X155009633Y-104363994D01*
X155011040Y-104367191D01*
X155011040Y-104367192D01*
X155034819Y-104421234D01*
X155061605Y-104482110D01*
X155063851Y-104484782D01*
X155063853Y-104484785D01*
X155132326Y-104566243D01*
X155144639Y-104580891D01*
X155147543Y-104582824D01*
X155147544Y-104582825D01*
X155157109Y-104589192D01*
X155252060Y-104652396D01*
X155255386Y-104653435D01*
X155255388Y-104653436D01*
X155274158Y-104659300D01*
X155375233Y-104690878D01*
X155378723Y-104690942D01*
X155404920Y-104691422D01*
X155504255Y-104693243D01*
X155628755Y-104659300D01*
X155631726Y-104657476D01*
X155631728Y-104657475D01*
X155735750Y-104593605D01*
X155738724Y-104591779D01*
X155746829Y-104582825D01*
X155791732Y-104533217D01*
X155828060Y-104517100D01*
X164153644Y-104517100D01*
X164163203Y-104518042D01*
X164185600Y-104522497D01*
X164192287Y-104521167D01*
X164212732Y-104517100D01*
X164212733Y-104517100D01*
X164293095Y-104501115D01*
X164297109Y-104498433D01*
X164347474Y-104464780D01*
X164347475Y-104464779D01*
X164361222Y-104455594D01*
X164361223Y-104455593D01*
X164380213Y-104442904D01*
X164384224Y-104440224D01*
X164396913Y-104421234D01*
X164403007Y-104413809D01*
X165522449Y-103294367D01*
X165557097Y-103280015D01*
X165591745Y-103294367D01*
X165606097Y-103329015D01*
X165601453Y-103349837D01*
X165579154Y-103397332D01*
X165578617Y-103400779D01*
X165578617Y-103400780D01*
X165563827Y-103495773D01*
X165559301Y-103524840D01*
X165561115Y-103538717D01*
X165551379Y-103574932D01*
X165547178Y-103579718D01*
X161263548Y-107863348D01*
X161228900Y-107877700D01*
X160309161Y-107877700D01*
X160274513Y-107863348D01*
X160260161Y-107828700D01*
X160265064Y-107807335D01*
X160299665Y-107735919D01*
X160299666Y-107735917D01*
X160301188Y-107732775D01*
X160311130Y-107673683D01*
X160316867Y-107639579D01*
X160322597Y-107605520D01*
X160322733Y-107594400D01*
X160304439Y-107466659D01*
X160251028Y-107349188D01*
X160230349Y-107325188D01*
X160169073Y-107254074D01*
X160166793Y-107251428D01*
X160114881Y-107217781D01*
X160061437Y-107183140D01*
X160061433Y-107183138D01*
X160058506Y-107181241D01*
X160055162Y-107180241D01*
X160055160Y-107180240D01*
X159938223Y-107145268D01*
X159938224Y-107145268D01*
X159934873Y-107144266D01*
X159826418Y-107143604D01*
X159792069Y-107129253D01*
X159678607Y-107015791D01*
X159672513Y-107008366D01*
X159662504Y-106993387D01*
X159659824Y-106989376D01*
X159636823Y-106974007D01*
X159636822Y-106974006D01*
X159598588Y-106948459D01*
X159568695Y-106928485D01*
X159488333Y-106912500D01*
X159465937Y-106908045D01*
X159465936Y-106908045D01*
X159461200Y-106907103D01*
X159456464Y-106908045D01*
X159438804Y-106911558D01*
X159429244Y-106912500D01*
X157501412Y-106912500D01*
X157466764Y-106898148D01*
X157452412Y-106863500D01*
X157466764Y-106828852D01*
X158726176Y-105569440D01*
X158761722Y-105555096D01*
X158833994Y-105556420D01*
X158857055Y-105556843D01*
X158981555Y-105522900D01*
X158984526Y-105521076D01*
X158984528Y-105521075D01*
X159088550Y-105457205D01*
X159091524Y-105455379D01*
X159178122Y-105359707D01*
X159209775Y-105294375D01*
X159232865Y-105246719D01*
X159232866Y-105246717D01*
X159234388Y-105243575D01*
X159239097Y-105215588D01*
X159246937Y-105168984D01*
X159255797Y-105116320D01*
X159255933Y-105105200D01*
X159237639Y-104977459D01*
X159184228Y-104859988D01*
X159099993Y-104762228D01*
X159061576Y-104737328D01*
X158994637Y-104693940D01*
X158994633Y-104693938D01*
X158991706Y-104692041D01*
X158988362Y-104691041D01*
X158988360Y-104691040D01*
X158882230Y-104659300D01*
X158868073Y-104655066D01*
X158801873Y-104654662D01*
X158742523Y-104654299D01*
X158742521Y-104654299D01*
X158739031Y-104654278D01*
X158735676Y-104655237D01*
X158735675Y-104655237D01*
X158618310Y-104688780D01*
X158614955Y-104689739D01*
X158505819Y-104758599D01*
X158420396Y-104855322D01*
X158365554Y-104972132D01*
X158365017Y-104975579D01*
X158365017Y-104975580D01*
X158359112Y-105013509D01*
X158345701Y-105099640D01*
X158346153Y-105103097D01*
X158346153Y-105103100D01*
X158350787Y-105138533D01*
X158341049Y-105174750D01*
X158336849Y-105179535D01*
X157126236Y-106390148D01*
X157091588Y-106404500D01*
X153338590Y-106404500D01*
X153301469Y-106387485D01*
X153260273Y-106339674D01*
X153257993Y-106337028D01*
X153219576Y-106312128D01*
X153152637Y-106268740D01*
X153152633Y-106268738D01*
X153149706Y-106266841D01*
X153146362Y-106265841D01*
X153146360Y-106265840D01*
X153029423Y-106230868D01*
X153029424Y-106230868D01*
X153026073Y-106229866D01*
X152959873Y-106229462D01*
X152900523Y-106229099D01*
X152900521Y-106229099D01*
X152897031Y-106229078D01*
X152893676Y-106230037D01*
X152893675Y-106230037D01*
X152776310Y-106263580D01*
X152772955Y-106264539D01*
X152663819Y-106333399D01*
X152578396Y-106430122D01*
X152523554Y-106546932D01*
X152523017Y-106550379D01*
X152523017Y-106550380D01*
X152514621Y-106604307D01*
X152503701Y-106674440D01*
X152504153Y-106677897D01*
X152504153Y-106677900D01*
X152519742Y-106797111D01*
X152510004Y-106833327D01*
X152477509Y-106852050D01*
X152444505Y-106844582D01*
X152339837Y-106776740D01*
X152339833Y-106776738D01*
X152336906Y-106774841D01*
X152333562Y-106773841D01*
X152333560Y-106773840D01*
X152216623Y-106738868D01*
X152216624Y-106738868D01*
X152213273Y-106737866D01*
X152147073Y-106737462D01*
X152087723Y-106737099D01*
X152087721Y-106737099D01*
X152084231Y-106737078D01*
X152080876Y-106738037D01*
X152080875Y-106738037D01*
X151975965Y-106768020D01*
X151938707Y-106763742D01*
X151915386Y-106734371D01*
X151913500Y-106720906D01*
X151913500Y-106584956D01*
X151914442Y-106575396D01*
X151917955Y-106557736D01*
X151918897Y-106553000D01*
X151909539Y-106505955D01*
X151897515Y-106445505D01*
X151894836Y-106441496D01*
X151894835Y-106441493D01*
X151864904Y-106396700D01*
X151864903Y-106396699D01*
X151851994Y-106377378D01*
X151851991Y-106377374D01*
X151839306Y-106358389D01*
X151839304Y-106358387D01*
X151836624Y-106354376D01*
X151817634Y-106341687D01*
X151810209Y-106335593D01*
X151064252Y-105589636D01*
X151049900Y-105554988D01*
X151049900Y-101431223D01*
X151064252Y-101396575D01*
X151086012Y-101383948D01*
X151180390Y-101358218D01*
X151180394Y-101358216D01*
X151183755Y-101357300D01*
X151219369Y-101335433D01*
X151256404Y-101329534D01*
X151286764Y-101351551D01*
X151293424Y-101384728D01*
X151285037Y-101438594D01*
X151285037Y-101438598D01*
X151284501Y-101442040D01*
X151284953Y-101445497D01*
X151284953Y-101445500D01*
X151292792Y-101505445D01*
X151301233Y-101569994D01*
X151302640Y-101573191D01*
X151302640Y-101573192D01*
X151322166Y-101617569D01*
X151353205Y-101688110D01*
X151355451Y-101690782D01*
X151355453Y-101690785D01*
X151404224Y-101748805D01*
X151436239Y-101786891D01*
X151439143Y-101788824D01*
X151439144Y-101788825D01*
X151448709Y-101795192D01*
X151543660Y-101858396D01*
X151546986Y-101859435D01*
X151546988Y-101859436D01*
X151565758Y-101865300D01*
X151666833Y-101896878D01*
X151670323Y-101896942D01*
X151696520Y-101897422D01*
X151795855Y-101899243D01*
X151920355Y-101865300D01*
X151923326Y-101863476D01*
X151923328Y-101863475D01*
X152027350Y-101799605D01*
X152030324Y-101797779D01*
X152038429Y-101788825D01*
X152083332Y-101739217D01*
X152119660Y-101723100D01*
X158312540Y-101723100D01*
X158344320Y-101735236D01*
X158345039Y-101736091D01*
X158347943Y-101738024D01*
X158347944Y-101738025D01*
X158361396Y-101746979D01*
X158452460Y-101807596D01*
X158455786Y-101808635D01*
X158455788Y-101808636D01*
X158500267Y-101822532D01*
X158575633Y-101846078D01*
X158579123Y-101846142D01*
X158605320Y-101846622D01*
X158704655Y-101848443D01*
X158829155Y-101814500D01*
X158832126Y-101812676D01*
X158832128Y-101812675D01*
X158936150Y-101748805D01*
X158939124Y-101746979D01*
X159025722Y-101651307D01*
X159072216Y-101555344D01*
X159080465Y-101538319D01*
X159080466Y-101538317D01*
X159081988Y-101535175D01*
X159086958Y-101505637D01*
X159096510Y-101448854D01*
X159103397Y-101407920D01*
X159103533Y-101396800D01*
X159085239Y-101269059D01*
X159031828Y-101151588D01*
X159025019Y-101143685D01*
X159013274Y-101108070D01*
X159030153Y-101074580D01*
X159062139Y-101062700D01*
X159072788Y-101062700D01*
X159107436Y-101077052D01*
G37*
%TD.AperFunction*%
%TA.AperFunction,Conductor*%
G36*
X187523452Y-92340652D02*
G01*
X187537804Y-92375300D01*
X187523452Y-92409948D01*
X186979852Y-92953548D01*
X186945204Y-92967900D01*
X186417161Y-92967900D01*
X186407602Y-92966958D01*
X186389937Y-92963444D01*
X186389931Y-92963444D01*
X186385200Y-92962503D01*
X186358068Y-92967900D01*
X186358067Y-92967900D01*
X186277705Y-92983885D01*
X186240519Y-93008732D01*
X186209578Y-93029406D01*
X186209577Y-93029407D01*
X186186576Y-93044776D01*
X186183896Y-93048787D01*
X186173887Y-93063766D01*
X186167793Y-93071191D01*
X183342791Y-95896193D01*
X183335366Y-95902287D01*
X183316376Y-95914976D01*
X183313696Y-95918987D01*
X183268577Y-95986512D01*
X183255485Y-96006105D01*
X183247528Y-96046110D01*
X183243003Y-96068858D01*
X183240588Y-96081001D01*
X183234103Y-96113600D01*
X183235045Y-96118334D01*
X183238558Y-96135996D01*
X183239500Y-96145556D01*
X183239500Y-98569797D01*
X183225148Y-98604445D01*
X183190500Y-98618797D01*
X183153379Y-98601782D01*
X183079873Y-98516474D01*
X183077593Y-98513828D01*
X183027716Y-98481500D01*
X182972237Y-98445540D01*
X182972233Y-98445538D01*
X182969306Y-98443641D01*
X182965962Y-98442641D01*
X182965960Y-98442640D01*
X182873118Y-98414874D01*
X182845673Y-98406666D01*
X182737218Y-98406004D01*
X182702869Y-98391653D01*
X182589407Y-98278191D01*
X182583313Y-98270766D01*
X182573304Y-98255787D01*
X182570624Y-98251776D01*
X182547623Y-98236407D01*
X182547622Y-98236406D01*
X182521465Y-98218929D01*
X182479495Y-98190885D01*
X182399133Y-98174900D01*
X182376737Y-98170445D01*
X182376736Y-98170445D01*
X182372000Y-98169503D01*
X182367264Y-98170445D01*
X182349604Y-98173958D01*
X182340044Y-98174900D01*
X177248612Y-98174900D01*
X177213964Y-98160548D01*
X176309247Y-97255831D01*
X176294895Y-97221183D01*
X176295574Y-97213053D01*
X176297238Y-97203167D01*
X176299197Y-97191520D01*
X176299333Y-97180400D01*
X176281039Y-97052659D01*
X176227628Y-96935188D01*
X176212155Y-96917230D01*
X176145673Y-96840074D01*
X176143393Y-96837428D01*
X176086092Y-96800288D01*
X176038037Y-96769140D01*
X176038033Y-96769138D01*
X176035106Y-96767241D01*
X176031762Y-96766241D01*
X176031760Y-96766240D01*
X175914823Y-96731268D01*
X175914824Y-96731268D01*
X175911473Y-96730266D01*
X175845273Y-96729862D01*
X175785923Y-96729499D01*
X175785921Y-96729499D01*
X175782431Y-96729478D01*
X175779076Y-96730437D01*
X175779075Y-96730437D01*
X175663995Y-96763327D01*
X175658355Y-96764939D01*
X175655404Y-96766801D01*
X175578091Y-96815582D01*
X175541130Y-96821933D01*
X175510503Y-96800288D01*
X175504152Y-96763327D01*
X175510277Y-96749157D01*
X175510322Y-96749107D01*
X175519368Y-96730437D01*
X175565065Y-96636119D01*
X175565066Y-96636117D01*
X175566588Y-96632975D01*
X175570206Y-96611474D01*
X175582846Y-96536339D01*
X175587997Y-96505720D01*
X175588133Y-96494600D01*
X175569839Y-96366859D01*
X175516428Y-96249388D01*
X175510254Y-96242222D01*
X175434473Y-96154274D01*
X175432193Y-96151628D01*
X175373522Y-96113600D01*
X175326837Y-96083340D01*
X175326833Y-96083338D01*
X175323906Y-96081441D01*
X175320562Y-96080441D01*
X175320560Y-96080440D01*
X175203623Y-96045468D01*
X175203624Y-96045468D01*
X175200273Y-96044466D01*
X175134073Y-96044062D01*
X175074723Y-96043699D01*
X175074721Y-96043699D01*
X175071231Y-96043678D01*
X175067876Y-96044637D01*
X175067875Y-96044637D01*
X174950510Y-96078180D01*
X174947155Y-96079139D01*
X174838019Y-96147999D01*
X174752596Y-96244722D01*
X174732237Y-96288085D01*
X174701579Y-96353386D01*
X174697754Y-96361532D01*
X174697217Y-96364979D01*
X174697217Y-96364980D01*
X174679866Y-96476421D01*
X174677901Y-96489040D01*
X174678353Y-96492497D01*
X174678353Y-96492500D01*
X174684387Y-96538641D01*
X174694633Y-96616994D01*
X174696040Y-96620191D01*
X174696040Y-96620192D01*
X174705389Y-96641440D01*
X174746605Y-96735110D01*
X174748851Y-96737782D01*
X174748853Y-96737785D01*
X174818703Y-96820881D01*
X174829639Y-96833891D01*
X174833413Y-96836403D01*
X174835654Y-96837895D01*
X174856542Y-96869042D01*
X174857500Y-96878683D01*
X174857500Y-97377044D01*
X174856558Y-97386603D01*
X174852103Y-97409000D01*
X174857500Y-97436132D01*
X174857500Y-97436133D01*
X174873485Y-97516495D01*
X174876165Y-97520505D01*
X174876165Y-97520506D01*
X174880459Y-97526932D01*
X174916777Y-97581285D01*
X174928457Y-97598765D01*
X174934376Y-97607624D01*
X174938390Y-97610306D01*
X174953366Y-97620313D01*
X174960791Y-97626407D01*
X176289236Y-98954852D01*
X176303588Y-98989500D01*
X176289236Y-99024148D01*
X176254588Y-99038500D01*
X175672956Y-99038500D01*
X175663396Y-99037558D01*
X175645736Y-99034045D01*
X175641000Y-99033103D01*
X175613868Y-99038500D01*
X175613867Y-99038500D01*
X175533505Y-99054485D01*
X175529491Y-99057167D01*
X175509196Y-99070728D01*
X175504787Y-99073674D01*
X175465378Y-99100006D01*
X175465377Y-99100007D01*
X175442376Y-99115376D01*
X175439696Y-99119387D01*
X175429687Y-99134366D01*
X175423593Y-99141791D01*
X170116509Y-104448875D01*
X170081861Y-104463227D01*
X170047213Y-104448875D01*
X170032861Y-104414227D01*
X170033540Y-104406098D01*
X170050483Y-104305384D01*
X170050797Y-104303520D01*
X170050933Y-104292400D01*
X170032639Y-104164659D01*
X169979228Y-104047188D01*
X169936632Y-103997752D01*
X169897273Y-103952074D01*
X169894993Y-103949428D01*
X169853756Y-103922700D01*
X169789637Y-103881140D01*
X169789633Y-103881138D01*
X169786706Y-103879241D01*
X169783362Y-103878241D01*
X169783360Y-103878240D01*
X169666423Y-103843268D01*
X169666424Y-103843268D01*
X169663073Y-103842266D01*
X169596873Y-103841862D01*
X169537523Y-103841499D01*
X169537521Y-103841499D01*
X169534031Y-103841478D01*
X169530676Y-103842437D01*
X169530675Y-103842437D01*
X169416092Y-103875185D01*
X169409955Y-103876939D01*
X169406249Y-103879277D01*
X169405745Y-103879364D01*
X169403816Y-103880227D01*
X169403595Y-103879734D01*
X169369290Y-103885631D01*
X169338661Y-103863989D01*
X169331100Y-103837838D01*
X169331100Y-102701166D01*
X169328119Y-102669631D01*
X169297992Y-102583841D01*
X169284450Y-102545278D01*
X169284449Y-102545277D01*
X169283234Y-102541816D01*
X169202750Y-102432850D01*
X169199642Y-102430554D01*
X169173502Y-102411247D01*
X169102792Y-102359020D01*
X169083450Y-102326892D01*
X169092491Y-102290495D01*
X169097257Y-102284959D01*
X169437809Y-101944407D01*
X169445234Y-101938313D01*
X169460213Y-101928304D01*
X169464224Y-101925624D01*
X169481852Y-101899243D01*
X169525116Y-101834494D01*
X169526810Y-101825980D01*
X169545556Y-101731731D01*
X169546497Y-101727000D01*
X169542041Y-101704597D01*
X169541100Y-101695038D01*
X169541100Y-100715181D01*
X169555351Y-100680776D01*
X169556324Y-100680179D01*
X169642922Y-100584507D01*
X169676433Y-100515341D01*
X169697665Y-100471519D01*
X169697666Y-100471517D01*
X169699188Y-100468375D01*
X169701404Y-100455200D01*
X169701850Y-100452553D01*
X169721752Y-100420766D01*
X169758301Y-100412362D01*
X169784819Y-100426035D01*
X170241990Y-100883206D01*
X170248083Y-100890630D01*
X170258092Y-100905609D01*
X170258096Y-100905613D01*
X170260776Y-100909624D01*
X170277436Y-100920756D01*
X170283777Y-100924993D01*
X170283778Y-100924994D01*
X170323021Y-100951215D01*
X170351905Y-100970515D01*
X170459400Y-100991897D01*
X170481797Y-100987442D01*
X170491356Y-100986500D01*
X170562147Y-100986500D01*
X170596795Y-101000852D01*
X171726268Y-102130325D01*
X171750675Y-102150515D01*
X171872792Y-102209156D01*
X171876413Y-102209700D01*
X171876415Y-102209701D01*
X172003128Y-102228751D01*
X172006753Y-102229296D01*
X172010378Y-102228751D01*
X172137092Y-102209701D01*
X172137094Y-102209700D01*
X172140715Y-102209156D01*
X172262832Y-102150515D01*
X172287239Y-102130325D01*
X172716925Y-101700639D01*
X172737115Y-101676232D01*
X172795756Y-101554115D01*
X172797578Y-101542001D01*
X172815351Y-101423778D01*
X172815896Y-101420153D01*
X172802039Y-101327982D01*
X172796301Y-101289815D01*
X172796300Y-101289813D01*
X172795756Y-101286192D01*
X172737115Y-101164075D01*
X172716925Y-101139668D01*
X171580132Y-100002875D01*
X171555725Y-99982685D01*
X171433608Y-99924044D01*
X171429987Y-99923500D01*
X171429985Y-99923499D01*
X171303272Y-99904449D01*
X171299647Y-99903904D01*
X171296022Y-99904449D01*
X171169308Y-99923499D01*
X171169306Y-99923500D01*
X171165685Y-99924044D01*
X171043568Y-99982685D01*
X171019161Y-100002875D01*
X170614674Y-100407362D01*
X170580026Y-100421714D01*
X170545378Y-100407362D01*
X170254249Y-100116233D01*
X170239897Y-100081585D01*
X170254249Y-100046937D01*
X170281609Y-100033131D01*
X170337315Y-100024756D01*
X170459432Y-99966115D01*
X170483839Y-99945925D01*
X170913525Y-99516239D01*
X170933715Y-99491832D01*
X170992356Y-99369715D01*
X170999061Y-99325120D01*
X171011951Y-99239378D01*
X171012496Y-99235753D01*
X171004577Y-99183081D01*
X170992901Y-99105415D01*
X170992900Y-99105413D01*
X170992356Y-99101792D01*
X170933715Y-98979675D01*
X170913525Y-98955268D01*
X169776732Y-97818475D01*
X169752325Y-97798285D01*
X169630208Y-97739644D01*
X169626587Y-97739100D01*
X169626585Y-97739099D01*
X169499872Y-97720049D01*
X169496247Y-97719504D01*
X169492622Y-97720049D01*
X169365908Y-97739099D01*
X169365906Y-97739100D01*
X169362285Y-97739644D01*
X169240168Y-97798285D01*
X169215761Y-97818475D01*
X168786075Y-98248161D01*
X168765885Y-98272568D01*
X168756918Y-98291241D01*
X168754146Y-98297014D01*
X168726210Y-98322034D01*
X168688763Y-98319973D01*
X168683329Y-98316923D01*
X168643706Y-98291241D01*
X168640362Y-98290241D01*
X168640360Y-98290240D01*
X168534230Y-98258500D01*
X168520073Y-98254266D01*
X168453873Y-98253862D01*
X168394523Y-98253499D01*
X168394521Y-98253499D01*
X168391031Y-98253478D01*
X168387676Y-98254437D01*
X168387675Y-98254437D01*
X168270310Y-98287980D01*
X168266955Y-98288939D01*
X168157819Y-98357799D01*
X168127920Y-98391653D01*
X168079528Y-98446447D01*
X168072396Y-98454522D01*
X168070912Y-98457683D01*
X168036725Y-98530500D01*
X168017554Y-98571332D01*
X168017017Y-98574779D01*
X168017017Y-98574780D01*
X167999824Y-98685208D01*
X167997701Y-98698840D01*
X167998153Y-98702297D01*
X167998153Y-98702300D01*
X168006525Y-98766320D01*
X168014433Y-98826794D01*
X168015840Y-98829991D01*
X168015840Y-98829992D01*
X168038963Y-98882543D01*
X168066405Y-98944910D01*
X168068651Y-98947582D01*
X168068653Y-98947585D01*
X168147192Y-99041018D01*
X168149439Y-99043691D01*
X168152343Y-99045624D01*
X168152344Y-99045625D01*
X168169684Y-99057167D01*
X168256860Y-99115196D01*
X168260186Y-99116235D01*
X168260188Y-99116236D01*
X168278958Y-99122100D01*
X168380033Y-99153678D01*
X168383523Y-99153742D01*
X168409720Y-99154222D01*
X168509055Y-99156043D01*
X168512417Y-99155126D01*
X168512420Y-99155126D01*
X168538349Y-99148057D01*
X168575552Y-99152790D01*
X168598512Y-99182444D01*
X168595592Y-99216156D01*
X168576354Y-99257132D01*
X168575817Y-99260579D01*
X168575817Y-99260580D01*
X168558311Y-99373017D01*
X168556501Y-99384640D01*
X168556953Y-99388097D01*
X168556953Y-99388100D01*
X168569822Y-99486511D01*
X168573233Y-99512594D01*
X168574640Y-99515791D01*
X168574640Y-99515792D01*
X168597835Y-99568507D01*
X168625205Y-99630710D01*
X168627451Y-99633382D01*
X168627453Y-99633385D01*
X168702053Y-99722132D01*
X168708239Y-99729491D01*
X168711143Y-99731424D01*
X168711144Y-99731425D01*
X168739617Y-99750378D01*
X168815660Y-99800996D01*
X168818986Y-99802035D01*
X168818988Y-99802036D01*
X168855359Y-99813399D01*
X168938833Y-99839478D01*
X168942323Y-99839542D01*
X168946991Y-99839628D01*
X169027566Y-99841104D01*
X169061944Y-99856088D01*
X169075659Y-99890994D01*
X169060675Y-99925373D01*
X169052814Y-99931536D01*
X168973574Y-99981534D01*
X168973572Y-99981536D01*
X168970619Y-99983399D01*
X168885196Y-100080122D01*
X168879689Y-100091852D01*
X168835680Y-100185589D01*
X168830354Y-100196932D01*
X168829817Y-100200379D01*
X168829817Y-100200380D01*
X168811556Y-100317666D01*
X168810501Y-100324440D01*
X168810953Y-100327897D01*
X168810953Y-100327900D01*
X168814954Y-100358494D01*
X168827233Y-100452394D01*
X168828640Y-100455591D01*
X168828640Y-100455592D01*
X168843198Y-100488678D01*
X168879205Y-100570510D01*
X168881451Y-100573182D01*
X168881453Y-100573185D01*
X168913781Y-100611643D01*
X168925089Y-100647400D01*
X168907801Y-100680681D01*
X168872044Y-100691989D01*
X168846892Y-100682387D01*
X168845628Y-100681440D01*
X168840360Y-100676873D01*
X168569642Y-100406154D01*
X168564374Y-100399926D01*
X168559747Y-100393428D01*
X168559202Y-100392662D01*
X168538985Y-100368461D01*
X168530365Y-100359627D01*
X168529461Y-100358833D01*
X168507362Y-100339436D01*
X168507363Y-100339436D01*
X168506650Y-100338811D01*
X168447607Y-100294561D01*
X168393435Y-100253961D01*
X168393428Y-100253957D01*
X168392041Y-100252917D01*
X168341202Y-100225083D01*
X168207093Y-100174808D01*
X168172255Y-100167148D01*
X168152185Y-100162735D01*
X168152182Y-100162735D01*
X168150483Y-100162361D01*
X168007654Y-100151747D01*
X167949827Y-100155689D01*
X167948121Y-100156053D01*
X167948122Y-100156053D01*
X167811467Y-100185224D01*
X167811462Y-100185226D01*
X167809759Y-100185589D01*
X167769921Y-100200247D01*
X167734851Y-100199543D01*
X167731771Y-100197485D01*
X167727039Y-100196544D01*
X167727037Y-100196543D01*
X167651409Y-100181500D01*
X167629013Y-100177045D01*
X167629012Y-100177045D01*
X167624276Y-100176103D01*
X167619540Y-100177045D01*
X167601880Y-100180558D01*
X167592320Y-100181500D01*
X167482839Y-100181500D01*
X167448191Y-100167148D01*
X167433839Y-100132500D01*
X167448191Y-100097852D01*
X167462752Y-100087955D01*
X167465155Y-100087300D01*
X167468126Y-100085476D01*
X167468130Y-100085474D01*
X167572150Y-100021605D01*
X167575124Y-100019779D01*
X167661722Y-99924107D01*
X167717988Y-99807975D01*
X167718988Y-99802036D01*
X167730820Y-99731700D01*
X167739397Y-99680720D01*
X167739533Y-99669600D01*
X167721239Y-99541859D01*
X167667828Y-99424388D01*
X167655114Y-99409632D01*
X167585873Y-99329274D01*
X167583593Y-99326628D01*
X167545176Y-99301728D01*
X167478237Y-99258340D01*
X167478233Y-99258338D01*
X167475306Y-99256441D01*
X167471962Y-99255441D01*
X167471960Y-99255440D01*
X167355023Y-99220468D01*
X167355024Y-99220468D01*
X167351673Y-99219466D01*
X167243218Y-99218804D01*
X167208869Y-99204453D01*
X165647607Y-97643191D01*
X165641513Y-97635766D01*
X165631504Y-97620787D01*
X165628824Y-97616776D01*
X165605823Y-97601407D01*
X165605822Y-97601406D01*
X165547889Y-97562696D01*
X165541709Y-97558566D01*
X165541704Y-97558564D01*
X165537695Y-97555885D01*
X165532961Y-97554943D01*
X165532960Y-97554943D01*
X165457333Y-97539900D01*
X165434937Y-97535445D01*
X165434936Y-97535445D01*
X165430200Y-97534503D01*
X165425464Y-97535445D01*
X165407804Y-97538958D01*
X165398244Y-97539900D01*
X164476160Y-97539900D01*
X164441512Y-97525548D01*
X164427160Y-97490900D01*
X164441512Y-97456252D01*
X164554512Y-97343252D01*
X164589160Y-97328900D01*
X165270421Y-97328900D01*
X165297573Y-97337111D01*
X165332953Y-97360662D01*
X165332959Y-97360665D01*
X165335860Y-97362596D01*
X165339186Y-97363635D01*
X165339188Y-97363636D01*
X165357958Y-97369500D01*
X165459033Y-97401078D01*
X165462523Y-97401142D01*
X165488720Y-97401622D01*
X165588055Y-97403443D01*
X165712555Y-97369500D01*
X165715526Y-97367676D01*
X165715528Y-97367675D01*
X165819550Y-97303805D01*
X165822524Y-97301979D01*
X165909122Y-97206307D01*
X165952077Y-97117648D01*
X165963865Y-97093319D01*
X165963866Y-97093317D01*
X165965388Y-97090175D01*
X165970661Y-97058836D01*
X165986285Y-96965961D01*
X165986797Y-96962920D01*
X165986933Y-96951800D01*
X165968639Y-96824059D01*
X165915228Y-96706588D01*
X165862075Y-96644900D01*
X165833273Y-96611474D01*
X165830993Y-96608828D01*
X165780871Y-96576341D01*
X165725637Y-96540540D01*
X165725633Y-96540538D01*
X165722706Y-96538641D01*
X165719362Y-96537641D01*
X165719360Y-96537640D01*
X165606302Y-96503828D01*
X165599073Y-96501666D01*
X165532873Y-96501262D01*
X165473523Y-96500899D01*
X165473521Y-96500899D01*
X165470031Y-96500878D01*
X165466676Y-96501837D01*
X165466675Y-96501837D01*
X165377190Y-96527412D01*
X165345955Y-96536339D01*
X165236819Y-96605199D01*
X165151396Y-96701922D01*
X165149912Y-96705083D01*
X165128953Y-96749724D01*
X165101236Y-96774989D01*
X165084598Y-96777900D01*
X165008540Y-96777900D01*
X164973892Y-96763548D01*
X164960085Y-96736185D01*
X164943101Y-96623215D01*
X164943100Y-96623213D01*
X164942556Y-96619592D01*
X164883915Y-96497475D01*
X164863725Y-96473068D01*
X163726932Y-95336275D01*
X163702525Y-95316085D01*
X163580408Y-95257444D01*
X163576787Y-95256900D01*
X163576785Y-95256899D01*
X163450072Y-95237849D01*
X163446447Y-95237304D01*
X163442822Y-95237849D01*
X163316108Y-95256899D01*
X163316106Y-95256900D01*
X163312485Y-95257444D01*
X163190368Y-95316085D01*
X163165961Y-95336275D01*
X162736275Y-95765961D01*
X162716085Y-95790368D01*
X162657444Y-95912485D01*
X162656900Y-95916106D01*
X162656899Y-95916108D01*
X162643369Y-96006105D01*
X162637304Y-96046447D01*
X162637849Y-96050072D01*
X162652572Y-96147999D01*
X162657444Y-96180408D01*
X162716085Y-96302525D01*
X162736275Y-96326932D01*
X163865595Y-97456252D01*
X163879947Y-97490900D01*
X163865595Y-97525548D01*
X163830947Y-97539900D01*
X163550853Y-97539900D01*
X163516205Y-97525548D01*
X162526932Y-96536275D01*
X162502525Y-96516085D01*
X162380408Y-96457444D01*
X162376787Y-96456900D01*
X162376785Y-96456899D01*
X162250072Y-96437849D01*
X162246447Y-96437304D01*
X162242822Y-96437849D01*
X162116108Y-96456899D01*
X162116106Y-96456900D01*
X162112485Y-96457444D01*
X161990368Y-96516085D01*
X161965961Y-96536275D01*
X161536275Y-96965961D01*
X161516085Y-96990368D01*
X161457444Y-97112485D01*
X161456900Y-97116106D01*
X161456899Y-97116108D01*
X161445846Y-97189628D01*
X161437304Y-97246447D01*
X161437849Y-97250072D01*
X161455530Y-97367675D01*
X161457444Y-97380408D01*
X161516085Y-97502525D01*
X161536275Y-97526932D01*
X162673068Y-98663725D01*
X162697475Y-98683915D01*
X162819592Y-98742556D01*
X162823213Y-98743100D01*
X162823215Y-98743101D01*
X162949928Y-98762151D01*
X162953553Y-98762696D01*
X162957178Y-98762151D01*
X163083892Y-98743101D01*
X163083894Y-98743100D01*
X163087515Y-98742556D01*
X163209632Y-98683915D01*
X163234039Y-98663725D01*
X163663725Y-98234039D01*
X163683915Y-98209632D01*
X163685209Y-98206938D01*
X163727587Y-98118689D01*
X163755523Y-98093668D01*
X163771758Y-98090900D01*
X164549427Y-98090900D01*
X164584075Y-98105252D01*
X164598427Y-98139900D01*
X164586154Y-98172336D01*
X164519914Y-98247339D01*
X164516396Y-98251322D01*
X164514912Y-98254483D01*
X164471381Y-98347202D01*
X164461554Y-98368132D01*
X164461017Y-98371579D01*
X164461017Y-98371580D01*
X164443903Y-98481500D01*
X164441701Y-98495640D01*
X164442153Y-98499097D01*
X164442153Y-98499100D01*
X164446787Y-98534533D01*
X164437049Y-98570750D01*
X164432849Y-98575535D01*
X163339609Y-99668775D01*
X163304961Y-99683127D01*
X162332933Y-99683127D01*
X162298285Y-99668775D01*
X162283933Y-99634127D01*
X162298285Y-99599479D01*
X162463725Y-99434039D01*
X162483915Y-99409632D01*
X162542556Y-99287515D01*
X162546606Y-99260580D01*
X162562151Y-99157178D01*
X162562696Y-99153553D01*
X162556639Y-99113264D01*
X162543101Y-99023215D01*
X162543100Y-99023213D01*
X162542556Y-99019592D01*
X162483915Y-98897475D01*
X162463725Y-98873068D01*
X161326932Y-97736275D01*
X161302525Y-97716085D01*
X161180408Y-97657444D01*
X161176787Y-97656900D01*
X161176785Y-97656899D01*
X161050072Y-97637849D01*
X161046447Y-97637304D01*
X161042822Y-97637849D01*
X160916108Y-97656899D01*
X160916106Y-97656900D01*
X160912485Y-97657444D01*
X160864743Y-97680370D01*
X160802514Y-97710252D01*
X160765068Y-97712313D01*
X160746655Y-97700729D01*
X159293052Y-96247126D01*
X159278700Y-96212478D01*
X159278700Y-94727320D01*
X160059700Y-94727320D01*
X160074513Y-94839836D01*
X160075740Y-94842798D01*
X160075741Y-94842802D01*
X160131273Y-94976867D01*
X160132502Y-94979833D01*
X160224749Y-95100051D01*
X160344967Y-95192298D01*
X160347930Y-95193525D01*
X160347933Y-95193527D01*
X160481998Y-95249059D01*
X160482002Y-95249060D01*
X160484964Y-95250287D01*
X160488145Y-95250706D01*
X160488146Y-95250706D01*
X160632017Y-95269647D01*
X160635200Y-95270066D01*
X160638383Y-95269647D01*
X160782254Y-95250706D01*
X160782255Y-95250706D01*
X160785436Y-95250287D01*
X160788398Y-95249060D01*
X160788402Y-95249059D01*
X160922467Y-95193527D01*
X160922470Y-95193525D01*
X160925433Y-95192298D01*
X161045651Y-95100051D01*
X161137898Y-94979833D01*
X161139127Y-94976867D01*
X161194659Y-94842802D01*
X161194660Y-94842798D01*
X161195887Y-94839836D01*
X161210700Y-94727320D01*
X161210700Y-93751880D01*
X161195887Y-93639364D01*
X161194660Y-93636402D01*
X161194659Y-93636398D01*
X161139127Y-93502333D01*
X161139125Y-93502330D01*
X161137898Y-93499367D01*
X161078025Y-93421339D01*
X161047607Y-93381698D01*
X161045651Y-93379149D01*
X161031797Y-93368518D01*
X160927982Y-93288858D01*
X160925433Y-93286902D01*
X160922470Y-93285675D01*
X160922467Y-93285673D01*
X160788402Y-93230141D01*
X160788398Y-93230140D01*
X160785436Y-93228913D01*
X160782255Y-93228494D01*
X160782254Y-93228494D01*
X160638383Y-93209553D01*
X160635200Y-93209134D01*
X160632017Y-93209553D01*
X160488146Y-93228494D01*
X160488145Y-93228494D01*
X160484964Y-93228913D01*
X160482002Y-93230140D01*
X160481998Y-93230141D01*
X160347933Y-93285673D01*
X160347930Y-93285675D01*
X160344967Y-93286902D01*
X160342418Y-93288858D01*
X160238604Y-93368518D01*
X160224749Y-93379149D01*
X160222793Y-93381698D01*
X160192375Y-93421339D01*
X160132502Y-93499367D01*
X160131275Y-93502330D01*
X160131273Y-93502333D01*
X160075741Y-93636398D01*
X160075740Y-93636402D01*
X160074513Y-93639364D01*
X160059700Y-93751880D01*
X160059700Y-94727320D01*
X159278700Y-94727320D01*
X159278700Y-93008300D01*
X159293052Y-92973652D01*
X159327700Y-92959300D01*
X170248240Y-92959300D01*
X170282888Y-92973652D01*
X170297240Y-93008300D01*
X170282888Y-93042948D01*
X169878275Y-93447561D01*
X169858085Y-93471968D01*
X169799444Y-93594085D01*
X169798900Y-93597706D01*
X169798899Y-93597708D01*
X169792158Y-93642546D01*
X169779304Y-93728047D01*
X169779849Y-93731672D01*
X169793436Y-93822043D01*
X169799444Y-93862008D01*
X169858085Y-93984125D01*
X169878275Y-94008532D01*
X170652148Y-94782405D01*
X170666500Y-94817053D01*
X170666500Y-95293388D01*
X170652148Y-95328036D01*
X170512036Y-95468148D01*
X170477388Y-95482500D01*
X169577812Y-95482500D01*
X169543164Y-95468148D01*
X169171847Y-95096831D01*
X169157495Y-95062183D01*
X169158174Y-95054053D01*
X169161484Y-95034381D01*
X169161484Y-95034380D01*
X169161797Y-95032520D01*
X169161933Y-95021400D01*
X169143639Y-94893659D01*
X169090228Y-94776188D01*
X169005993Y-94678428D01*
X168967576Y-94653528D01*
X168900637Y-94610140D01*
X168900633Y-94610138D01*
X168897706Y-94608241D01*
X168894362Y-94607241D01*
X168894360Y-94607240D01*
X168779570Y-94572910D01*
X168774073Y-94571266D01*
X168707873Y-94570862D01*
X168648523Y-94570499D01*
X168648521Y-94570499D01*
X168645031Y-94570478D01*
X168641676Y-94571437D01*
X168641675Y-94571437D01*
X168615965Y-94578785D01*
X168520955Y-94605939D01*
X168411819Y-94674799D01*
X168326396Y-94771522D01*
X168271554Y-94888332D01*
X168271017Y-94891779D01*
X168271017Y-94891780D01*
X168267552Y-94914036D01*
X168248040Y-94946064D01*
X168211597Y-94954915D01*
X168184487Y-94941146D01*
X166822532Y-93579191D01*
X166816438Y-93571766D01*
X166806429Y-93556787D01*
X166803749Y-93552776D01*
X166780748Y-93537407D01*
X166780747Y-93537406D01*
X166753050Y-93518900D01*
X166737897Y-93508775D01*
X166716634Y-93494567D01*
X166712620Y-93491885D01*
X166632258Y-93475900D01*
X166609862Y-93471445D01*
X166609861Y-93471445D01*
X166605125Y-93470503D01*
X166600389Y-93471445D01*
X166582729Y-93474958D01*
X166573169Y-93475900D01*
X165931441Y-93475900D01*
X165906624Y-93468560D01*
X165906604Y-93468604D01*
X165906304Y-93468465D01*
X165904790Y-93468017D01*
X165900506Y-93465241D01*
X165897162Y-93464241D01*
X165897160Y-93464240D01*
X165780223Y-93429268D01*
X165780224Y-93429268D01*
X165776873Y-93428266D01*
X165710673Y-93427862D01*
X165651323Y-93427499D01*
X165651321Y-93427499D01*
X165647831Y-93427478D01*
X165644476Y-93428437D01*
X165644475Y-93428437D01*
X165574444Y-93448452D01*
X165523755Y-93462939D01*
X165414619Y-93531799D01*
X165329196Y-93628522D01*
X165274354Y-93745332D01*
X165273817Y-93748779D01*
X165273817Y-93748780D01*
X165256188Y-93862008D01*
X165254501Y-93872840D01*
X165271233Y-94000794D01*
X165323205Y-94118910D01*
X165325451Y-94121582D01*
X165325453Y-94121585D01*
X165394751Y-94204024D01*
X165406239Y-94217691D01*
X165513660Y-94289196D01*
X165516986Y-94290235D01*
X165516988Y-94290236D01*
X165559854Y-94303628D01*
X165636833Y-94327678D01*
X165640323Y-94327742D01*
X165666520Y-94328222D01*
X165765855Y-94330043D01*
X165810023Y-94318001D01*
X165880104Y-94298895D01*
X165917308Y-94303628D01*
X165940268Y-94333281D01*
X165941579Y-94339816D01*
X165957033Y-94457994D01*
X165958440Y-94461191D01*
X165958440Y-94461192D01*
X165976683Y-94502653D01*
X166009005Y-94576110D01*
X166011251Y-94578782D01*
X166011253Y-94578785D01*
X166082840Y-94663948D01*
X166092039Y-94674891D01*
X166094943Y-94676824D01*
X166094944Y-94676825D01*
X166131301Y-94701026D01*
X166199460Y-94746396D01*
X166202786Y-94747435D01*
X166202788Y-94747436D01*
X166254738Y-94763666D01*
X166322633Y-94784878D01*
X166326123Y-94784942D01*
X166333131Y-94785070D01*
X166437767Y-94786988D01*
X166471516Y-94801332D01*
X168499163Y-96828979D01*
X168505256Y-96836403D01*
X168515265Y-96851382D01*
X168515269Y-96851386D01*
X168517949Y-96855397D01*
X168540950Y-96870766D01*
X168540951Y-96870767D01*
X168609078Y-96916288D01*
X168716573Y-96937670D01*
X168738970Y-96933215D01*
X168748529Y-96932273D01*
X170944361Y-96932273D01*
X170979009Y-96946625D01*
X172712577Y-98680193D01*
X172726929Y-98714841D01*
X172726347Y-98722372D01*
X172722101Y-98749640D01*
X172722553Y-98753097D01*
X172722553Y-98753100D01*
X172729935Y-98809548D01*
X172738833Y-98877594D01*
X172740240Y-98880791D01*
X172740240Y-98880792D01*
X172772827Y-98954852D01*
X172790805Y-98995710D01*
X172793051Y-98998382D01*
X172793053Y-98998385D01*
X172857685Y-99075274D01*
X172873839Y-99094491D01*
X172876743Y-99096424D01*
X172876744Y-99096425D01*
X172904944Y-99115196D01*
X172981260Y-99165996D01*
X172984586Y-99167035D01*
X172984588Y-99167036D01*
X173006293Y-99173817D01*
X173104433Y-99204478D01*
X173107923Y-99204542D01*
X173134120Y-99205022D01*
X173233455Y-99206843D01*
X173357955Y-99172900D01*
X173360926Y-99171076D01*
X173360928Y-99171075D01*
X173464950Y-99107205D01*
X173467924Y-99105379D01*
X173554522Y-99009707D01*
X173599402Y-98917075D01*
X173609265Y-98896719D01*
X173609266Y-98896717D01*
X173610788Y-98893575D01*
X173614377Y-98872246D01*
X173629594Y-98781793D01*
X173632197Y-98766320D01*
X173632333Y-98755200D01*
X173614039Y-98627459D01*
X173560628Y-98509988D01*
X173551247Y-98499100D01*
X173478673Y-98414874D01*
X173476393Y-98412228D01*
X173437976Y-98387328D01*
X173371037Y-98343940D01*
X173371033Y-98343938D01*
X173368106Y-98342041D01*
X173306409Y-98323589D01*
X173277328Y-98299913D01*
X173273505Y-98262605D01*
X173294812Y-98234888D01*
X173363350Y-98192805D01*
X173366324Y-98190979D01*
X173452922Y-98095307D01*
X173509188Y-97979175D01*
X173512435Y-97959878D01*
X173520239Y-97913486D01*
X173530597Y-97851920D01*
X173530733Y-97840800D01*
X173512439Y-97713059D01*
X173459028Y-97595588D01*
X173411045Y-97539900D01*
X173377073Y-97500474D01*
X173374793Y-97497828D01*
X173322178Y-97463725D01*
X173269437Y-97429540D01*
X173269433Y-97429538D01*
X173266506Y-97427641D01*
X173263162Y-97426641D01*
X173263160Y-97426640D01*
X173146223Y-97391668D01*
X173146224Y-97391668D01*
X173142873Y-97390666D01*
X173076673Y-97390262D01*
X173017323Y-97389899D01*
X173017321Y-97389899D01*
X173013831Y-97389878D01*
X173010476Y-97390837D01*
X173010475Y-97390837D01*
X172963495Y-97404264D01*
X172889755Y-97425339D01*
X172886803Y-97427202D01*
X172886802Y-97427202D01*
X172873385Y-97435667D01*
X172872648Y-97436133D01*
X172869454Y-97438148D01*
X172832492Y-97444500D01*
X172808658Y-97431356D01*
X171471093Y-96093791D01*
X171464999Y-96086366D01*
X171454990Y-96071387D01*
X171452310Y-96067376D01*
X171429309Y-96052007D01*
X171429308Y-96052006D01*
X171419523Y-96045468D01*
X171377689Y-96017515D01*
X171365195Y-96009166D01*
X171365190Y-96009164D01*
X171361181Y-96006485D01*
X171356447Y-96005543D01*
X171356446Y-96005543D01*
X171280819Y-95990500D01*
X171258423Y-95986045D01*
X171258422Y-95986045D01*
X171253686Y-95985103D01*
X171248950Y-95986045D01*
X171231290Y-95989558D01*
X171221730Y-95990500D01*
X170887212Y-95990500D01*
X170852564Y-95976148D01*
X170838212Y-95941500D01*
X170852564Y-95906852D01*
X171114209Y-95645207D01*
X171121634Y-95639113D01*
X171136613Y-95629104D01*
X171140624Y-95626424D01*
X171185425Y-95559376D01*
X171201515Y-95535295D01*
X171202587Y-95529907D01*
X171217500Y-95454933D01*
X171222897Y-95427800D01*
X171218442Y-95405403D01*
X171217500Y-95395844D01*
X171217500Y-95289478D01*
X171231852Y-95254830D01*
X171266500Y-95240478D01*
X171273781Y-95241023D01*
X171295553Y-95244296D01*
X171299178Y-95243751D01*
X171425892Y-95224701D01*
X171425894Y-95224700D01*
X171429515Y-95224156D01*
X171551632Y-95165515D01*
X171576039Y-95145325D01*
X172005725Y-94715639D01*
X172025915Y-94691232D01*
X172084556Y-94569115D01*
X172087410Y-94550133D01*
X172106753Y-94518003D01*
X172143150Y-94508963D01*
X172170513Y-94522770D01*
X172767668Y-95119925D01*
X172792075Y-95140115D01*
X172914192Y-95198756D01*
X172917813Y-95199300D01*
X172917815Y-95199301D01*
X173044528Y-95218351D01*
X173048153Y-95218896D01*
X173051778Y-95218351D01*
X173178492Y-95199301D01*
X173178494Y-95199300D01*
X173182115Y-95198756D01*
X173295809Y-95144160D01*
X173333254Y-95142099D01*
X173351667Y-95153683D01*
X173931777Y-95733793D01*
X173946129Y-95768441D01*
X173945547Y-95775972D01*
X173941301Y-95803240D01*
X173941753Y-95806697D01*
X173941753Y-95806700D01*
X173954253Y-95902287D01*
X173958033Y-95931194D01*
X174010005Y-96049310D01*
X174012251Y-96051982D01*
X174012253Y-96051985D01*
X174082872Y-96135996D01*
X174093039Y-96148091D01*
X174095943Y-96150024D01*
X174095944Y-96150025D01*
X174105509Y-96156392D01*
X174200460Y-96219596D01*
X174203786Y-96220635D01*
X174203788Y-96220636D01*
X174238687Y-96231539D01*
X174323633Y-96258078D01*
X174327123Y-96258142D01*
X174353320Y-96258622D01*
X174452655Y-96260443D01*
X174577155Y-96226500D01*
X174580126Y-96224676D01*
X174580128Y-96224675D01*
X174684150Y-96160805D01*
X174687124Y-96158979D01*
X174773722Y-96063307D01*
X174810929Y-95986512D01*
X174828465Y-95950319D01*
X174828466Y-95950317D01*
X174829988Y-95947175D01*
X174834731Y-95918987D01*
X174851083Y-95821784D01*
X174851397Y-95819920D01*
X174851533Y-95808800D01*
X174833239Y-95681059D01*
X174779828Y-95563588D01*
X174709959Y-95482500D01*
X174697873Y-95468474D01*
X174695593Y-95465828D01*
X174636922Y-95427800D01*
X174590237Y-95397540D01*
X174590233Y-95397538D01*
X174587306Y-95395641D01*
X174583962Y-95394641D01*
X174583960Y-95394640D01*
X174467023Y-95359668D01*
X174467024Y-95359668D01*
X174463673Y-95358666D01*
X174355218Y-95358004D01*
X174320869Y-95343653D01*
X173747538Y-94770322D01*
X173733186Y-94735674D01*
X173747538Y-94701026D01*
X173758325Y-94690239D01*
X173778515Y-94665832D01*
X173837156Y-94543715D01*
X173840010Y-94524733D01*
X173859353Y-94492603D01*
X173895750Y-94483563D01*
X173923113Y-94497370D01*
X174545668Y-95119925D01*
X174570075Y-95140115D01*
X174692192Y-95198756D01*
X174695813Y-95199300D01*
X174695815Y-95199301D01*
X174822528Y-95218351D01*
X174826153Y-95218896D01*
X174829778Y-95218351D01*
X174956492Y-95199301D01*
X174956494Y-95199300D01*
X174960115Y-95198756D01*
X175082232Y-95140115D01*
X175106639Y-95119925D01*
X175536325Y-94690239D01*
X175556515Y-94665832D01*
X175615156Y-94543715D01*
X175621330Y-94502650D01*
X175640672Y-94470523D01*
X175677068Y-94461481D01*
X175704432Y-94475289D01*
X176323668Y-95094525D01*
X176348075Y-95114715D01*
X176470192Y-95173356D01*
X176473813Y-95173900D01*
X176473815Y-95173901D01*
X176600528Y-95192951D01*
X176604153Y-95193496D01*
X176607778Y-95192951D01*
X176734492Y-95173901D01*
X176734494Y-95173900D01*
X176738115Y-95173356D01*
X176860232Y-95114715D01*
X176884639Y-95094525D01*
X177314325Y-94664839D01*
X177334515Y-94640432D01*
X177393156Y-94518315D01*
X177401701Y-94461481D01*
X177412751Y-94387978D01*
X177413296Y-94384353D01*
X177405131Y-94330043D01*
X177393701Y-94254015D01*
X177393700Y-94254013D01*
X177393156Y-94250392D01*
X177334515Y-94128275D01*
X177314325Y-94103868D01*
X177150440Y-93939983D01*
X177136088Y-93905335D01*
X177150440Y-93870687D01*
X177185214Y-93835913D01*
X177220759Y-93821569D01*
X177239280Y-93821908D01*
X177246655Y-93822043D01*
X177371155Y-93788100D01*
X177374126Y-93786276D01*
X177374128Y-93786275D01*
X177478150Y-93722405D01*
X177481124Y-93720579D01*
X177567722Y-93624907D01*
X177600726Y-93556787D01*
X177622465Y-93511919D01*
X177622466Y-93511917D01*
X177623988Y-93508775D01*
X177626379Y-93494567D01*
X177637504Y-93428437D01*
X177645397Y-93381520D01*
X177645533Y-93370400D01*
X177627239Y-93242659D01*
X177573828Y-93125188D01*
X177527302Y-93071191D01*
X177491873Y-93030074D01*
X177489593Y-93027428D01*
X177451176Y-93002528D01*
X177384237Y-92959140D01*
X177384233Y-92959138D01*
X177381306Y-92957241D01*
X177377962Y-92956241D01*
X177377960Y-92956240D01*
X177261023Y-92921268D01*
X177261024Y-92921268D01*
X177257673Y-92920266D01*
X177220362Y-92920038D01*
X177186013Y-92905687D01*
X176695530Y-92415204D01*
X176692641Y-92412051D01*
X176688231Y-92406795D01*
X176676955Y-92371028D01*
X176694273Y-92337763D01*
X176725768Y-92326300D01*
X187488804Y-92326300D01*
X187523452Y-92340652D01*
G37*
%TD.AperFunction*%
%TA.AperFunction,Conductor*%
G36*
X158613348Y-92973652D02*
G01*
X158627700Y-93008300D01*
X158627700Y-96351241D01*
X158627514Y-96355512D01*
X158623936Y-96396407D01*
X158625045Y-96400545D01*
X158625045Y-96400546D01*
X158634560Y-96436053D01*
X158635485Y-96440223D01*
X158642612Y-96480645D01*
X158644758Y-96484362D01*
X158646657Y-96487652D01*
X158651551Y-96499464D01*
X158653646Y-96507284D01*
X158661142Y-96517989D01*
X158677187Y-96540903D01*
X158679484Y-96544508D01*
X158700006Y-96580055D01*
X158729971Y-96605199D01*
X158731455Y-96606444D01*
X158734606Y-96609332D01*
X160291386Y-98166112D01*
X160305738Y-98200760D01*
X160300909Y-98221970D01*
X160257444Y-98312485D01*
X160256900Y-98316106D01*
X160256899Y-98316108D01*
X160242051Y-98414874D01*
X160237304Y-98446447D01*
X160237849Y-98450072D01*
X160255849Y-98569797D01*
X160257444Y-98580408D01*
X160316085Y-98702525D01*
X160336275Y-98726932D01*
X161199195Y-99589852D01*
X161213547Y-99624500D01*
X161199195Y-99659148D01*
X161164547Y-99673500D01*
X151415956Y-99673500D01*
X151406396Y-99672558D01*
X151401088Y-99671502D01*
X151384000Y-99668103D01*
X151379264Y-99669045D01*
X151378620Y-99669173D01*
X151375906Y-99669045D01*
X151374440Y-99669045D01*
X151374440Y-99668976D01*
X151355027Y-99668060D01*
X151298873Y-99651266D01*
X151238917Y-99650900D01*
X151204357Y-99636337D01*
X151190217Y-99601602D01*
X151195119Y-99580536D01*
X151206465Y-99557119D01*
X151206466Y-99557117D01*
X151207988Y-99553975D01*
X151210027Y-99541859D01*
X151228027Y-99434861D01*
X151229397Y-99426720D01*
X151229533Y-99415600D01*
X151211239Y-99287859D01*
X151157828Y-99170388D01*
X151145413Y-99155979D01*
X151075873Y-99075274D01*
X151073593Y-99072628D01*
X151014066Y-99034045D01*
X150968237Y-99004340D01*
X150968233Y-99004338D01*
X150965306Y-99002441D01*
X150961962Y-99001441D01*
X150961960Y-99001440D01*
X150845023Y-98966468D01*
X150845024Y-98966468D01*
X150841673Y-98965466D01*
X150759446Y-98964964D01*
X150721501Y-98964732D01*
X150686941Y-98950169D01*
X150672800Y-98915733D01*
X150672800Y-94727320D01*
X154409700Y-94727320D01*
X154424513Y-94839836D01*
X154425740Y-94842798D01*
X154425741Y-94842802D01*
X154481273Y-94976867D01*
X154482502Y-94979833D01*
X154574749Y-95100051D01*
X154694967Y-95192298D01*
X154697930Y-95193525D01*
X154697933Y-95193527D01*
X154831998Y-95249059D01*
X154832002Y-95249060D01*
X154834964Y-95250287D01*
X154838145Y-95250706D01*
X154838146Y-95250706D01*
X154982017Y-95269647D01*
X154985200Y-95270066D01*
X154988383Y-95269647D01*
X155132254Y-95250706D01*
X155132255Y-95250706D01*
X155135436Y-95250287D01*
X155138398Y-95249060D01*
X155138402Y-95249059D01*
X155272467Y-95193527D01*
X155272470Y-95193525D01*
X155275433Y-95192298D01*
X155395651Y-95100051D01*
X155487898Y-94979833D01*
X155489127Y-94976867D01*
X155544659Y-94842802D01*
X155544660Y-94842798D01*
X155545887Y-94839836D01*
X155560700Y-94727320D01*
X155560700Y-93751880D01*
X155545887Y-93639364D01*
X155544660Y-93636402D01*
X155544659Y-93636398D01*
X155489127Y-93502333D01*
X155489125Y-93502330D01*
X155487898Y-93499367D01*
X155428025Y-93421339D01*
X155397607Y-93381698D01*
X155395651Y-93379149D01*
X155381797Y-93368518D01*
X155277982Y-93288858D01*
X155275433Y-93286902D01*
X155272470Y-93285675D01*
X155272467Y-93285673D01*
X155138402Y-93230141D01*
X155138398Y-93230140D01*
X155135436Y-93228913D01*
X155132255Y-93228494D01*
X155132254Y-93228494D01*
X154988383Y-93209553D01*
X154985200Y-93209134D01*
X154982017Y-93209553D01*
X154838146Y-93228494D01*
X154838145Y-93228494D01*
X154834964Y-93228913D01*
X154832002Y-93230140D01*
X154831998Y-93230141D01*
X154697933Y-93285673D01*
X154697930Y-93285675D01*
X154694967Y-93286902D01*
X154692418Y-93288858D01*
X154588604Y-93368518D01*
X154574749Y-93379149D01*
X154572793Y-93381698D01*
X154542375Y-93421339D01*
X154482502Y-93499367D01*
X154481275Y-93502330D01*
X154481273Y-93502333D01*
X154425741Y-93636398D01*
X154425740Y-93636402D01*
X154424513Y-93639364D01*
X154409700Y-93751880D01*
X154409700Y-94727320D01*
X150672800Y-94727320D01*
X150672800Y-94536822D01*
X150687152Y-94502174D01*
X152215674Y-92973652D01*
X152250322Y-92959300D01*
X158578700Y-92959300D01*
X158613348Y-92973652D01*
G37*
%TD.AperFunction*%
%TD*%
M02*
