%TF.GenerationSoftware,KiCad,Pcbnew,(6.0.5)*%
%TF.CreationDate,2022-09-09T17:06:15+01:00*%
%TF.ProjectId,ESC,4553432e-6b69-4636-9164-5f7063625858,rev?*%
%TF.SameCoordinates,Original*%
%TF.FileFunction,Soldermask,Bot*%
%TF.FilePolarity,Negative*%
%FSLAX46Y46*%
G04 Gerber Fmt 4.6, Leading zero omitted, Abs format (unit mm)*
G04 Created by KiCad (PCBNEW (6.0.5)) date 2022-09-09 17:06:15*
%MOMM*%
%LPD*%
G01*
G04 APERTURE LIST*
G04 Aperture macros list*
%AMRoundRect*
0 Rectangle with rounded corners*
0 $1 Rounding radius*
0 $2 $3 $4 $5 $6 $7 $8 $9 X,Y pos of 4 corners*
0 Add a 4 corners polygon primitive as box body*
4,1,4,$2,$3,$4,$5,$6,$7,$8,$9,$2,$3,0*
0 Add four circle primitives for the rounded corners*
1,1,$1+$1,$2,$3*
1,1,$1+$1,$4,$5*
1,1,$1+$1,$6,$7*
1,1,$1+$1,$8,$9*
0 Add four rect primitives between the rounded corners*
20,1,$1+$1,$2,$3,$4,$5,0*
20,1,$1+$1,$4,$5,$6,$7,0*
20,1,$1+$1,$6,$7,$8,$9,0*
20,1,$1+$1,$8,$9,$2,$3,0*%
%AMHorizOval*
0 Thick line with rounded ends*
0 $1 width*
0 $2 $3 position (X,Y) of the first rounded end (center of the circle)*
0 $4 $5 position (X,Y) of the second rounded end (center of the circle)*
0 Add line between two ends*
20,1,$1,$2,$3,$4,$5,0*
0 Add two circle primitives to create the rounded ends*
1,1,$1,$2,$3*
1,1,$1,$4,$5*%
%AMRotRect*
0 Rectangle, with rotation*
0 The origin of the aperture is its center*
0 $1 length*
0 $2 width*
0 $3 Rotation angle, in degrees counterclockwise*
0 Add horizontal line*
21,1,$1,$2,0,0,$3*%
%AMFreePoly0*
4,1,22,0.499999,-0.750000,0.000000,-0.750000,0.000000,-0.745033,-0.079941,-0.743568,-0.215256,-0.701293,-0.333266,-0.622738,-0.424486,-0.514219,-0.481581,-0.384460,-0.499164,-0.250000,-0.500000,-0.250000,-0.500000,0.250000,-0.499164,0.250000,-0.499963,0.256109,-0.478152,0.396186,-0.417904,0.524511,-0.324060,0.630769,-0.204165,0.706417,-0.067858,0.745374,0.000000,0.744960,0.000000,0.750000,
0.499999,0.750000,0.499999,-0.750000,0.499999,-0.750000,$1*%
%AMFreePoly1*
4,1,20,0.000000,0.744960,0.073905,0.744508,0.209726,0.703889,0.328688,0.626782,0.421226,0.519385,0.479903,0.390333,0.500000,0.250000,0.500000,-0.250000,0.499851,-0.262216,0.476331,-0.402017,0.414519,-0.529596,0.319384,-0.634700,0.198574,-0.708877,0.061801,-0.746166,0.000000,-0.745033,0.000000,-0.750000,-0.499999,-0.750000,-0.499999,0.750000,0.000000,0.750000,0.000000,0.744960,
0.000000,0.744960,$1*%
G04 Aperture macros list end*
%ADD10C,0.000000*%
%ADD11RoundRect,0.250000X-0.353553X0.707107X-0.707107X0.353553X0.353553X-0.707107X0.707107X-0.353553X0*%
%ADD12O,0.750000X1.650000*%
%ADD13HorizOval,1.700000X0.000000X0.000000X0.000000X0.000000X0*%
%ADD14RotRect,1.700000X1.700000X315.000000*%
%ADD15RoundRect,0.250000X0.250000X0.750000X-0.250000X0.750000X-0.250000X-0.750000X0.250000X-0.750000X0*%
%ADD16C,0.500000*%
%ADD17FreePoly0,45.000000*%
%ADD18FreePoly1,45.000000*%
G04 APERTURE END LIST*
D10*
G36*
X144754600Y-95402400D02*
G01*
X144780000Y-116052600D01*
X147116800Y-117373400D01*
X149809200Y-119075200D01*
X142798800Y-119075200D01*
X142392400Y-118770400D01*
X142392400Y-95300800D01*
X144678400Y-95300800D01*
X144754600Y-95402400D01*
G37*
G36*
X193370200Y-118999000D02*
G01*
X193319400Y-119075200D01*
X185166000Y-119075200D01*
X185928000Y-117779800D01*
X191135000Y-116687600D01*
X191135000Y-114655600D01*
X190982600Y-95681800D01*
X193370200Y-95681800D01*
X193370200Y-118999000D01*
G37*
G36*
X190804800Y-95250000D02*
G01*
X190855600Y-116509800D01*
X185724800Y-117576600D01*
X184861200Y-119075200D01*
X150291800Y-119075200D01*
X144957800Y-115874800D01*
X144907000Y-94589600D01*
X147853400Y-94589600D01*
X147878800Y-113588800D01*
X149455006Y-114322380D01*
X150596600Y-115493800D01*
X151917400Y-115468400D01*
X153212800Y-116078000D01*
X153441400Y-116382800D01*
X153746200Y-116484400D01*
X154000200Y-116382800D01*
X154254200Y-116078686D01*
X155498798Y-116080089D01*
X161391600Y-116085940D01*
X181000400Y-116103400D01*
X182600600Y-114249200D01*
X188010800Y-114223800D01*
X187985400Y-94284800D01*
X189636400Y-94284800D01*
X190804800Y-95250000D01*
G37*
D11*
%TO.C,J17*%
X176250600Y-94030800D03*
%TD*%
%TO.C,J16*%
X165000000Y-95200000D03*
%TD*%
%TO.C,J15*%
X163800000Y-96400000D03*
%TD*%
%TO.C,J14*%
X162600000Y-97600000D03*
%TD*%
%TO.C,J4*%
X161400000Y-98800000D03*
%TD*%
%TO.C,J13*%
X169138600Y-94056200D03*
%TD*%
%TO.C,J12*%
X170942000Y-94081600D03*
%TD*%
%TO.C,J11*%
X172694600Y-94056200D03*
%TD*%
%TO.C,J2*%
X174472600Y-94056200D03*
%TD*%
D12*
%TO.C,J1*%
X154985200Y-94239600D03*
X160635200Y-94239600D03*
%TD*%
D13*
%TO.C,J3*%
X174817498Y-113802702D03*
X176613549Y-112006651D03*
D14*
X178409600Y-110210600D03*
%TD*%
D11*
%TO.C,J10*%
X170942000Y-97815400D03*
%TD*%
%TO.C,J9*%
X172796200Y-99949000D03*
%TD*%
D15*
%TO.C,J8*%
X170027600Y-102438200D03*
%TD*%
%TO.C,J7*%
X168630600Y-103505000D03*
%TD*%
D11*
%TO.C,J6*%
X171653200Y-101066600D03*
%TD*%
%TO.C,J5*%
X169849800Y-98882200D03*
%TD*%
D16*
%TO.C,IC7*%
X145821400Y-96352600D03*
X145262600Y-97020600D03*
X145821400Y-97673400D03*
X143129000Y-98435400D03*
X144094200Y-97521000D03*
X144094200Y-96555800D03*
X144094200Y-98435400D03*
X143129000Y-97521000D03*
X143129000Y-96555800D03*
X143173200Y-99455600D03*
%TD*%
%TO.C,IC5*%
X145262600Y-104020600D03*
X145821400Y-103352600D03*
X145821400Y-104673400D03*
X143129000Y-104521000D03*
X143173200Y-106455600D03*
X144094200Y-104521000D03*
X144094200Y-105435400D03*
X144094200Y-103555800D03*
X143129000Y-105435400D03*
X143129000Y-103555800D03*
%TD*%
%TO.C,IC4*%
X189948200Y-107284200D03*
X190507000Y-106616200D03*
X189948200Y-105963400D03*
X192640600Y-107081000D03*
X192596400Y-104181200D03*
X191675400Y-107081000D03*
X192640600Y-105201400D03*
X191675400Y-105201400D03*
X192640600Y-106115800D03*
X191675400Y-106115800D03*
%TD*%
%TO.C,IC3*%
X145821400Y-110352600D03*
X145821400Y-111673400D03*
X145262600Y-111020600D03*
X143173200Y-113455600D03*
X143129000Y-112435400D03*
X144094200Y-110555800D03*
X143129000Y-111521000D03*
X144094200Y-112435400D03*
X143129000Y-110555800D03*
X144094200Y-111521000D03*
%TD*%
%TO.C,IC2*%
X189948200Y-98963400D03*
X189948200Y-100284200D03*
X190507000Y-99616200D03*
X192640600Y-100081000D03*
X191675400Y-98201400D03*
X191675400Y-100081000D03*
X192640600Y-98201400D03*
X192640600Y-99115800D03*
X192596400Y-97181200D03*
X191675400Y-99115800D03*
%TD*%
%TO.C,IC6*%
X190507000Y-113616200D03*
X189948200Y-112963400D03*
X189948200Y-114284200D03*
X192640600Y-114081000D03*
X192640600Y-112201400D03*
X191675400Y-114081000D03*
X192640600Y-113115800D03*
X192596400Y-111181200D03*
X191675400Y-112201400D03*
X191675400Y-113115800D03*
%TD*%
D17*
%TO.C,JP1*%
X167284400Y-101955600D03*
D18*
X168203638Y-101036362D03*
%TD*%
M02*
